<svg xmlns="http://www.w3.org/2000/svg" id="peep-92" width="134.817" height="178.156" viewBox="0 0 134.817 178.156">
    <defs>
        <style>
            .cls-1{fill:#d08b5b}.cls-3{fill:#fff}
        </style>
    </defs>
    <g id="BODY" transform="translate(0 62.576)">
        <path id="_Skin" d="M113.51 51.708c-.518-1.36.238-2.717.658-4.033 1.49-4.563-2.586-16.074-5.436-16.242-1.042-2.58-3.825-3.651-6.014-5.137-2.485-1.484-4.9-3.188-7.486-4.489a1.529 1.529 0 0 0-2.654-.655c-2.616-1.557-5.754-1.268-8.559-2.288-2.131-3.3-2.291-6.761-2.855-9.94-.246-1.386.015-2.723-.974-3.959C76.863.492 63.725-1.448 58.881 1.2c-2.607-1.556-2.67 1.262-3.084 3a5.319 5.319 0 0 0-.633 2.9c-1.234 2.467-2.281 5.552-4.875 7.395-3.289 2.335-8.357 3.224-11.566 4.37a3.54 3.54 0 0 1-.94-1.621 38.756 38.756 0 0 0-13.969 5.693c-4.735 1.325-8.069 5.009-10.48 8.959a1.646 1.646 0 0 0-.251 1.231C5.668 43.526 2.129 55.975 1.632 68.548c-4.768 2.738 2.266 27.333 3.9 32.439 1.062 1.8 2.269 6.934 4.927 6.537 1.824 1.973 4.73 1.585 7.205 1.737a8.306 8.306 0 0 0 .275 4.634c.567 1.74 3.352 1.8 3.747-.1 24.647 4.581 49.935.926 74.859 1.614 7.206.049 14.412.262 21.6.753a1.938 1.938 0 0 0 1.97-1.885c-1.546-15.732-3-36.428-4.726-52.006a50.743 50.743 0 0 0-1.879-10.563z" class="cls-1" transform="translate(9.065 -5.203)"/>
        <path id="_Top" fill="#ffcf77" d="M83.236 99.776c-14.42 0-30.721-.245-43.606-.655-6.436-.2-11.79-.445-15.484-.7-1.949-.132-3.462-.268-4.5-.4-1.082-.142-1.653-.286-1.7-.428a11.6 11.6 0 0 1-.468-2.783 9.271 9.271 0 0 1 .194-2.8c-.463-.028-.952-.038-1.424-.047a16.467 16.467 0 0 1-3.122-.259 5.736 5.736 0 0 1-1.426-.5 4.38 4.38 0 0 1-1.234-.935 1.964 1.964 0 0 1-.289.022 2.848 2.848 0 0 1-2.257-1.585 19.285 19.285 0 0 1-1.54-3.144 16.652 16.652 0 0 0-.841-1.829C5.1 82.387 4.356 79.879 3.565 76.9c-.984-3.7-1.786-7.156-2.383-10.27A56.449 56.449 0 0 1 0 56.809a13.452 13.452 0 0 1 .363-3.535 4.525 4.525 0 0 1 .509-1.211 2.226 2.226 0 0 1 .76-.759 71.46 71.46 0 0 1 3.131-18.526 62.371 62.371 0 0 1 3.472-8.742 57.9 57.9 0 0 1 4.847-8.153A1.645 1.645 0 0 1 13.3 14.7l.032-.052a29.6 29.6 0 0 1 1.989-2.88 21.731 21.731 0 0 1 2.379-2.58A16.581 16.581 0 0 1 20.518 7.1a14.055 14.055 0 0 1 3.3-1.4A34.823 34.823 0 0 1 30.5 2.169 43.644 43.644 0 0 1 37.783 0c.007.032.016.066.026.1l-.094.2a8.393 8.393 0 0 0-.9 3.273 4.889 4.889 0 0 0 .4 1.392 21.932 21.932 0 0 0 1.2 2.5 34.211 34.211 0 0 0 4.907 6.716 30.008 30.008 0 0 0 8.378 6.368 26.342 26.342 0 0 0 5.544 2.051 26.464 26.464 0 0 0 3.118.572 27.769 27.769 0 0 0 3.353.2c.857 0 1.735-.039 2.61-.116a47.5 47.5 0 0 0 4.836-.668 36.7 36.7 0 0 0 4.34-1.109 29.072 29.072 0 0 0 3.844-1.549 24.13 24.13 0 0 0 3.347-1.99 21.5 21.5 0 0 0 2.851-2.43 20.926 20.926 0 0 0 2.357-2.865 22.378 22.378 0 0 0 1.858-3.311 25.979 25.979 0 0 0 1.362-3.752l.174-2.289a8.134 8.134 0 0 1 1.285.616 1.864 1.864 0 0 1 1.264-.5 1.5 1.5 0 0 1 .919.3 1.247 1.247 0 0 1 .472.861c1.7.857 3.359 1.906 4.96 2.92.825.523 1.679 1.063 2.525 1.569l.152.1c.464.307.959.6 1.438.889a19.891 19.891 0 0 1 2.586 1.732 7.227 7.227 0 0 1 1.062 1.081 5.43 5.43 0 0 1 .776 1.333l.408.025a1.581 1.581 0 0 1 .859.381 4.943 4.943 0 0 1 .889.982 15.619 15.619 0 0 1 1.65 3.164 29.267 29.267 0 0 1 1.3 4.1 24.243 24.243 0 0 1 .642 4.181 9.554 9.554 0 0 1-.312 3.4c-.085.265-.185.537-.281.8a4.563 4.563 0 0 0-.376 3.233 30.284 30.284 0 0 1 1.143 4.723c.267 1.6.452 3.234.631 4.818v.03l.113.99c1 9.034 1.916 19.845 2.8 30.3v.005c.656 7.762 1.276 15.093 1.925 21.7a1.578 1.578 0 0 1-.58 1.271 2.431 2.431 0 0 1-1.389.614c-3.31.29-8.206.512-14.552.658-5.803.139-12.658.207-20.367.207zm13.5-67.067c-2.852 0-9.446 1.3-14.226 2.42a27.846 27.846 0 0 0-3.887 1.2A20.011 20.011 0 0 0 76 37.581a10.141 10.141 0 0 0-1.955 1.387l-7.132 7.489-1.8 1.116c0 .034 0 3.537.418 7.355a11.7 11.7 0 0 0 .751 2.9 20.9 20.9 0 0 0 1.246 2.626 25.056 25.056 0 0 0 1.684 2.636h.018c.988-.259 9.708-2.543 11.48-2.863 1.412-.256 2.611-1.992 3.486-3.26.3-.431.553-.8.775-1.056a3.024 3.024 0 0 1 1.465-.737c.666-.189 1.473-.338 2.327-.5A28.837 28.837 0 0 0 91.832 54a4.374 4.374 0 0 0 1.654-.956A6.478 6.478 0 0 0 94.6 51.7a8.139 8.139 0 0 0 .829-1.707c.048-.01 5.68-1.173 7.476-1.557.452-.1.718-.277.79-.535.048-.173.03-.479-.331-.95a3.828 3.828 0 0 0-.458-.494l-14.117-.473.053-.011c1.418-.289 8.577-1.74 10.209-1.955a21.849 21.849 0 0 0 4.016-1.07 10.911 10.911 0 0 0 1.87-.855c.523-.32.788-.615.788-.876 0-.243-.37-.447-1.1-.606a19.585 19.585 0 0 0-2.724-.321c-2.032-.131-4.5-.149-6.866-.149h-.9c-3.832 0-12.385.69-12.471.7l3.3-1.511c.112-.021 11.181-2.067 12.647-2.067a1.576 1.576 0 0 0 .957-.333 2.761 2.761 0 0 0 .655-.732 4.669 4.669 0 0 0 .5-1.065 6.945 6.945 0 0 0-.453-.808 5.489 5.489 0 0 0-1.251-1.4 2.48 2.48 0 0 0-1.281-.216z" transform="translate(9.065 12.041)"/>
        <path id="_Device" d="M6.161 18.366l7.244-15.7S14.5 0 16.359 0s18.712.5 18.712.5 3.449.421 2.335 2.162-17.674 34.152-17.674 34.152h-7.023v-1.637l7.82-2.092s1.423-1.445-.8-1.445S4.6 31.168 4.6 31.168l12.31-1.728L23 27.2l-.9-1.178-5.194-.71L0 26.022l4.6-1.489 10.29-2.089s2.023-1.363 2.023-2.7-5.42-1.851-5.42-1.851z" class="cls-3" transform="translate(91.786 26.857)"/>
        <path id="_Ink" d="M121.663 114.42a.763.763 0 0 1-.591-.266 2.706 2.706 0 0 1-.774-1.853c-.023-.364-.036-.736-.048-1.095-.008-.241-.017-.49-.029-.735-.06-1.27-.139-2.6-.234-3.96-.191-2.734-.405-5.395-.638-7.907-.5-5.413-1.277-10.892-2.029-16.191-.53-3.739-1.079-7.6-1.525-11.415-.554-4.734-.936-9.432-1.135-13.964-.1-2.3-.14-4.65-.115-7 .008-.8.046-1.65.115-2.6-1.612 3.5-3.326 7.012-5.093 10.426l-.421.813a70.215 70.215 0 0 1-3.635 6.394l-.233.349-.179.275a10.917 10.917 0 0 1-.921 1.282 2.505 2.505 0 0 1-1.2.844 3.547 3.547 0 0 1-.908.1c-.256 0-.516-.015-.768-.03-.2-.012-.4-.023-.582-.026l-.619-.01c-.494-.007-1-.014-1.507-.034a10.862 10.862 0 0 1-2.32-.328 2.683 2.683 0 0 1-.358-.114 6.2 6.2 0 0 1-1.5 1.588 8.413 8.413 0 0 1-1.929 1.083 24.5 24.5 0 0 1-3.333 1l-.4.1c-.173.041-.353.08-.528.118a3.852 3.852 0 0 0-2.752 1.427l-.159.259a6.623 6.623 0 0 1-1.835 2.142 7.826 7.826 0 0 1-1.461.8 14.237 14.237 0 0 1-1.583.553c-.883.258-1.8.47-2.681.676h-.014l-.627.146-.3.072-.718.169h-.006c-.485.113-.986.229-1.476.357-.335.088-.636.168-.932.266a3.28 3.28 0 0 0-.9.5 1.615 1.615 0 0 1-.8.925 2.67 2.67 0 0 1-1.267.327c-.052 0-.1 0-.155-.005a2.851 2.851 0 0 1-1.268-.4c-.435.354-.9.688-1.356 1.01-.238.17-.485.345-.72.519-1.015.751-1.951 1.436-2.863 2.093-2.124 1.517-4.081 2.9-5.989 4.2-3.413 2.339-7.093 4.706-10.939 7.035-1.38.836-3.015 1.821-4.681 2.789l.168.06.333.12a4.185 4.185 0 0 1 1.147.583 1.653 1.653 0 0 1 .671 1.032 1.049 1.049 0 0 1-.177.848 1.192 1.192 0 0 1-.828.415 1.673 1.673 0 0 1-.2.012 1.886 1.886 0 0 1-1.03-.329 4.762 4.762 0 0 1-.828-.709c-.1-.1-.2-.2-.307-.3-.141-.135-.286-.274-.416-.419a1.538 1.538 0 0 1-.224-.344c-1.717.968-3.261 1.79-4.718 2.514l-.4.2c-1.718.84-3.444 1.73-5.113 2.591-2.174 1.121-4.423 2.28-6.679 3.343a22.442 22.442 0 0 1-3.631 1.383 15.385 15.385 0 0 1 .353 3.889v.161a.9.9 0 0 1-.269.671 1.134 1.134 0 0 1-.785.292 1.11 1.11 0 0 1-.78-.294.871.871 0 0 1-.25-.669l.022-.618a15.193 15.193 0 0 1 .36-3.132 13.51 13.51 0 0 1-2.109.16 17.678 17.678 0 0 1-4.142-.521 11.055 11.055 0 0 1-2.262-.768 9.187 9.187 0 0 1-2.13-1.818 13.961 13.961 0 0 1-1.68-2.3 27.55 27.55 0 0 1-1.307-2.516 49.9 49.9 0 0 1-2.206-5.634C2.74 93.21 2.205 91.251 1.741 89.2A71 71 0 0 1 .16 78.26a75.216 75.216 0 0 1 .094-11.075 78.287 78.287 0 0 1 4.92-21.571 81.372 81.372 0 0 1 4.668-10.066l.222-.4c1.045-1.883 1.956-3.393 2.867-4.753A35.874 35.874 0 0 1 16.348 26a28.082 28.082 0 0 1 4.352-3.815 35.485 35.485 0 0 1 5.028-2.967 51.012 51.012 0 0 1 5.3-2.21c.255-.091.534-.182.876-.285a18.679 18.679 0 0 1 3.012-1.523 11.1 11.1 0 0 1 1.637-.494 8.022 8.022 0 0 1 1.675-.186h.131a.564.564 0 0 1 .375.144 3.151 3.151 0 0 1 .331.072.613.613 0 0 1 .466.586l-.012.087a.7.7 0 0 1-.028.124 1.437 1.437 0 0 1 .241.056c1.443-.39 2.889-.923 4.288-1.438.718-.265 1.461-.538 2.189-.787l.491-.164.127-.043.069-.023a15.3 15.3 0 0 0 4.895-2.309 12.46 12.46 0 0 0 3.351-4.363A26.764 26.764 0 0 0 56.5 2.694c.26-.848.529-1.725.853-2.57A.193.193 0 0 1 57.54 0a.172.172 0 0 1 .18.172 21.278 21.278 0 0 1-.939 6.947 14.357 14.357 0 0 1-1.481 3.228 10.682 10.682 0 0 1-2.317 2.641 18.231 18.231 0 0 1-5.713 2.7c-.329.112-.669.227-1 .344l-.26.092-4.074 1.452c-.153.054-.31.114-.462.172a5.579 5.579 0 0 1-1.863.48 1.714 1.714 0 0 1-.872-.219c.231.547.454 1.107.669 1.65A38.007 38.007 0 0 0 41.1 23.49a28.781 28.781 0 0 0 1.949 3.158 26.9 26.9 0 0 0 2.37 2.881 24.093 24.093 0 0 0 4.309 3.589 26.379 26.379 0 0 0 4.964 2.528 29.515 29.515 0 0 0 5.409 1.5 32.325 32.325 0 0 0 5.644.492 33.655 33.655 0 0 0 7.149-.77 35.821 35.821 0 0 0 3.719-1.015A28.107 28.107 0 0 0 80.15 34.4a22.3 22.3 0 0 0 3.25-1.958 18.622 18.622 0 0 0 2.821-2.526 16.128 16.128 0 0 0 1.744-2.323A17.914 17.914 0 0 0 89.286 25a19.27 19.27 0 0 0 .9-2.769 19.624 19.624 0 0 0 .478-2.846.927.927 0 0 1-.139.011.891.891 0 0 1-.182-.019 12.913 12.913 0 0 1-3.564-1.51l-.1-.06a10.064 10.064 0 0 1-2.882-2.225 7.968 7.968 0 0 1-1.042-2.325c-.283-.856-.482-1.622-.484-1.629a28.143 28.143 0 0 1-.378-4.554c0-.067.2-.119.364-.119.107 0 .178.022.2.059a10.593 10.593 0 0 1 .578 2.34 12.807 12.807 0 0 0 .4 1.8l.072.2c.068.188.133.38.2.582.157.463.319.941.524 1.394A4.542 4.542 0 0 0 85 14.562a12.349 12.349 0 0 0 4.826 2.738c.305.118.621.24.925.362a1.353 1.353 0 0 1 .538-1 1.749 1.749 0 0 1 1.052-.334 1.665 1.665 0 0 1 1.161.436 1.345 1.345 0 0 1 .393 1.02c0 .078 0 .156-.008.232v.077c.247.13.485.28.686.409l.21.137a28.265 28.265 0 0 0 2.445 1.449c1.052.546 2.161 1.026 3.234 1.491.6.26 1.219.528 1.823.806a27.294 27.294 0 0 1 2.469 1.288 25.2 25.2 0 0 1 2.307 1.538 24.4 24.4 0 0 1 2 1.672l.172.162c.1.093.2.186.3.284a5.934 5.934 0 0 1 1.43 1.691c.077.17.455.554.662.567 3.506.22 6.63.517 9.553.907a1.128 1.128 0 0 1 .878.434.779.779 0 0 1-.036.736c-1.038 2.24-5.149 11.287-6.216 13.655.065.906.052 1.909.039 2.879-.012.928-.025 1.886.031 2.753.162 2.506.38 5.115.649 7.754.734 7.208 1.78 14.505 2.791 21.563.283 1.976.576 4.019.859 6.042.664 4.744 1.283 9.617 1.811 13.812.308 2.451.548 4.739.732 7 .081.99.154 1.974.216 2.924l.055.865.026.338a3.672 3.672 0 0 1-.48 2.722 1.155 1.155 0 0 1-.87.449zM3.019 82.752a72.318 72.318 0 0 0 1.415 7.363l.132.531c.455 1.808.868 3.282 1.3 4.639a42.281 42.281 0 0 0 1.7 4.511 15.868 15.868 0 0 0 2.549 4 11.588 11.588 0 0 0 1.717 1.571 6.262 6.262 0 0 0 1.6.78 8.7 8.7 0 0 0 2.787.481 9.3 9.3 0 0 0 3.711-.534h.013a35.632 35.632 0 0 0 4.932-2.207c.365-.186.743-.378 1.112-.563l.2-.1c.819-.405 1.668-.832 2.6-1.305a3.215 3.215 0 0 1 .057-1.187 4.167 4.167 0 0 1 .483-1.138.882.882 0 0 1 .781-.458 1.082 1.082 0 0 1 .677.248.972.972 0 0 1 .356.647v.033a4.259 4.259 0 0 0 .09.588c5.432-2.847 10.982-6 16.967-9.626 3.622-2.2 7.19-4.454 10.607-6.708 1.767-1.166 3.511-2.348 5.184-3.515.9-.628 1.8-1.265 2.677-1.892.19-.136.381-.277.565-.414l.539-.4c-.092-.11-.18-.218-.263-.322a13.357 13.357 0 0 1-1.717-2.818 15.032 15.032 0 0 1-1.014-3.117 22.607 22.607 0 0 1-.436-3.94l-.018-.57a13.316 13.316 0 0 1 .151-2.9l-.272.142c-.162.084-.329.17-.494.26-1.021.553-1.925 1.041-2.765 1.493-1.631.875-3.57 1.906-5.58 2.914-3.844 1.927-7.091 3.425-10.218 4.713l-1.692.7a92.229 92.229 0 0 1-8.952 3.293c-1.717.505-4.277 1.128-6.052 1.521a5.855 5.855 0 0 1 .613.672 3.186 3.186 0 0 1 .393.636 1.14 1.14 0 0 1 .115.651.81.81 0 0 1-.542.591 1.3 1.3 0 0 1-.513.108 1.587 1.587 0 0 1-.9-.313 3.477 3.477 0 0 1-.728-.7 4.65 4.65 0 0 1-.7-1.169c-.8.16-3.081.547-3.1.55a22.273 22.273 0 0 0-6.254 2.224.74.74 0 0 1-.334.1.25.25 0 0 1-.258-.166c-.059-.178.055-.488.443-.747a16.949 16.949 0 0 1 3.382-1.712 35.114 35.114 0 0 1 3.7-1.158l.124-.033c.907-.238 1.842-.493 2.78-.76a3.606 3.606 0 0 1-.149-1.12c.016-.568.056-1.147.1-1.707.022-.323.045-.658.064-.987.1-1.818.23-3.661.394-5.635.064-.771.131-1.482.2-2.174-.166-.085-.326-.181-.481-.273a4.443 4.443 0 0 0-.994-.484l-.093-.026a.424.424 0 0 1-.36-.447.558.558 0 0 1 .493-.5 4.274 4.274 0 0 1 .5-.029 4.57 4.57 0 0 1 .917.1c.074.015.142.032.207.051.092-.719.187-1.376.29-2.007.054-.334.107-.677.158-1.009a23.578 23.578 0 0 1 .93-4.292.188.188 0 0 1 .175-.118.15.15 0 0 1 .136.079 7.217 7.217 0 0 1 .755 2.354 23.311 23.311 0 0 1 .22 2.495l.023.438.012.211c.1 1.691.129 3.531.085 5.792-.036 1.867-.1 3.813-.2 5.948l-.021.519a12.955 12.955 0 0 1-.158 1.871c2.623-.816 5.207-1.71 7.681-2.657 2.561-.981 5.069-2.045 7.454-3.161 3.446-1.613 6.883-3.3 10.216-5.02.758-.391 1.53-.785 2.276-1.166H57.512c.913-.466 1.857-.948 2.783-1.427l1.772-.921.885-.462.28-.148a9.364 9.364 0 0 1 1.048-.5 3.463 3.463 0 0 1 1.156-.241h.029a.959.959 0 0 1 .7.315 3.084 3.084 0 0 1 1.725-.563h.022c1.114-1.472 2.038-2.65 2.907-3.706l.738-.9a24.141 24.141 0 0 1 4.261-4.3 10.511 10.511 0 0 1 2.362-1.248 1.271 1.271 0 0 1-.56-.29 2.612 2.612 0 0 1-.718-1.213 9.75 9.75 0 0 1-.3-1.44v-.006l-.054-.347a7.506 7.506 0 0 1-.094-1.48 11.466 11.466 0 0 1 .157-1.478.476.476 0 0 1 .5-.347.439.439 0 0 1 .42.232c.117.255.239.511.357.759.234.492.476 1 .69 1.519l.095.234a8.684 8.684 0 0 0 .4.836 3.886 3.886 0 0 1 .626 1.9 1.186 1.186 0 0 1-.245.668c.489-.155.99-.3 1.475-.442l.635-.186c1.992-.589 4.314-1.261 6.655-1.788.6-.135 1.206-.261 1.8-.374A28.026 28.026 0 0 1 91.35 43.7a3.649 3.649 0 0 1-.9-.7c-.122-.116-.248-.237-.384-.352a5.611 5.611 0 0 1-.731-.8c-.1-.128-.209-.259-.321-.387a.65.65 0 0 1-.1-.705.539.539 0 0 1 .505-.3h.027l.164.007a4.254 4.254 0 0 1 1.721.353l.193.1a6.646 6.646 0 0 1 .814.461c.3-.664.633-1.366 1.045-2.211l.461-.943.349-.718.011-.022a58.119 58.119 0 0 1 3.528-6.55 4.026 4.026 0 0 1 1.187-1.219 3.455 3.455 0 0 1 1.642-.53c.327-.025.674-.037 1.06-.037.622 0 1.257.032 1.871.064.348.018.708.036 1.059.048 1.64.056 3.134.119 4.568.19-.176-.177-.348-.365-.514-.547-.2-.22-.408-.448-.623-.653a23.317 23.317 0 0 0-2.06-1.757 25.767 25.767 0 0 0-4.634-2.733c-.421-.2-.851-.391-1.267-.578a31 31 0 0 1-3.579-1.8 13.722 13.722 0 0 1-2.628-2.166 19.367 19.367 0 0 1-.754 3.773 20.683 20.683 0 0 1-1.46 3.553 22.212 22.212 0 0 1-2.1 3.268 23.524 23.524 0 0 1-2.666 2.9 24.026 24.026 0 0 1-7.028 4.391 35.238 35.238 0 0 1-8.089 2.251 37.77 37.77 0 0 1-5.915.473 34.792 34.792 0 0 1-5.493-.431 31.47 31.47 0 0 1-5.335-1.336 30.281 30.281 0 0 1-4.023-1.735 29.385 29.385 0 0 1-3.724-2.3 1.864 1.864 0 0 1-.118.435 2.946 2.946 0 0 1-.3.508l-.205.287c-.117.164-.255.353-.408.527a1.789 1.789 0 0 1-1.394.581h-.009a1.617 1.617 0 0 1-.723-.171 1.64 1.64 0 0 1-.55-.446 1.461 1.461 0 0 1-.274-1.326 1.738 1.738 0 0 1 .415-.743 2.041 2.041 0 0 1 .724-.466c.187-.075.382-.14.565-.2l.143-.046a4.234 4.234 0 0 1 .581-.158 25.431 25.431 0 0 1-3.076-3.07 29.759 29.759 0 0 1-2.111-2.834 21.436 21.436 0 0 1-1.741-3.2 11.381 11.381 0 0 1-.946-6.885.2.2 0 0 1 .171-.141 1.479 1.479 0 0 1 .482-.845 4.433 4.433 0 0 0-.5-.1c-.5.108-1.005.2-1.386.271-.427.219-.857.443-1.273.66-1.292.673-2.628 1.37-4 1.977-2.151.952-3.939 1.786-5.668 2.76a30.474 30.474 0 0 0-2.649 1.677 29.587 29.587 0 0 0-2.417 1.91 30 30 0 0 0-2.2 2.142c-.69.745-1.358 1.543-1.987 2.372a61.619 61.619 0 0 0-5.705 9.152 76.678 76.678 0 0 0-4.182 9.883C5.9 50.24 5.364 52 4.893 53.757a8.57 8.57 0 0 1 2.92-1.576.881.881 0 0 1 .292-.048 1.237 1.237 0 0 1 1 .549.913.913 0 0 1 .156.55 1.115 1.115 0 0 1-.837 1.052 21.91 21.91 0 0 0-2.848.773h-.013l-.6.192a.645.645 0 0 1-.193.031.514.514 0 0 1-.246-.061 75 75 0 0 0-2.093 13.948 71.247 71.247 0 0 0 .379 11.958 6.079 6.079 0 0 1 1.09-.381c.479-.107.966-.238 1.489-.4a1.21 1.21 0 0 1 .362-.058.988.988 0 0 1 .728.316 1.261 1.261 0 0 1 .332.711 1.1 1.1 0 0 1-.14.712 1.034 1.034 0 0 1-.671.45c-.569.134-1.1.235-1.63.309a3.854 3.854 0 0 1-.541.038 5.208 5.208 0 0 1-.81-.07zm93.644-33.871a30.232 30.232 0 0 0-5.864.632c-2.032.4-4.03.948-5.717 1.431l-.856.245c-1.755.505-3.223.945-4.682 1.447a11.106 11.106 0 0 0-4.392 2.817c-.426.429-.853.866-1.266 1.289-.958.981-1.949 2-2.971 2.955-.833.782-1.748 1.619-2.8 2.558a2.749 2.749 0 0 0-.5.921 4.246 4.246 0 0 0-.078 1.857c.082.7.137 1.416.19 2.108.071.917.144 1.865.279 2.79a16.053 16.053 0 0 0 1.181 4.459 8.2 8.2 0 0 0 .978 1.581l.309.385c.128.159.281.345.444.522a1.1 1.1 0 0 1 .84-.41 1.067 1.067 0 0 1 .119.007 7.836 7.836 0 0 0 .88.054 6.332 6.332 0 0 0 1.418-.165c.418-.093.84-.2 1.249-.3l.634-.157c.345-.084.693-.167 1.03-.247.878-.208 1.786-.424 2.667-.673l.21-.06a11.762 11.762 0 0 0 1.345-.471 6.033 6.033 0 0 0 1.231-.692 4.569 4.569 0 0 0 1.186-1.476 7.938 7.938 0 0 1 .615-.933 4.3 4.3 0 0 1 2.121-1.331 17.277 17.277 0 0 1 2.667-.554c.587-.09 1.142-.176 1.643-.293a13.011 13.011 0 0 0 2.495-.823 7.076 7.076 0 0 0 2.1-1.42l.07-.072a.5.5 0 0 1 .241-.567l.045-.024a.509.509 0 0 1 .243-.06h.011a5.593 5.593 0 0 0 .316-.489.122.122 0 0 1 .108-.067.153.153 0 0 1 .113.053.136.136 0 0 1 .033.116c-.013.07-.031.141-.048.208l-.01.037a11.037 11.037 0 0 1 2.6-.235h1.006l1.527-.005a6.7 6.7 0 0 0 .693-.031l.036-.015.032-.013h-.01c-.007 0-.011 0-.013-.005s0-.021.018-.041c.069-.087.139-.18.216-.283.22-.294.444-.615.727-1.04a69.263 69.263 0 0 1-7.819 1.335c-1.521.189-2.9.327-4.224.425-1.5.111-2.891.165-4.243.166a.547.547 0 0 1-.581-.551.6.6 0 0 1 .141-.4.591.591 0 0 1 .44-.2c2.844-.1 5.9-.252 8.944-.628 1.489-.184 3.034-.422 4.591-.707.58-.106 1.172-.221 1.759-.342l.438-.092c.057-.012.139-.026.226-.04a3.668 3.668 0 0 0 1.206-.345l.038-.062.185-.3c-.013-.149-.16-.255-.44-.315a3.633 3.633 0 0 0-.742-.06h-3.159c-1.224 0-2.468-.01-3.672-.019h-.263c-.776-.006-1.566-.017-2.33-.028-1.133-.016-2.3-.033-3.456-.033-1.238 0-2.324.02-3.319.06h-.029a.791.791 0 0 1-.737-.651.622.622 0 0 1 .371-.746A33.958 33.958 0 0 1 95.7 59l1.145-.131a45.086 45.086 0 0 0 5.368-.885l.436-.106a9.858 9.858 0 0 0 3.262-1.25 7.264 7.264 0 0 0-1.818-.41c-.634-.071-1.279-.092-1.9-.113-.3-.01-.591-.02-.872-.034l-.111-.006c-2.024-.119-4.079-.181-6.108-.183h-.237c-3.535 0-7.318.1-12.266.325a.086.086 0 0 1-.085-.08.082.082 0 0 1 .065-.094 64.913 64.913 0 0 1 6.467-1.005c2.114-.222 4.315-.351 6.543-.385.536-.008 1.08-.012 1.615-.012 1.5 0 3.01.032 4.5.1l.748.033.265.011h.03a19.129 19.129 0 0 1 2.52.211 5.7 5.7 0 0 1 2.305.872.758.758 0 0 1 .357.555c1.766-3.369 3.435-6.852 5.049-10.221l.072-.15.439-.915c.473-.986.948-1.992 1.407-2.965.906-1.918 1.842-3.9 2.809-5.833l.472-.941c.707-1.406 1.317-2.577 2-3.722-2.434-.311-5.081-.562-8.092-.765-1.925-.13-7.217-.384-10.052-.384a11.806 11.806 0 0 0-1.634.068 2.171 2.171 0 0 0-1.311.863 8.23 8.23 0 0 0-.84 1.43c-.1.2-.19.38-.284.551-1.285 2.349-2.491 4.782-3.656 7.134l-.105.212c-.289.582-.575 1.175-.853 1.749l-.008.016-.252.521a1.154 1.154 0 0 1-.086.177 51.3 51.3 0 0 1-2.449 4.59c.86-.154 1.706-.281 2.515-.377a4.983 4.983 0 0 1 .6-2.028c.062-.137.12-.267.169-.384l.022-.054c.054-.132.108-.275.165-.427a3.683 3.683 0 0 1 1.382-2.1.462.462 0 0 1 .205-.049.41.41 0 0 1 .279.108.419.419 0 0 1 .132.28 3.808 3.808 0 0 1-.913 2.095c-.145.212-.281.413-.391.6-.28.476-.548.946-.8 1.4-.033.06-.064.12-.094.177-.06.115-.117.224-.183.326.507-.052.922-.089 1.3-.114l.284-.019c.389-.025.9-.053 1.415-.053a9.688 9.688 0 0 1 1.737.139 5.681 5.681 0 0 1 1.639.545 3.014 3.014 0 0 1 1.438 1.545 2.388 2.388 0 0 1 .165 1 2.452 2.452 0 0 1-.3 1.041 3.457 3.457 0 0 1-2.056 1.629 11.277 11.277 0 0 1-2.707.449c-2.162.167-4.356.467-6.478.758l-.237.032a31.245 31.245 0 0 0-3.773.838c-.966.257-1.965.523-2.966.707a.229.229 0 0 1-.041 0 .2.2 0 0 1-.194-.142.168.168 0 0 1 .087-.2 23.934 23.934 0 0 1 5.386-2.032l.578-.168.162-.047c.226-.066.454-.136.674-.2a19.817 19.817 0 0 1 2.594-.661c1.085-.175 2.191-.318 3.285-.426l.107-.009c.134-.011.293-.02.462-.03a14.2 14.2 0 0 0 1.858-.2 2.8 2.8 0 0 0 1.56-.7 1.1 1.1 0 0 0 .286-.855c-.038-.493-.424-.861-1.149-1.092a6.561 6.561 0 0 0-1.744-.252zm5.8 12.222a5.96 5.96 0 0 1 2.061.271 1.916 1.916 0 0 1 .5.278c.816-1.388 1.62-2.828 2.458-4.4a5.958 5.958 0 0 1-1.936 1.246 18.569 18.569 0 0 1-2.221.744 37.86 37.86 0 0 1-5.252 1.019c-.471.064-.941.126-1.4.186-1.214.16-2.469.325-3.693.519l1.242.014c.843.009 1.716.018 2.573.032 1.682.029 3.078.06 4.392.1h.818c.152-.012.303-.012.456-.012zm-1.893 51.843a1.512 1.512 0 0 1-.986-.356 1.326 1.326 0 0 1-.466-.992 4.731 4.731 0 0 1 .552-2.238 5.044 5.044 0 0 1 1.5-1.8.6.6 0 0 1 .354-.117.9.9 0 0 1 .754.548 4.439 4.439 0 0 1 .24 2.208 4.9 4.9 0 0 1-.722 2.1 1.467 1.467 0 0 1-1.228.647zm7.387-.162a.525.525 0 0 1-.5-.373 17.836 17.836 0 0 1-.764-3.971c-.031-.272-.064-.554-.1-.829-.167-1.338-.277-2.706-.384-4.029l-.04-.5-.037-.453c-.278-3.344-.5-6.7-.658-9.968-.158-3.255-.258-6.613-.3-9.981-.017-1.459.007-2.986.07-4.54l.02-.453c.016-.358.027-.725.036-1.081a18.018 18.018 0 0 1 .348-3.646.166.166 0 0 1 .171-.122.17.17 0 0 1 .172.122 18.673 18.673 0 0 1 .4 3.466c.019.36.038.731.063 1.092l.012.167c.137 1.787.238 3.421.31 4.994.144 3.149.317 6.362.528 9.825.1 1.612.206 3.25.319 4.869a10.088 10.088 0 0 1 1.1-.5 4.294 4.294 0 0 1 1.59-.24h.144a1.255 1.255 0 0 1 .919.406 1.14 1.14 0 0 1 .288.925 1.092 1.092 0 0 1-.434.748 1.388 1.388 0 0 1-.83.249 1.834 1.834 0 0 1-.27-.02c-.3-.045-.606-.1-.9-.153-.5-.09-1.014-.183-1.523-.231.1 1.389.193 2.62.283 3.762.058.731.124 1.472.189 2.188.082.914.167 1.859.234 2.789.01.144.022.3.037.476a7.215 7.215 0 0 1 1.444-.481l.137-.036.152-.041.2-.057a5.061 5.061 0 0 1 1.332-.251 1.691 1.691 0 0 1 1 .3 1.021 1.021 0 0 1 .462.7.937.937 0 0 1-.266.748 2.06 2.06 0 0 1-1.642.589c-.2 0-.416-.011-.62-.022l-.291-.014-.491-.017a6.07 6.07 0 0 1-1.318-.158 16.073 16.073 0 0 1-.019 3.233.578.578 0 0 1-.575.519zm-71.56-1.59a2.122 2.122 0 0 1-.845-.183 4.491 4.491 0 0 1-1.669-1.347l-.131-.16-.014-.017a2.367 2.367 0 0 1-.5-.783 2.327 2.327 0 0 1-.018-.849V107.802a.573.573 0 0 1 .127-.3.381.381 0 0 1 .292-.148h.045c.112.014.227.018.338.023a3.407 3.407 0 0 1 .4.031 2.054 2.054 0 0 1 .569.208c.1.047.2.1.3.135a8.354 8.354 0 0 0 .915.271c.193.049.392.1.584.159a1.679 1.679 0 0 1 1.032.858 1.447 1.447 0 0 1 .015 1.229 1.5 1.5 0 0 1-.6.7 1.635 1.635 0 0 1-.842.226zm47.113-3.676a4.854 4.854 0 0 1-2.4-.933c-.17-.1-.33-.2-.492-.292l-.054-.031c-.13-.073-.263-.146-.392-.216a12.106 12.106 0 0 1-1.256-.753 3.947 3.947 0 0 1-1.02-1.027.532.532 0 0 1-.013-.507.447.447 0 0 1 .339-.262 4.048 4.048 0 0 1 .539-.036 7.526 7.526 0 0 1 2.421.531h.013l.234.078.087.029c.2.067.417.128.646.194 1 .286 2.127.61 2.581 1.476a1.226 1.226 0 0 1 .029 1.093 1.087 1.087 0 0 1-.745.59 2.222 2.222 0 0 1-.52.065zm-20.6-6.024a1.893 1.893 0 0 1-1.606-.972 1.674 1.674 0 0 1-.225-.813 1.453 1.453 0 0 1 .26-.837 3.617 3.617 0 0 1 1.343-1.133 12.718 12.718 0 0 1 1.7-.7l.4-.144a23.013 23.013 0 0 0 2.958-1.407h.006l.382-.2a.6.6 0 0 1 .282-.073.6.6 0 0 1 .544.363.5.5 0 0 1-.124.581l-.7.668a19.057 19.057 0 0 0-1.833 1.962l-.134.174-.136.177-.007.009a12.008 12.008 0 0 1-1.15 1.36 3.616 3.616 0 0 1-1.481.921 1.681 1.681 0 0 1-.489.063zm-45.418-4.788a1.9 1.9 0 0 1-1.27-.485 1.519 1.519 0 0 1-.471-.947 1.914 1.914 0 0 1 .2-1.037 4.966 4.966 0 0 1 1.449-1.511c.221-.176.43-.342.62-.514l.062-.056c.267-.248.546-.473.814-.69a8.325 8.325 0 0 0 1.36-1.278.616.616 0 0 1 .489-.219.577.577 0 0 1 .466.205.417.417 0 0 1 .034.412c-.186.482-.341 1-.506 1.544a16.244 16.244 0 0 1-.872 2.421 4.77 4.77 0 0 1-1.567 1.926 1.419 1.419 0 0 1-.808.229zm79.623-.139a1.393 1.393 0 0 1-.8-.248 1.47 1.47 0 0 1-.506-.612 1.374 1.374 0 0 1-.108-.77 1.342 1.342 0 0 1 .389-.745 7.776 7.776 0 0 1 2.613-1.464h.008c.156-.063.318-.129.472-.194l.245-.1a5.67 5.67 0 0 1 1.86-.434.972.972 0 0 1 .786.268.327.327 0 0 1 .055.069.613.613 0 0 1 0 .647 7.524 7.524 0 0 1-1.881 1.919l-.087.062c-.16.112-.32.23-.475.344a6.562 6.562 0 0 1-2.179 1.208 1.563 1.563 0 0 1-.392.05zm-50.27-11.584a1.609 1.609 0 0 1-.7-.172A8.3 8.3 0 0 1 44 83.343a8.944 8.944 0 0 1-1.57-2.033.456.456 0 0 1 .011-.48.51.51 0 0 1 .427-.247.488.488 0 0 1 .249.07 17.65 17.65 0 0 0 4.121 1.678 1.55 1.55 0 0 1 .75.491 1.159 1.159 0 0 1 .291.818l-.007.09a1.037 1.037 0 0 1-.187.595 1.867 1.867 0 0 1-.565.485 1.4 1.4 0 0 1-.675.173zm36.584-.568a2.76 2.76 0 0 1-1.482-.549 9 9 0 0 1-1.227-1.028l-.034-.033a6.872 6.872 0 0 1-1.038-1.26 4.168 4.168 0 0 1-.587-1.478.236.236 0 0 1 .051-.2.233.233 0 0 1 .178-.076.314.314 0 0 1 .056.005 6.736 6.736 0 0 1 1.53.483 11.646 11.646 0 0 1 1.417.761c.256.158.511.327.757.491.224.149.456.3.688.447a2.041 2.041 0 0 1 .65.571 1.8 1.8 0 0 1 .265.807.8.8 0 0 1-.222.623 1.308 1.308 0 0 1-.572.375 1.457 1.457 0 0 1-.43.061zm31.7-1.119a2.471 2.471 0 0 1-1.284-.433 5.336 5.336 0 0 1-1.031-.863l-.05-.054-.249-.27a6.745 6.745 0 0 1-.966-1.206 9.129 9.129 0 0 1-.549-1.261c-.041-.111-.084-.225-.127-.335a.592.592 0 0 1 .078-.579.887.887 0 0 1 .7-.346.72.72 0 0 1 .358.091c.184.1.376.2.561.3a9.163 9.163 0 0 1 .99.561c.288.2.565.422.832.639.144.117.293.238.443.354l.211.16a4.842 4.842 0 0 1 .906.923 2.116 2.116 0 0 1 .484 1.189A1.023 1.023 0 0 1 116 83a1.4 1.4 0 0 1-.873.3zm-17.06-7.536h-.029a1.336 1.336 0 0 1-1.02-.4 1.352 1.352 0 0 1-.371-1.343 6.863 6.863 0 0 1 .993-1.785 4.937 4.937 0 0 1 1.558-1.346.616.616 0 0 1 .288-.069.551.551 0 0 1 .563.4c.015.072.033.148.051.22a2.755 2.755 0 0 1 .1.623 3.084 3.084 0 0 1-.12.718c-.025.1-.049.2-.068.291a5.975 5.975 0 0 1-.732 2.006 1.459 1.459 0 0 1-1.215.686zM37.5 71.353a6.3 6.3 0 0 1-3.051-.846.624.624 0 0 1-.236-.86 4.033 4.033 0 0 1 .664-.823 5.142 5.142 0 0 1 .9-.694 4.213 4.213 0 0 1 2.127-.658c.069 0 .138 0 .206.007a2.122 2.122 0 0 1 1.339.564 1.91 1.91 0 0 1 .572 1.131 1.8 1.8 0 0 1-.255 1.187 2.023 2.023 0 0 1-1.131.83 3.771 3.771 0 0 1-1.135.162zm-19.942-1.675a1.519 1.519 0 0 1-.378-.048 11.542 11.542 0 0 1-3.171-1.615l-.015-.01-.2-.129-.189-.12-.075-.047a6.808 6.808 0 0 1-1.21-.889 8.032 8.032 0 0 1-.822-1.039l-.169-.238a.237.237 0 0 1-.018-.265.359.359 0 0 1 .3-.176.308.308 0 0 1 .063.007c.207.043.424.078.633.112a8.376 8.376 0 0 1 1.012.2 9.449 9.449 0 0 1 .9.33c.228.093.464.188.7.267.462.155.945.28 1.412.4a14.728 14.728 0 0 1 1.988.616 1.224 1.224 0 0 1 .545.514 1.241 1.241 0 0 1 .189.71l-.01.1a1.324 1.324 0 0 1-.192.612 1.547 1.547 0 0 1-1.293.708zm37.912-4.719a1.742 1.742 0 0 1-1.05-.459 4.5 4.5 0 0 1-.771-.817 7.759 7.759 0 0 1-1.182-2.505.434.434 0 0 1 .075-.4.546.546 0 0 1 .421-.2.509.509 0 0 1 .344.131c.3.268.612.532.913.788.419.355.852.722 1.261 1.1l.047.045a3.375 3.375 0 0 1 .726.97.878.878 0 0 1-.144 1.076.906.906 0 0 1-.641.271zm-16.383-13.6a1.6 1.6 0 0 1-1.05-.415 1.826 1.826 0 0 1-.571-.944 1.318 1.318 0 0 1 .069-.852 1.333 1.333 0 0 1 .7-.657 30.541 30.541 0 0 1 3.465-1.347c.2-.061.4-.126.591-.188a7.592 7.592 0 0 1 2.363-.5c.129 0 .259.006.386.019a.486.486 0 0 1 .382.238.367.367 0 0 1-.016.374 6.125 6.125 0 0 1-1.981 1.838l-.379.262-.079.056a29.154 29.154 0 0 1-3.1 1.9 1.638 1.638 0 0 1-.781.211zm27.853-3.938a1.276 1.276 0 0 1-.428-.079c-1.552-.554-3.221-1.143-4.9-1.7a.515.515 0 0 1-.342-.584.42.42 0 0 1 .436-.361h.039c1.758.111 3.495.184 5.11.246a1.273 1.273 0 0 1 .938.395 1.184 1.184 0 0 1 .277.813 1.215 1.215 0 0 1-1.131 1.266zM21.8 43.515h-.058a7.36 7.36 0 0 1-3.417-1.17 5.469 5.469 0 0 1-1.183-.9 10.5 10.5 0 0 1-.955-1.124.313.313 0 0 1-.039-.335.519.519 0 0 1 .406-.277c.22-.021.444-.054.661-.086.278-.04.566-.082.848-.1.057 0 .117-.006.178-.006a6.089 6.089 0 0 1 .758.064c.129.016.262.033.392.045l.47.044a9.559 9.559 0 0 1 2.8.584 1.413 1.413 0 0 1 .783.73 1.622 1.622 0 0 1 .085 1 2.06 2.06 0 0 1-.594 1.06 1.641 1.641 0 0 1-1.135.471zm78.742-4.182a1.132 1.132 0 0 1-.529-.131 1.322 1.322 0 0 1-.453-.4 1.965 1.965 0 0 1-.35-.783 2.229 2.229 0 0 1 0-.807 4.793 4.793 0 0 1 .627-1.561l.166-.285a7.434 7.434 0 0 1 1.077-1.483l.007-.044a1.343 1.343 0 0 1 .456-.881 1.269 1.269 0 0 1 .81-.282 1.289 1.289 0 0 1 .967.416 1.233 1.233 0 0 1 .269 1.071 10.249 10.249 0 0 1-.729 2.436 10.727 10.727 0 0 1-1.31 2.2 1.279 1.279 0 0 1-1.011.534zM33.918 29.259a1.634 1.634 0 0 1-.9-.256 1.143 1.143 0 0 1-.507-.761l-.025-.133-.02-.109a3.145 3.145 0 0 1-.057-1.462 4.57 4.57 0 0 1 .472-.979l.088-.153.043-.076a6.377 6.377 0 0 1 .757-1.054 9.223 9.223 0 0 1 .933-.923.912.912 0 0 1 .589-.21.853.853 0 0 1 .473.137.671.671 0 0 1 .282.413 7.15 7.15 0 0 1 .184 2.62c-.015.1-.029.21-.042.314a3.916 3.916 0 0 1-.241 1.087 3.634 3.634 0 0 1-.909 1.111l-.051.048a1.568 1.568 0 0 1-1.069.386zm63.076-1.653a2.106 2.106 0 0 1-1.3-.631l-.064-.052a5.224 5.224 0 0 0-1.394-.785.567.567 0 0 1-.366-.637.478.478 0 0 1 .509-.38h.154a7.171 7.171 0 0 1 2.122.333c.819.292 1.236.752 1.241 1.367a.792.792 0 0 1-.6.748 1.424 1.424 0 0 1-.302.037z" transform="translate(7.912 -3.154)"/>
    </g>
    <g id="HEAD" transform="translate(30.77)">
        <path id="_Skin-2" d="M38.471 69.728a36.008 36.008 0 0 1-20.752-6.521 1.746 1.746 0 0 1-.674-.859 1.4 1.4 0 0 1 .011-.912 13.07 13.07 0 0 1-1.609-1.578 13.464 13.464 0 0 1-1.33-1.844 12.879 12.879 0 0 1-.991-2.038 11.6 11.6 0 0 1-.594-2.161.671.671 0 0 0-.405-.413 2.915 2.915 0 0 0-.636-.163c-.1-.017-.188-.034-.277-.054a15.66 15.66 0 0 1-4.614-1.35 5.663 5.663 0 0 1-1.768-1.4 4.422 4.422 0 0 1-.6-.971 4.8 4.8 0 0 1-.353-1.185 8.53 8.53 0 0 1 .006-2.007 8.207 8.207 0 0 1 .407-1.72 16.843 16.843 0 0 1 1.472-2.943c.35-.6.712-1.215 1.014-1.851a8.632 8.632 0 0 0 .7-2.032A7.419 7.419 0 0 0 7.55 35.3a11.452 11.452 0 0 0-.857-3 46.072 46.072 0 0 0-2.73-6.654c-.741-1.588-1.508-3.23-2.168-4.872A27.388 27.388 0 0 1 .273 15.9 13.982 13.982 0 0 1 0 13.563a9.48 9.48 0 0 1 .2-2.208 7.49 7.49 0 0 1 .749-2.042A7.706 7.706 0 0 1 2.365 7.48a6.771 6.771 0 0 1 1.98-1.309 5.837 5.837 0 0 1 2.307-.489 5.179 5.179 0 0 1 1.022.1 63.963 63.963 0 0 1 13.045-4.317A65.057 65.057 0 0 1 34.422 0a62.688 62.688 0 0 1 14.046 1.58l.187.043a27.486 27.486 0 0 1 2.866.767 8.524 8.524 0 0 1 2.585 1.362 2.847 2.847 0 0 1 .925 1.166A2.006 2.006 0 0 1 55.1 6.1a7.753 7.753 0 0 1-1.316 2.463 12.169 12.169 0 0 0-1.275 2.159 3.923 3.923 0 0 0-.295 1.142 2.91 2.91 0 0 0 .134 1.191c.286.384.8 1.163 1.361 2.083.469.764 1.2 1.984 2.009 3.459A37.287 37.287 0 0 1 59.016 26a12.522 12.522 0 0 0 1.012 3.264c.019 0 .03-.026.036-.045s0-.016.006-.023.006-.022.008-.022a2.118 2.118 0 0 1 .049.35c.049.413.151 1.274.381 3.017.28 2.118.624 4.917.8 7.79a52.217 52.217 0 0 1-.051 7.841A35.561 35.561 0 0 1 60.711 52a28.857 28.857 0 0 1-1 3.706 24.9 24.9 0 0 1-1.531 3.54 23.35 23.35 0 0 1-2.144 3.328 18.239 18.239 0 0 1-1.614 1.613 20.863 20.863 0 0 1-3.1 2.265 22.332 22.332 0 0 1-4.675 2.1 25.06 25.06 0 0 1-6.328 1.128c-.613.032-1.234.048-1.848.048zM1.659 13.495a11.762 11.762 0 0 0 .284 2.019 10.234 10.234 0 0 1 .553-1.46 1.469 1.469 0 0 1-.837-.559zM6.75 6.207a5.3 5.3 0 0 0-1.7.619 6.44 6.44 0 0 0-1.436 1.121 23.187 23.187 0 0 1 3.136-1.74z" class="cls-1" transform="translate(7.565 8.199)"/>
        <path id="_Ink-2" d="M46.921 80a22.14 22.14 0 0 1-6.738-1.051 21.278 21.278 0 0 1-3.146-1.292 20.052 20.052 0 0 1-2.881-1.784 1.082 1.082 0 0 1-.382-1.3 1.711 1.711 0 0 1 .56-.76 1.458 1.458 0 0 1 .881-.324 1.215 1.215 0 0 1 .688.216 21.072 21.072 0 0 0 5.468 2.628 19.959 19.959 0 0 0 5.964.924 18.266 18.266 0 0 0 6.765-1.281 17.56 17.56 0 0 0 3.414-1.818 18.567 18.567 0 0 0 5.286-5.517 17.156 17.156 0 0 0 1.631-3.4 39.784 39.784 0 0 0 1.622-8.484l.1-.862.025-.209c.2-1.678.357-3.337.459-4.929.108-1.681.162-3.344.161-4.945s-.064-3.039-.19-4.416a35.1 35.1 0 0 0-.624-4.16 31.6 31.6 0 0 0-1.15-4.053 35.173 35.173 0 0 0-1.768-4.1 29.4 29.4 0 0 0-5.087-7.162 2.455 2.455 0 0 1-.475.043 6.649 6.649 0 0 1-.94-.091c-.163-.024-.332-.048-.5-.065-.36-.037-.674-.067-.962-.093.313.194.629.4.965.63l.414.286.2.134.01.007a9.1 9.1 0 0 1 1.79 1.452 2.306 2.306 0 0 1 .611 2.032 1.216 1.216 0 0 1-.38.634 1.492 1.492 0 0 1-.663.364 2.352 2.352 0 0 1-.522.06 2.733 2.733 0 0 1-1.5-.5 9.863 9.863 0 0 1-1.287-1.067c-.243-.225-.471-.438-.7-.628-1.006-.823-2.044-1.549-3.107-2.282-.28-.192-.512-.349-.73-.5.221.247.447.51.673.783l.323.393.169.2a9.282 9.282 0 0 1 1.341 1.9 2.168 2.168 0 0 1 .005 2.116 1.385 1.385 0 0 1-.532.511 1.5 1.5 0 0 1-.727.194h-.024a2.337 2.337 0 0 1-1.672-.776 8.267 8.267 0 0 1-1.112-1.585c-.166-.281-.324-.546-.488-.787-.744-1.086-1.565-2.115-2.27-2.979-.251-.306-.462-.56-.663-.8a71.82 71.82 0 0 0-10.957 1.4c-2.186.452-4.515 1.057-7.33 1.9l-.2.061a9.223 9.223 0 0 0-3.6 1.807 4.463 4.463 0 0 0 .1 1.865l.1.467a26.53 26.53 0 0 1 .477 2.917 14.457 14.457 0 0 1 .008 2.956 21.055 21.055 0 0 1-1.661 5.847 2.489 2.489 0 0 1-.471.751 1.547 1.547 0 0 0-.426.962 9.776 9.776 0 0 0 .031 2.25l.058.632a12 12 0 0 1 .023 2.524 4.352 4.352 0 0 1-.936 2.306.358.358 0 0 1-.282.122.474.474 0 0 1-.4-.205 2.694 2.694 0 0 0-.16-.241 3.133 3.133 0 0 0-1.016-.9 4.141 4.141 0 0 0-1.324-.457.077.077 0 0 1-.072-.079.118.118 0 0 1 .1-.11 3.466 3.466 0 0 1 2.227.5c-.125-.414-.6-.624-1.418-.624a9.305 9.305 0 0 0-2.068.3l-.029.01a8.223 8.223 0 0 0-2.725 1.242 6.318 6.318 0 0 0-1.1.99 5.964 5.964 0 0 0-.81 1.186 5.709 5.709 0 0 0-.639 2.771 5.434 5.434 0 0 0 .783 2.691 5.236 5.236 0 0 0 .891 1.1 5.321 5.321 0 0 0 1.194.842 6.007 6.007 0 0 0 2.75.65h.062a6.914 6.914 0 0 0 1.363-.192 6.685 6.685 0 0 1 1.377-.19c.067 0 .134 0 .2.006a.9.9 0 0 1 .73.453.686.686 0 0 1-.031.716 2.73 2.73 0 0 1-.865.844 27.453 27.453 0 0 0 3.125 5.223 17.516 17.516 0 0 0 2.3 2.49c.165.148.378.3.6.464a6.728 6.728 0 0 1 .982.807 1.309 1.309 0 0 1 .428 1 .776.776 0 0 1-.559.706 1.086 1.086 0 0 1-.4.074c-.861 0-1.806-.94-2.431-1.561l-.209-.207-.057-.055a19.033 19.033 0 0 1-2.377-2.75 13.37 13.37 0 0 1-1.506-2.772 13.8 13.8 0 0 1-.816-3.013 5.806 5.806 0 0 1-1.6.205 9.27 9.27 0 0 1-1.987-.228 9.566 9.566 0 0 1-1.716-.544 7.17 7.17 0 0 1-2.626-1.947 7.5 7.5 0 0 1-.895-1.317 7.824 7.824 0 0 1-.841-4.784 7.384 7.384 0 0 1 .43-1.63 7.142 7.142 0 0 1 .817-1.516 7.423 7.423 0 0 1 1.875-1.835 1.773 1.773 0 0 1-.442-.326A11.151 11.151 0 0 1 9.659 45.7l-.16-.28-.062-.108c-.459-.795-.9-1.61-1.3-2.421l-.151-.308c-.345-.712-.671-1.265-.985-1.8a13.44 13.44 0 0 1-1.362-2.851 38.267 38.267 0 0 1-1.427-5.792l-.084-.52A13.118 13.118 0 0 1 3.9 28.1a5.077 5.077 0 0 1-1.578.293 2.7 2.7 0 0 1-1.185-.26 1.413 1.413 0 0 1-.663-.733 1.4 1.4 0 0 1-.061-.975 2.38 2.38 0 0 1 .717-1.056 2.6 2.6 0 0 1-.523-.337l-.136-.113A1.358 1.358 0 0 1 .009 24a1.678 1.678 0 0 1 .2-1l.1-.167a1.9 1.9 0 0 1 1.6-.9h.342a2.892 2.892 0 0 1-.885-.331 1.713 1.713 0 0 1-.707-.8A1.8 1.8 0 0 1 .543 19.8a1.659 1.659 0 0 1 .392-.836 1.649 1.649 0 0 1 .869-.5 3.553 3.553 0 0 1 .8-.085 5.812 5.812 0 0 1 1.28.158l-.014-.008-.07-.044a2.086 2.086 0 0 1-.692-.667 1.474 1.474 0 0 1-.249-.906 2.141 2.141 0 0 1 .25-.912 1.767 1.767 0 0 1 .692-.662 2.024 2.024 0 0 1 .983-.25 1.763 1.763 0 0 1 .935.25 16.134 16.134 0 0 1 1.418 1 4.528 4.528 0 0 1-1.018-1.753 1.816 1.816 0 0 1 .864-2.034 1.8 1.8 0 0 1 .887-.236 2.056 2.056 0 0 1 .86.2 1.728 1.728 0 0 1 .357-1.194 2.389 2.389 0 0 1 .74-.639 1.941 1.941 0 0 1 .927-.249 1.684 1.684 0 0 1 .88.248 2.609 2.609 0 0 1 .437.35 2.263 2.263 0 0 1-.117-.7 1.785 1.785 0 0 1 .118-.657 1.728 1.728 0 0 1 1.007-.97 1.908 1.908 0 0 1 .711-.131 2.145 2.145 0 0 1 1.329.446 1.673 1.673 0 0 1 .409-1.433 2.182 2.182 0 0 1 .721-.54 2.087 2.087 0 0 1 .875-.2 1.7 1.7 0 0 1 1.513.9c.281.484.512.918.706 1.325l.08.171h.008l-.055-.125L19.318 9l-.179-.388a6.258 6.258 0 0 1-.609-1.7 2.428 2.428 0 0 1 .026-.875 1.815 1.815 0 0 1 .345-.742 1.892 1.892 0 0 1 1.42-.651 2.092 2.092 0 0 1 1.528.686 1.89 1.89 0 0 1 .073-.847 1.888 1.888 0 0 1 1.767-1.3 1.907 1.907 0 0 1 1.275.512A5.782 5.782 0 0 1 26.136 5.4c.086.164.174.334.264.5l.328.584c.128.227.26.461.39.695.06-.068.126-.138.2-.206a27.475 27.475 0 0 1-.86-3.1 1.984 1.984 0 0 1 .2-1.411 1.809 1.809 0 0 1 .468-.543 1.91 1.91 0 0 1 .691-.337 1.878 1.878 0 0 1 .48-.061 2.165 2.165 0 0 1 1.205.371 1.64 1.64 0 0 1 .7.991c.142.648.314 1.323.528 2.062a3.619 3.619 0 0 1 .4-.069c.011-.132.024-.262.037-.385l.052-.456.011-.1a7.089 7.089 0 0 1 .788-3.023A1.837 1.837 0 0 1 33.6.06a2.027 2.027 0 0 1 1.3.467 1.7 1.7 0 0 1 .43.552 1.731 1.731 0 0 1 .17.737 6.55 6.55 0 0 1-.281 1.7 10.63 10.63 0 0 0-.234 1.058c-.055.368-.092.763-.113 1.206a34.706 34.706 0 0 1 1.049-3.966c.033-.106.069-.213.1-.317v-.011l.046-.14a1.959 1.959 0 0 1 .716-.982A1.977 1.977 0 0 1 37.947 0a2.221 2.221 0 0 1 .253.015 2.089 2.089 0 0 1 1.2.61 1.5 1.5 0 0 1 .478 1.216c-.019.166-.045.332-.077.494h.008l-.021.06a3 3 0 0 1-.284.792c-.183.512-.357 1.022-.488 1.41h.142a3.2 3.2 0 0 1 .561.049l.324-.793v-.012l.413-1.012c.064-.156.122-.32.183-.493a3.733 3.733 0 0 1 .79-1.489A2.262 2.262 0 0 1 43 .258a2.226 2.226 0 0 1 1.088.271 1.955 1.955 0 0 1 .884.966 2.218 2.218 0 0 1 .1 1.294 1.469 1.469 0 0 1-.826 1l-.046.021-.311.706a2.632 2.632 0 0 1 .3-.106 2.566 2.566 0 0 1 .493-.09c.4-.687.852-1.4 1.437-2.255a2.159 2.159 0 0 1 .752-.676 2.036 2.036 0 0 1 .962-.246 1.928 1.928 0 0 1 .954.252 2.012 2.012 0 0 1 .934 1.287 1.535 1.535 0 0 1-.235 1.271c-.4.54-.812 1.129-1.335 1.91a1.987 1.987 0 0 1 .219.049l.1-.128a9.728 9.728 0 0 1 1.348-1.253l.238-.2a3.681 3.681 0 0 0 .54-.6 2.627 2.627 0 0 1 .925-.857 2.137 2.137 0 0 1 .916-.211 1.871 1.871 0 0 1 .863.206 1.711 1.711 0 0 1 .667.62A1.9 1.9 0 0 1 54 5.617a7.574 7.574 0 0 1-1.587 1.689l-.4.349a29.927 29.927 0 0 1 3.237-1.684c.759-.335 1.346-.573 1.9-.773a2.933 2.933 0 0 1 .989-.19 2.109 2.109 0 0 1 .777.146 2.8 2.8 0 0 1 .747.446 1.209 1.209 0 0 1 .374.61 1.152 1.152 0 0 1-.01.707 2.522 2.522 0 0 1-.628.962 2.412 2.412 0 0 1-1.043.539c-.284.075-.576.14-.858.2-.324.072-.658.146-.983.236a20.816 20.816 0 0 0-2.97 1.05 1.535 1.535 0 0 1 .2.136c.7-.217 1.433-.412 2.181-.579a29.3 29.3 0 0 1 3.7-.574l.413-.037.237-.022h.005c.462-.044.94-.089 1.41-.089a4.1 4.1 0 0 1 1.429.214 2.232 2.232 0 0 1 1.119.876 1.555 1.555 0 0 1 .238.823 1.339 1.339 0 0 1-.238.819 2.376 2.376 0 0 1-1.008.838 3.56 3.56 0 0 1-1.321.206c1.018.1 2.065.235 3.11.389.7.1 1.42.221 2.133.353l.354.067c.147.028.3.055.448.081a5.654 5.654 0 0 1 2.12.66 1.938 1.938 0 0 1 .768.876 1.565 1.565 0 0 1 .072.985 1.813 1.813 0 0 1-.6.945 2.219 2.219 0 0 1-1.174.5 2.779 2.779 0 0 1-.33.019 7.121 7.121 0 0 1-1.639-.269c-.247-.06-.481-.117-.711-.162-.811-.156-1.647-.3-2.487-.423-.4-.06-.826-.117-1.294-.173a18.706 18.706 0 0 1 2.6.536l.236.068a12.721 12.721 0 0 1 2.612 1.013 4.746 4.746 0 0 1 1.095.815 2.728 2.728 0 0 1 .669 1.1 1.4 1.4 0 0 1-.216 1.266 1.815 1.815 0 0 1-1.353.71h-.134a4.319 4.319 0 0 1-1.993-.671c-.144-.076-.293-.155-.44-.228a11.087 11.087 0 0 0-1.832-.7c-.642-.189-1.318-.352-2.01-.486A15.935 15.935 0 0 1 63.58 20.8l.246.174a13.027 13.027 0 0 1 2.267 1.914 3.937 3.937 0 0 1 .753 1.218 2.261 2.261 0 0 1 .071 1.363 1.539 1.539 0 0 1-.531.773 1.458 1.458 0 0 1-.9.345h-.1a3.066 3.066 0 0 1-1.537-.614 10.161 10.161 0 0 1-1.266-1.157 10.1 10.1 0 0 0-1.225-1.124c-.325-.236-.7-.483-1.115-.735a27.957 27.957 0 0 1 2.692 3.658 32.859 32.859 0 0 1 2.1 3.991 38.75 38.75 0 0 1 2.735 8.831 44.056 44.056 0 0 1 .577 4.48c.116 1.464.175 3 .18 4.69v.2a103.121 103.121 0 0 1-.442 10.721 35.127 35.127 0 0 1-.785 4.842 20.275 20.275 0 0 1-1.7 4.616 18.839 18.839 0 0 1-2.376 3.5 21.136 21.136 0 0 1-3.124 2.966 22.1 22.1 0 0 1-3.676 2.311A21.043 21.043 0 0 1 46.921 80zM17.362 23.673a.462.462 0 0 0-.329.144 6.228 6.228 0 0 0-1.072 1.594.446.446 0 0 0 .017.464.565.565 0 0 0 .456.253.416.416 0 0 0 .379-.24l.13-.248a4.914 4.914 0 0 1 .722-1.087l.066-.068a.427.427 0 0 0 .1-.5.535.535 0 0 0-.471-.317zm-5.985-.939a.594.594 0 0 0-.094.008c-.4.065-.814.136-1.21.2s-.8.139-1.205.2a.386.386 0 0 0-.355.433.533.533 0 0 0 .523.487.592.592 0 0 0 .094-.008c.4-.065.812-.136 1.207-.2s.805-.139 1.209-.2a.386.386 0 0 0 .355-.433.533.533 0 0 0-.524-.487zM48.613 17.4a.452.452 0 0 0-.434.4.5.5 0 0 0 .05.319.479.479 0 0 0 .284.224 20.258 20.258 0 0 1 2.44.906.534.534 0 0 0 .228.053.541.541 0 0 0 .51-.407.39.39 0 0 0-.24-.462 22.453 22.453 0 0 0-2.675-1 .532.532 0 0 0-.163-.033zm-37.39-1.235a.423.423 0 0 0-.4.365.5.5 0 0 0 .319.583l2.131.817a.5.5 0 0 0 .18.036.423.423 0 0 0 .4-.364.5.5 0 0 0-.319-.583L11.4 16.2a.5.5 0 0 0-.176-.034zm44.662-2.311a.489.489 0 0 0-.449.359.451.451 0 0 0 .205.536c.124.077.26.145.392.211a3.2 3.2 0 0 1 .585.345l.06.051a.486.486 0 0 0 .329.132.549.549 0 0 0 .488-.328.4.4 0 0 0-.119-.474 3.8 3.8 0 0 0-.8-.509c-.12-.064-.244-.129-.363-.2l-.078-.047a.48.48 0 0 0-.254-.078zm-36.559 42.86a.834.834 0 0 1-.662-.4 6.964 6.964 0 0 0-4.02-3.212.044.044 0 0 1-.027-.044.029.029 0 0 1 .027-.027 5 5 0 0 1 .731-.054 5.1 5.1 0 0 1 1.375.191 5.787 5.787 0 0 1 1.269.53 7.2 7.2 0 0 1 2.086 1.807.8.8 0 0 1-.71 1.2h-.012a.471.471 0 0 1-.057.009z" transform="translate(0.987 0.158)"/>
    </g>
    <g id="FACE" transform="translate(56.976 29.329)">
        <path id="_Ink-3" d="M20.747 28.173a8.924 8.924 0 0 1-3-.666l-.206-.078a5.62 5.62 0 0 1-1.915-1.07 2.055 2.055 0 0 1-.437-.546.413.413 0 0 1-.024-.351c.192-.018.374-.042.54-.071h.023a1.3 1.3 0 0 1 .2-.025h.015a5.266 5.266 0 0 1 .629.051h.016l.088.011c.173.02.35.043.505.063.477.061.969.125 1.47.148.091 0 .185.006.288.006.272 0 .552-.015.824-.029h.068c.257-.013.522-.027.781-.027a3.985 3.985 0 0 1 1.011.108 2.148 2.148 0 0 1 .893.46.789.789 0 0 1 .281.61 1.212 1.212 0 0 1-.3.757 1.707 1.707 0 0 1-.756.509 2.983 2.983 0 0 1-.96.148zm-9.014-2.184a.712.712 0 0 1-.087-.005.478.478 0 0 1-.382-.237 3.213 3.213 0 0 1-.347-1.5A4.96 4.96 0 0 1 11.2 22.7a12.379 12.379 0 0 1 1.486-2.812l.114-.168a13.051 13.051 0 0 1 1.927-2.272 4.987 4.987 0 0 1 2.581-1.376l.214.327.312-.2a1.644 1.644 0 0 1 .888-.245 2.252 2.252 0 0 1 .883.19l.589.254a17.014 17.014 0 0 0 3.365 1.143c.086.017.173.034.259.049s.167.028.246.04c-.017-.074-.035-.149-.056-.231v-.006c-.019-.078-.039-.159-.061-.238l-.07-.25c-.1-.362-.212-.683-.33-.98a17.529 17.529 0 0 0-1.988-3.415l-.088-.127c-.1-.15-.216-.3-.334-.468l-.01-.014-.038-.053a12.208 12.208 0 0 1-.813-1.217 2.971 2.971 0 0 1-.419-1.268 3.946 3.946 0 0 1 1.966.891l.016.012a14.872 14.872 0 0 1 2.155 1.851 11.846 11.846 0 0 1 2.906 4.744 3.766 3.766 0 0 1 .12 1.505 3.01 3.01 0 0 1-.5 1.336 2.34 2.34 0 0 1-.858.754 2.723 2.723 0 0 1-1.257.285h-.154a13.971 13.971 0 0 1-6.3-1.927 1.8 1.8 0 0 1-.55-.534 1.568 1.568 0 0 1-.25-.685l-.094-.861-.507.717-.159.224v.005c-.143.2-.291.407-.428.616a27.293 27.293 0 0 0-1.46 2.479 14.013 14.013 0 0 0-.772 1.967l-.014.041a15.936 15.936 0 0 1-.625 1.657 4.715 4.715 0 0 1-.951 1.4.582.582 0 0 1-.409.149zM8.336 12.86a1.451 1.451 0 0 1-.918-.34 2.718 2.718 0 0 1-.663-.824 4.528 4.528 0 0 1-.547-1.928v-.035a5.1 5.1 0 0 1 .5-2.028 1.942 1.942 0 0 1 1.63-1.274c.439 0 .829.34 1.126.983A6.316 6.316 0 0 1 9.955 9.6v.066a5.952 5.952 0 0 1-.131 1.452 2.812 2.812 0 0 1-.653 1.384 1.153 1.153 0 0 1-.835.358zm18.021-.315a1.155 1.155 0 0 1-.847-.364 2.8 2.8 0 0 1-.656-1.43 5.838 5.838 0 0 1-.116-1.463l.008-.121a6.137 6.137 0 0 1 .5-2.114c.295-.614.677-.939 1.106-.939a1.942 1.942 0 0 1 1.63 1.274 5.1 5.1 0 0 1 .5 2.028v.036a4.528 4.528 0 0 1-.547 1.928 2.718 2.718 0 0 1-.663.824 1.451 1.451 0 0 1-.915.341zM0 6.32a15.125 15.125 0 0 1 5.71-4.264A25.769 25.769 0 0 1 9.466.655l.713-.205a6.894 6.894 0 0 1 1.835-.329 2.556 2.556 0 0 1 1.352.35 1.514 1.514 0 0 1 .718.991 1.37 1.37 0 0 1-.29 1.138 1.441 1.441 0 0 1-.866.53 1.476 1.476 0 0 1-.264.024 1.793 1.793 0 0 1-.809-.2c-.118-.008-.209-.012-.279-.012a1.347 1.347 0 0 0-.157.009l-.115.013c-.209.023-.419.055-.6.082-.579.088-1.163.2-1.735.319-1.022.221-2.111.513-3.236.87-1 .315-1.989.677-2.95 1.026l-.157.057c-.347.126-.7.269-1.034.407l-.013.005c-.513.211-1.044.428-1.579.59zm31.3-1.479a7.211 7.211 0 0 0-1.984-1.066 15.136 15.136 0 0 0-2.205-.62 8.917 8.917 0 0 0-1.839-.188h-.282a7.691 7.691 0 0 0-.957.106h-.022a6.432 6.432 0 0 1-.981.1 2.891 2.891 0 0 1-.5-.041 1.214 1.214 0 0 1-.69-.4 1.641 1.641 0 0 1-.4-.82 1.268 1.268 0 0 1 .114-.78 1.969 1.969 0 0 1 .635-.694A3.043 3.043 0 0 1 24 0a11.645 11.645 0 0 1 1.422.108 8.1 8.1 0 0 1 2.784.863 6.629 6.629 0 0 1 2.149 1.8 6.351 6.351 0 0 1 .936 2.05l.008.024z" transform="translate(8.231 9.614)"/>
    </g>
    <g id="FACIAL_HAIR" transform="translate(51.042 53.296)">
        <path id="_Ink-4" d="M12.353 25.745h-.107a14.4 14.4 0 0 1-8.016-2.58 14.519 14.519 0 0 1-2.477-2.125A6.653 6.653 0 0 1 .532 19.3 9.916 9.916 0 0 1 0 15.868a28.422 28.422 0 0 1 .235-3.928 18.383 18.383 0 0 1 1.392-5.164 11.779 11.779 0 0 1 3.178-4.334 11.256 11.256 0 0 1 1.4-1A10.822 10.822 0 0 1 7.76.675 9.042 9.042 0 0 1 11.116 0a7.406 7.406 0 0 1 2.5.427 7.691 7.691 0 0 1 1.577-.161 8.562 8.562 0 0 1 3.6.815A8.725 8.725 0 0 1 21.034 2.6a10.231 10.231 0 0 1 1.678 2.042 15.788 15.788 0 0 1 1.958 4.967 23.372 23.372 0 0 1 .453 2.777 14.062 14.062 0 0 1-.056 3.554 10.717 10.717 0 0 1-1.094 3.386c-.015.028-.035.073-.062.129a9.82 9.82 0 0 1-2.718 3.524 11.286 11.286 0 0 1-3.458 1.921 16.216 16.216 0 0 1-5.381.841zm1.611-21.423c-.338 0-.706.01-1.126.031-2.331.116-4.585.333-6.543 1.684a8.765 8.765 0 0 0-1.717 1.579 7.1 7.1 0 0 0 .3 1.6 10.386 10.386 0 0 0 1.07 2.313A15.974 15.974 0 0 0 7.48 13.6c.356.413.734.838 1.155 1.3l.159-.139.111-.1A18.237 18.237 0 0 0 10.89 12.7a9.708 9.708 0 0 0 .632-.851 6.961 6.961 0 0 1 .92-1.153 2.566 2.566 0 0 1 .835-.531 2.5 2.5 0 0 1 .9-.164 3.888 3.888 0 0 1 2.8 1.4c.112.129.222.264.328.394a4.2 4.2 0 0 0 1.507 1.335 2.96 2.96 0 0 0 .793.222 13.7 13.7 0 0 0 .943-3.439 8.682 8.682 0 0 0-.036-2.381c-.421-.505-.856-.979-1.294-1.408A5.874 5.874 0 0 0 16.77 4.67a9.458 9.458 0 0 0-2.806-.348z" transform="translate(19.942 4.257)"/>
    </g>
    <g id="ACCESORIES" transform="translate(38.517 38.001)">
        <path id="_Background" d="M32.29 18.053a8.289 8.289 0 0 1-2.836-.367 10.308 10.308 0 0 1-2.181-1.256A9.966 9.966 0 0 1 24.1 12.4a10.609 10.609 0 0 1-.753-2.688 6.389 6.389 0 0 0-1.063-2.071 12.584 12.584 0 0 0-3.035-.65c-.156-.022-.269-.037-.316-.046a40.074 40.074 0 0 0-7.048-.716 23.483 23.483 0 0 0-2.433.121 17.912 17.912 0 0 0-2.371.4 14.049 14.049 0 0 0-2.25.748A11.76 11.76 0 0 0 2.764 8.66c-.1.06-.251.148-.42.25a10.538 10.538 0 0 1-2.265 1.171c-.049 0-.079-.017-.079-.051A3.256 3.256 0 0 1 .281 8.8a6.873 6.873 0 0 1 .9-1.542 8.922 8.922 0 0 1 3.81-2.843 22.21 22.21 0 0 1 5.141-1.265 40.457 40.457 0 0 1 5.442-.356c1.351 0 2.678.063 3.837.182h.038a4.751 4.751 0 0 0 .829-.151 19.171 19.171 0 0 1 2.182-.75 21.769 21.769 0 0 1 2.248-.5 27.868 27.868 0 0 1 4.63-.359 57.52 57.52 0 0 1 9.037.874c.087.016.243.049.459.095.72.152 2.06.435 3.614.683a31.9 31.9 0 0 0 4.852.462 8.326 8.326 0 0 0 2.717-.354 49.481 49.481 0 0 1 6.634-2.12 33.54 33.54 0 0 1 3.415-.628A27.283 27.283 0 0 1 63.527 0a23.962 23.962 0 0 1 2.447.124.75.75 0 0 1 .042.167c.085.421.238 1.4.313 2.259.068.781.1 1.739-.157 1.868A6.154 6.154 0 0 0 64.756 5.5a1.538 1.538 0 0 0-.365 1.084 10.474 10.474 0 0 1-.482 3.678 8.562 8.562 0 0 1-1.566 2.838 4.8 4.8 0 0 1-1.138.93 10.363 10.363 0 0 1-1.7.831 12.078 12.078 0 0 1-4.22.826 7.613 7.613 0 0 1-1.884-.221 5.1 5.1 0 0 1-1.644-.729 23.5 23.5 0 0 1-2.024-1.54 9.961 9.961 0 0 1-1.41-1.467 7.118 7.118 0 0 1-1.386-3.414c-.032-.208-.324-.363-.564-.363a.386.386 0 0 0-.262.086 10.4 10.4 0 0 0-1.661 1.929c-.491.716-.927 1.488-1.312 2.169l-.05.089a22.971 22.971 0 0 1-1.478 2.384 8.068 8.068 0 0 1-2.045 1.99 13.123 13.123 0 0 1-3.512 1.1 21.354 21.354 0 0 1-3.763.353zm-.055-15.006a10.447 10.447 0 0 0-2.762.335 5.981 5.981 0 0 0-1.935.9A4.422 4.422 0 0 0 25.7 7.9a6.871 6.871 0 0 0 .473 2.56 8.782 8.782 0 0 0 1.386 2.392 8.037 8.037 0 0 0 1.968 1.757 6.1 6.1 0 0 0 2.373.891 8.105 8.105 0 0 0 1.509.141 8.578 8.578 0 0 0 2.066-.256 9.232 9.232 0 0 0 1.947-.727 9.316 9.316 0 0 0 4.063-3.987 4.413 4.413 0 0 0 .631-1.961 8.214 8.214 0 0 0-.054-2.387 2.932 2.932 0 0 0-.731-1.623 1.029 1.029 0 0 0-.694-.274h-.053a1.187 1.187 0 0 0-.487.138 13.342 13.342 0 0 0-3.363-1.175 17.433 17.433 0 0 0-3.611-.367c-.293 0-.591.007-.886.021zm26.111-.555a9.615 9.615 0 0 0-2.272.3 14.572 14.572 0 0 0-5.768 2.79 1.168 1.168 0 0 0-.539.64v.132a5.066 5.066 0 0 0-.092 1.675 5.852 5.852 0 0 0 .425 1.626 7.078 7.078 0 0 0 .949 1.608 7.933 7.933 0 0 0 1.338 1.346 5.943 5.943 0 0 0 1.674.943 4.959 4.959 0 0 0 1.67.292 5.049 5.049 0 0 0 .65-.042 6.347 6.347 0 0 0 3.858-2.188 7.613 7.613 0 0 0 1.914-4.4A5.473 5.473 0 0 0 61.9 5.1a5.154 5.154 0 0 0-1.162-1.921 2.825 2.825 0 0 0-1.052-.522 5.076 5.076 0 0 0-1.34-.165z" class="cls-3" transform="translate(-1.318 1.734)"/>
        <path id="_Ink-5" d="M34.037 19.461a10.941 10.941 0 0 1-6.918-2.455 10.4 10.4 0 0 1-2.449-2.891 10.857 10.857 0 0 1-1.311-3.842l-.026-.11a2.782 2.782 0 0 0-.822-1.649 3.176 3.176 0 0 0-1.966-.414h-.057l-.311-.059a43.023 43.023 0 0 0-7.811-.871 22.68 22.68 0 0 0-2.355.118 17.262 17.262 0 0 0-2.293.392 13.542 13.542 0 0 0-2.177.72 11.364 11.364 0 0 0-2 1.12 2.9 2.9 0 0 0-1.087 1.43A3.115 3.115 0 0 1 1.6 12.2a1.107 1.107 0 0 1-.2.019 1.235 1.235 0 0 1-.987-.582A2.342 2.342 0 0 1 0 10.527a5.193 5.193 0 0 1 .414-2.182A5.5 5.5 0 0 1 1.642 6.6a9.385 9.385 0 0 1 2.784-1.795A19.106 19.106 0 0 1 8.05 3.669a39.063 39.063 0 0 1 7.99-.769c1.475 0 2.929.069 4.206.2a.306.306 0 0 1 .215-.08.283.283 0 0 1 .249.124 21.654 21.654 0 0 1 2.414-.834 24.2 24.2 0 0 1 2.481-.555 30.521 30.521 0 0 1 5.1-.405 51.5 51.5 0 0 1 8.251.752c.874.162 1.76.375 2.616.581a23.791 23.791 0 0 0 5.477.876 9.535 9.535 0 0 0 3.291-.553A49.759 49.759 0 0 1 57.056.863 34.069 34.069 0 0 1 60.518.23 27.8 27.8 0 0 1 64.026 0a24.445 24.445 0 0 1 2.5.126 1.059 1.059 0 0 1 .363-.065.892.892 0 0 1 .511.157.958.958 0 0 1 .357.5c.562 1.639.659 2.827.3 3.631a2.85 2.85 0 0 1-1.491 1.3 3.473 3.473 0 0 0-.837.525 1.086 1.086 0 0 0-.344.868 10.709 10.709 0 0 1-.662 4.275 8.921 8.921 0 0 1-2.05 3.154 9.075 9.075 0 0 1-1.452 1.169 9.421 9.421 0 0 1-1.637.845 9.7 9.7 0 0 1-3.584.689 9.245 9.245 0 0 1-3.02-.5 8.606 8.606 0 0 1-2.716-1.526 8.882 8.882 0 0 1-2.112-2.592 11.317 11.317 0 0 1-1.21-3.7l-.035.02a9.861 9.861 0 0 0-1.582 1.853c-.454.67-.86 1.391-1.252 2.088a24.266 24.266 0 0 1-1.564 2.53 9.709 9.709 0 0 1-.971 1.134 7.675 7.675 0 0 1-1.2.976 10.949 10.949 0 0 1-6.301 2.004zM21.356 6.616a3.982 3.982 0 0 1 1.668.31 2.582 2.582 0 0 1 1.025.832 7.486 7.486 0 0 1 1.006 2.642 10.623 10.623 0 0 0 1 2.829l.05.084a9.107 9.107 0 0 0 3.374 3.308 9.323 9.323 0 0 0 4.6 1.23 8.819 8.819 0 0 0 2.3-.305 8.927 8.927 0 0 0 2.244-.956 6.5 6.5 0 0 0 1.273-.932 8.682 8.682 0 0 0 1.032-1.16A23.378 23.378 0 0 0 42.6 11.8a23.49 23.49 0 0 1 1.65-2.693 8.719 8.719 0 0 1 1.025-1.157 6.516 6.516 0 0 1 1.262-.931h.137c1.844 0 2.143 1.465 2.459 3.015a5.289 5.289 0 0 0 1.136 2.805 6.491 6.491 0 0 0 1.161 1.146 7.061 7.061 0 0 0 1.4.832 7.859 7.859 0 0 0 3.2.678 7.741 7.741 0 0 0 2.75-.5 7.136 7.136 0 0 0 2.426-1.524 7.688 7.688 0 0 0 1.682-2.425 7.448 7.448 0 0 0 .612-2.818c.016-.252.021-.508.025-.755a3.271 3.271 0 0 1 .826-2.664 2.543 2.543 0 0 1 .994-.518 2.734 2.734 0 0 0 .7-.316.89.89 0 0 0 .378-.641 3.5 3.5 0 0 0-.417-1.816c-.7-.034-1.358-.05-2.005-.05a32.085 32.085 0 0 0-3.469.179 28.519 28.519 0 0 0-3.484.594 31.884 31.884 0 0 0-4.034 1.279l-.043.016-.263.1a16.863 16.863 0 0 1-2.994.98 12 12 0 0 1-2.587.284 23.672 23.672 0 0 1-5.312-.819c-.444-.1-.9-.207-1.383-.312-1.106-.243-2.608-.55-4.414-.777a46.766 46.766 0 0 0-5.89-.353c-1.364 0-2.808.052-4.291.155-1.608.111-3.318.285-5.083.518a14.738 14.738 0 0 1 .342 3.314c.089-.009.177-.01.26-.01zM20.135 3.5a18.926 18.926 0 0 1-3.383.312 47.9 47.9 0 0 0-9.276 1.094 16.1 16.1 0 0 0-2.176.718 9.483 9.483 0 0 0-1.844 1 5.781 5.781 0 0 0-1.373 1.344A4.568 4.568 0 0 0 1.328 9.7 5.931 5.931 0 0 1 2.7 8.231a8.735 8.735 0 0 1 1.789-1.045 14.281 14.281 0 0 1 2.026-.708c.629-.172 1.312-.323 2.088-.462a22.741 22.741 0 0 1 4.056-.347 37.353 37.353 0 0 1 7.076.769l.076-.729a20.033 20.033 0 0 1 .324-2.209zm13.7 12.968a8.7 8.7 0 0 1-1.627-.153 6.477 6.477 0 0 1-2.664-1.037 8.9 8.9 0 0 1-2.161-2.038 9.36 9.36 0 0 1-1.4-2.607 7.716 7.716 0 0 1-.338-1.381 6.241 6.241 0 0 1-.053-1.361 4.816 4.816 0 0 1 .492-1.823 4.431 4.431 0 0 1 1.251-1.5 6.138 6.138 0 0 1 2.106-1.023 11.287 11.287 0 0 1 3.059-.38h.015c.332-.016.667-.024 1-.024a19.224 19.224 0 0 1 4.121.432 14.388 14.388 0 0 1 3.812 1.393.993.993 0 0 1 .588-.237c.3 0 .556.2.769.6a4.308 4.308 0 0 1 .393 1.3 8.751 8.751 0 0 1 .1 1.634 7.913 7.913 0 0 1-.2 1.6 3.311 3.311 0 0 1-.515 1.21 9.581 9.581 0 0 1-1.538 2.18 10.3 10.3 0 0 1-2.078 1.706 10.143 10.143 0 0 1-2.454 1.112 9.308 9.308 0 0 1-2.676.4zm-.649-12.105a12.231 12.231 0 0 0-3.139.356 6.4 6.4 0 0 0-1.333.513 4.422 4.422 0 0 0-1.085.8 4.761 4.761 0 0 0-.529 1.402 5.267 5.267 0 0 0-.09 1.489 6.572 6.572 0 0 0 .983 2.912 7.3 7.3 0 0 0 2.422 2.406 6.771 6.771 0 0 0 1.62.711 6.585 6.585 0 0 0 1.827.258 7.359 7.359 0 0 0 2.8-.577 10.719 10.719 0 0 0 2.973-1.9 7.237 7.237 0 0 0 2.094-3.4 5.891 5.891 0 0 0-.472-3.969l-.167-.023c-.381-.056-.846-.138-1.385-.233a38.471 38.471 0 0 0-6.519-.742zM56.2 14.827a5.223 5.223 0 0 1-1.786-.318 6.386 6.386 0 0 1-1.788-1.021 8.8 8.8 0 0 1-1.417-1.424 7.945 7.945 0 0 1-1.03-1.695 6.543 6.543 0 0 1-.52-1.869 5.55 5.55 0 0 1 .1-1.934v-.104a.052.052 0 0 1 .022-.048c.007-.007.017-.016.03-.031A.663.663 0 0 1 50.2 6a11.91 11.91 0 0 1 3.729-2.255 19.2 19.2 0 0 1 2.7-.923 10.859 10.859 0 0 1 2.64-.376 3.733 3.733 0 0 1 2.429.7 5.464 5.464 0 0 1 1.054 1.627 5.739 5.739 0 0 1 .421 1.811 7.569 7.569 0 0 1-.748 3.71 8.918 8.918 0 0 1-1.1 1.771 8.291 8.291 0 0 1-1.466 1.435 6.062 6.062 0 0 1-3.659 1.327zm2.867-11.15a11.192 11.192 0 0 0-3.338.672c-1.223.4-2.524.931-3.782 1.444l-.882.359a.823.823 0 0 1 .208.9 6.372 6.372 0 0 0 .309 2.7 5.866 5.866 0 0 0 .534 1.134 5.638 5.638 0 0 0 .734.957A5.212 5.212 0 0 0 54.486 13a4.627 4.627 0 0 0 1.909.418 4.458 4.458 0 0 0 1.456-.245 4.966 4.966 0 0 0 1.412-.77 6.5 6.5 0 0 0 1.286-1.349 9.592 9.592 0 0 0 1.079-1.979 9.984 9.984 0 0 0 .2-2.9 3.064 3.064 0 0 0-.653-1.7 2.146 2.146 0 0 0-.907-.609 3.558 3.558 0 0 0-1.2-.185z" transform="translate(-1.813 1.261)"/>
    </g>
</svg>
