<svg xmlns="http://www.w3.org/2000/svg" width="78.508" height="157.085" viewBox="0 0 78.508 157.085">
    <g fill="#21272f">
        <text font-family="Lato-Medium, Lato" font-size="18px" font-weight="500" transform="translate(-517 -3016.951) translate(556 3091)">
            <tspan x="-27.265" y="0">Theme</tspan>
        </text>
        <path d="M77.342 2.25H21.731a11.538 11.538 0 0 0-11.606 11.536v133.592a11.879 11.879 0 0 0 11.606 11.957h55.576c6.417 0 11.326-5.5 11.326-11.957V13.786A11.251 11.251 0 0 0 77.342 2.25zm-33.205 8.065h10.519a1.4 1.4 0 0 1 0 2.805H44.137a1.4 1.4 0 0 1 0-2.805zm5.435 143.761a6.1 6.1 0 1 1 6.1-6.1 6.105 6.105 0 0 1-6.1 6.099zm32.784-17.181h-65.92a.7.7 0 0 1-.7-.7V20.834a.7.7 0 0 1 .7-.7h65.92a.7.7 0 0 1 .7.7v115.359a.7.7 0 0 1-.7.701z" transform="translate(-517 -3016.951) translate(506.875 3014.701)"/>
    </g>
</svg>
