<svg xmlns="http://www.w3.org/2000/svg" id="person" width="180.5" height="243.5" viewBox="0 0 180.5 243.5">
    <defs>
        <style>
            .cls-1{fill:#d08b5b}
        </style>
    </defs>
    <g id="BODY" transform="translate(23.357 101.498)">
        <path id="_Skin" d="M57.863 36.146c-1.385-5.369-2.659-7.645-5.119-9.511-2.3-1.745-5.66-3.211-10.562-4.282-5.105-.892-5.25-3.544-6.53-7.806a1.85 1.85 0 0 0-3.023-.7 3.667 3.667 0 0 0-.352-.333c.109-.611-.781-2.363-.752-2.947.31-6.1-1.686-9.165-6.67-10.3a55.9 55.9 0 0 0-9.5-.1c-4.62 1.277-9.168 5.33-8.472 10.213a9.041 9.041 0 0 1-5.107 3.661c-3.485.436-1.735 49.772 4.317 79.329 2.6 12.682 64.677-8.9 61.871-15.255.4-1.164-.327-2.444 0-3.646.237-.87.843-1.23 1.148-2.091a6.4 6.4 0 0 0-.521-4.076c-.2-.617.365-1.28.521-1.909.742-2.968-.957-2.706-2.182-4.69.018-.006.337-1.422.335-1.415a5.717 5.717 0 0 0-.692-3.151 1.488 1.488 0 0 0-1.46-.862 53.667 53.667 0 0 1 2.152-5.631 59.671 59.671 0 0 1 4.836-10.1 1.508 1.508 0 0 0-1.2-2.52 83.062 83.062 0 0 1-13.038-1.878z" class="cls-1" transform="translate(54.967 -4.924)"/>
        <path id="_Device" fill="#ec7495" d="M10.039 0L0 16.981a14.5 14.5 0 0 1 3.345.7c.964.463 5.389 6.086 5.389 6.086l.7 3.1-1.666 2.5.65 1.567a5.106 5.106 0 0 1 1.618-1.886c1.154-.824 3.7-2.177 3.7-2.177s-.846-.452-.846-.983-.745-2.8.846-3.652 9.814-2.866 9.814-2.866L31.881 1.8z" transform="translate(95.926 31.637)"/>
        <path id="_Top" fill="#9ddadb" d="M55.216 0l31.876 5.592 14.653 6.893 2.392 1.842L89.96 39.392l-21.891 3.992-5.577 14.48 1.138 16.321 35.612-4.244 15.358-1.824 3.611 14.571-.652 5.994-.949 3.04L78.532 102s-19.392-1.88-22.832-1.88-28.64 2.5-28.64 2.5l-5.829-.62S8.329 88.407 6.328 83.57 0 49.327 0 49.327l.476-4.518 11.147-28.673a36.771 36.771 0 0 0 3.365-3.651C16.865 10.184 55.216 0 55.216 0z" transform="translate(5.966 9.227)"/>
        <path id="_Ink" d="M96.568 111.75a35.338 35.338 0 0 1-3.637-.193c-1.364-.141-2.745-.326-4.081-.5-1.545-.206-3.142-.42-4.722-.568-1.625-.153-3.322-.274-5.188-.371.122-.243.248-.488.371-.724l.287-.557a.617.617 0 0 0-.019-.622.721.721 0 0 0-.588-.341.538.538 0 0 0-.491.322c-.1.2-.206.4-.307.6-.213.411-.433.836-.633 1.261-2.432-.1-5.005-.153-7.866-.153-4.194 0-8.456.109-12.578.215-1.715.044-3.488.09-5.243.127-1.7.036-3.433.067-5.107.1h-.028c-3.721.067-7.568.136-11.353.262-1.571.052-3.17.116-4.716.178h-.012c-.994.04-2.022.081-3.034.119-.148-.471-.312-.945-.47-1.4l-.206-.6a.623.623 0 0 0-.614-.438.683.683 0 0 0-.553.264.541.541 0 0 0-.059.512c.07.207.142.415.212.617.124.358.252.727.371 1.093-2.707.092-4.79.133-6.755.133h-.492a.619.619 0 0 1-.194-.03l-.012.076v.03l-.007.043a.019.019 0 0 1-.019.016.025.025 0 0 1-.016-.006.021.021 0 0 1-.007-.017v-.167a.705.705 0 0 1-.405-.456 4.785 4.785 0 0 1-.076-1.984 2.552 2.552 0 0 0-.655-.889 5.725 5.725 0 0 0-1.872-.894 9.256 9.256 0 0 1-1.231-.483 14.6 14.6 0 0 1-2.164-1.361 18.255 18.255 0 0 1-3.655-3.739 26.381 26.381 0 0 1-1.606-2.426c-.485-.821-.938-1.689-1.367-2.599a44.719 44.719 0 0 1-2.1-5.434c-.586-1.83-1.11-3.755-1.557-5.722-.429-1.888-.8-3.861-1.1-5.867a96.044 96.044 0 0 1-.992-11.855 79.536 79.536 0 0 1 .384-9.879 26.554 26.554 0 0 1 2.358-1.357.54.54 0 0 0 .3-.635.731.731 0 0 0-.229-.375.627.627 0 0 0-.417-.163.658.658 0 0 0-.3.075c-.5.255-1 .535-1.538.854a78.456 78.456 0 0 1 2.177-11.1 75.873 75.873 0 0 1 3.786-10.67c.906-2.05 1.759-3.813 2.61-5.39a43.816 43.816 0 0 1 3.187-5.109 11.21 11.21 0 0 1 2.564.462.67.67 0 0 0 .2.032.6.6 0 0 0 .572-.545.674.674 0 0 0-.068-.422.614.614 0 0 0-.367-.291 11.317 11.317 0 0 0-2-.423 29.114 29.114 0 0 1 2.218-2.475 26.215 26.215 0 0 1 2.767-2.374 30.131 30.131 0 0 1 3.043-1.986 35.737 35.737 0 0 1 3.252-1.638c1.071-.474 2.214-.921 3.395-1.328a92.672 92.672 0 0 1 14.815-3.41c.466-.079.933-.153 1.384-.224a25.9 25.9 0 0 0 5.728-1.343 9.747 9.747 0 0 0 2.466-1.427 9.434 9.434 0 0 0 2.075-2.348.674.674 0 0 1 .554-.309.521.521 0 0 1 .293.087l.372.249.011-.03.008-.024a15.481 15.481 0 0 0 .49-2.189c.085-.489.172-.995.293-1.491A.157.157 0 0 1 56.568 0a.2.2 0 0 1 .186.127 5.531 5.531 0 0 1 .3 2.137 9.024 9.024 0 0 1-.415 2.315l.572.408a37.841 37.841 0 0 0 3.419 2.262c2.085 1.172 5.664 1.8 8.033 2.208l.108.019a35.254 35.254 0 0 0 6 .565c.41 0 .818-.01 1.212-.028a10.222 10.222 0 0 0 2.736-.464 5.606 5.606 0 0 0 1.316-.632c.087-.059.17-.118.254-.183a17.69 17.69 0 0 1-.129-3 6.2 6.2 0 0 1 .628-3.005.039.039 0 0 1 .035-.022.053.053 0 0 1 .047.033 10.967 10.967 0 0 1 .624 3.325c.02.233.04.473.063.71a3.235 3.235 0 0 1 .934-.139 3.119 3.119 0 0 1 2.552 1.325 5.94 5.94 0 0 1 .758 1.694 10.4 10.4 0 0 0 .367 1.008 2.78 2.78 0 0 0 .265.409 1.772 1.772 0 0 1 .366.657c.066.057.1.092.093.1s0 0-.011 0a.416.416 0 0 1-.121-.043c-.068-.022-.11-.035-.124-.038l.111.04.017.006.128.064h.009a2.654 2.654 0 0 1 .623.385 1.251 1.251 0 0 1 .365.569 1.682 1.682 0 0 1 .071.685c.206.1.414.2.615.3.423.208.86.422 1.293.6l.158.064c1.111.453 2.26.922 3.373 1.437 2.487 1.147 4.963 2.422 7.358 3.788l.371.211c.515.293 1.048.6 1.568.912a14.031 14.031 0 0 0-1.577 1.337.572.572 0 0 0-.144.648.7.7 0 0 0 .619.434.6.6 0 0 0 .424-.184 12.852 12.852 0 0 1 1.816-1.5 10.107 10.107 0 0 1 2.79 2.716 14.886 14.886 0 0 1 1.355 2.889l.006.015.094.245a14.875 14.875 0 0 0 1.614 3.123l.008.012a.5.5 0 0 1 .032.053l.137.008h.008l.144.008c2.074.119 4.173.279 6.24.476l.955.087a41.284 41.284 0 0 1 5.1.675.572.572 0 0 1 .358.3.477.477 0 0 1 .037.4c-.067.164-.145.356-.225.548-2.143 5.215-4.63 10.573-7.6 16.38a1.847 1.847 0 0 1 .859.225 1.336 1.336 0 0 1 .577.749 10.042 10.042 0 0 1 .522 2.123 4.914 4.914 0 0 1-.177 2.151.063.063 0 0 1-.06.047.068.068 0 0 1-.034-.009 2.885 2.885 0 0 0 .794 2.089 5.753 5.753 0 0 0 .648.544 4.043 4.043 0 0 1 .876.813c.668.924.211 1.667-.273 2.453-.092.149-.186.3-.273.457a.761.761 0 0 0-.075.741 1.892 1.892 0 0 0 .482.541 3.312 3.312 0 0 1 .434.435 2.128 2.128 0 0 1 .4.848 2.737 2.737 0 0 1 .034.94 6.179 6.179 0 0 1-.75 2.054c-.094.18-.188.369-.278.551a8.843 8.843 0 0 1-1.071 1.793.372.372 0 0 1-.064.06h.017c.085 0 .2.137.224.208l.049.111.05.114v-.026a.093.093 0 0 1 .011-.089.165.165 0 0 1 .127-.065c.1 0 .258.183.289.265a37.945 37.945 0 0 1 1.5 4.028l.17.658.034.132.306 1.184c.226.968.364 1.961.5 2.92v.012c.107.677.184 1.35.229 2 .108.981.172 1.98.191 2.97a37.091 37.091 0 0 1-.416 4.794 19.329 19.329 0 0 1-.321 1.952 24.078 24.078 0 0 1-.682 2.9c-.117.481-.236.977-.341 1.415l-.089.371-.01.027-.181.488a9.153 9.153 0 0 1-.4 1.115c-.053.161-.113.33-.183.517a15.111 15.111 0 0 0-4.053-.741h-.013a.589.589 0 0 0-.6.62.679.679 0 0 0 .152.443.6.6 0 0 0 .462.208 13.392 13.392 0 0 1 3.546.637c-.182.366-.38.721-.589 1.056l-.021.042c-.572 1.123-1.163 2.284-1.841 3.38a20.768 20.768 0 0 1-1.289 1.847 14.054 14.054 0 0 1-2.742 2.753 7.281 7.281 0 0 1-1.633 1.036 12.216 12.216 0 0 1-2.083.693 11.534 11.534 0 0 1-1.211.226c-.218.027-.44.043-.655.059-.266.02-.541.04-.81.08a6.138 6.138 0 0 0-1.295.321 3.144 3.144 0 0 0-.591.3 4.327 4.327 0 0 0-.443.454.02.02 0 0 1-.011.009 1.177 1.177 0 0 1-.979.812 31.619 31.619 0 0 1-5.265.43zm-51.478-9.731a.658.658 0 0 0-.167.022.692.692 0 0 0-.414.356.512.512 0 0 0-.03.425 8.762 8.762 0 0 0 1.811 2.842.586.586 0 0 0 .423.191.69.69 0 0 0 .609-.427.588.588 0 0 0-.133-.662 7.143 7.143 0 0 1-1.484-2.282.679.679 0 0 0-.615-.465zM53.731 88.1a.628.628 0 0 0-.149.019 3.519 3.519 0 0 1-.4.07 2.187 2.187 0 0 0-.6.14c-.192.08-.383.172-.568.262l-.228.11-1.835.87c-1.157.55-2.3 1.092-3.383 1.613-2.079.995-4.174 2.045-6.2 3.06l-.932.467c-2.1 1.054-4.553 2.28-6.974 3.5-1.233.624-2.441 1.26-3.461 1.8l-.315.166c-.439.232-.893.471-1.334.719-.118.066-.239.13-.367.2a4.134 4.134 0 0 0-1.216.831.068.068 0 0 0-.009.071.05.05 0 0 0 .047.031 7.111 7.111 0 0 0 2.478-.9c.273-.139.531-.269.778-.381l.745-.336c.878-.4 1.786-.805 2.674-1.219 2.806-1.31 5.108-2.375 7.244-3.351.969-.443 1.954-.887 2.907-1.316 1.385-.625 2.818-1.271 4.22-1.92 1.173-.543 2.368-1.093 3.551-1.636l1.706-.781.281-.127.012-.006c.184-.082.375-.168.56-.257a3.292 3.292 0 0 0 .681-.46c.1-.084.21-.171.338-.263a.558.558 0 0 0 .209-.629.476.476 0 0 0-.46-.347zm40.442 10.99a.692.692 0 0 0-.612.429.583.583 0 0 0 .136.658c.175.178.345.365.51.546a7.792 7.792 0 0 0 1.266 1.2.52.52 0 0 0 .3.09.677.677 0 0 0 .57-.319.6.6 0 0 0 .061-.48.734.734 0 0 0-.289-.39 5.948 5.948 0 0 1-1.031-1.009c-.158-.181-.321-.369-.488-.539a.59.59 0 0 0-.423-.188zm-27.691-4.028a.591.591 0 0 0-.424.189 22.238 22.238 0 0 0-1.93 2.324.511.511 0 0 0-.082.411.711.711 0 0 0 .31.458.589.589 0 0 0 .305.088.723.723 0 0 0 .564-.316 19.947 19.947 0 0 1 1.731-2.067.583.583 0 0 0 .136-.658.691.691 0 0 0-.61-.429zm-51.436-4.739a.665.665 0 0 0-.294.071c-.4.194-.807.373-1.2.545a18.557 18.557 0 0 0-1.908.918.578.578 0 0 0-.285.68.666.666 0 0 0 .609.508.628.628 0 0 0 .317-.091 18.542 18.542 0 0 1 1.908-.919c.4-.173.808-.352 1.2-.545a.53.53 0 0 0 .308-.622.7.7 0 0 0-.655-.545zm96.694-10.064a.065.065 0 0 0-.046.019.052.052 0 0 0-.015.04 5.562 5.562 0 0 0 .368 1.477c.067.193.137.393.194.585.287.967.487 1.761.631 2.5a18.634 18.634 0 0 1 .244 2.12 13.907 13.907 0 0 0 .409 2.811.526.526 0 0 0 .515.413.669.669 0 0 0 .605-.413 4.663 4.663 0 0 0 .329-1.309 6.642 6.642 0 0 0 0-1.369 12.544 12.544 0 0 0-.615-2.669 12.137 12.137 0 0 0-1.06-2.388 9.548 9.548 0 0 0-.658-1.005 3.055 3.055 0 0 0-.868-.81.058.058 0 0 0-.033-.002zM78.927 82.3a.666.666 0 0 0-.555.265.506.506 0 0 0-.031.5c.175.431.366.864.55 1.283s.374.848.548 1.279a.7.7 0 0 0 1.195.159.506.506 0 0 0 .031-.5c-.175-.432-.366-.865-.55-1.283-.184-.417-.374-.848-.548-1.278a.667.667 0 0 0-.64-.425zm16.709-.416a.68.68 0 0 0-.194.03 26.231 26.231 0 0 0-3.073 1.2c-.23.1-.49.216-.74.324a.542.542 0 0 0-.284.252.5.5 0 0 0-.036.329.733.733 0 0 0 .691.581.686.686 0 0 0 .273-.058l.62-.271h.011a24.857 24.857 0 0 1 2.877-1.124.607.607 0 0 0 .438-.7.7.7 0 0 0-.185-.387.542.542 0 0 0-.398-.176zm-56.925-.543a.693.693 0 0 0-.615.432.578.578 0 0 0 .14.654l1.647 1.647a.6.6 0 0 0 .424.187.693.693 0 0 0 .615-.431.578.578 0 0 0-.14-.654l-1.647-1.647a.6.6 0 0 0-.424-.188zm-9.836-27a.143.143 0 0 0-.1.041.133.133 0 0 0-.033.1c.045.795.117 1.6.186 2.376.092 1.034.187 2.1.222 3.162.058 1.749.051 3.581-.02 5.6-.058 1.649-.167 3.387-.343 5.47-.045.538-.119 1.1-.191 1.645a16.925 16.925 0 0 0-.217 3.607c-1.687.442-3.141.888-4.443 1.365-.272.1-.556.2-.857.3a19.368 19.368 0 0 0-2.991 1.227 4.947 4.947 0 0 0-2.2 2.116.056.056 0 0 0 0 .054.054.054 0 0 0 .044.027.043.043 0 0 0 .034-.018 3.639 3.639 0 0 1 1.382-1.013 12.114 12.114 0 0 1 1.663-.566l.324-.094c1.263-.371 2.521-.7 3.916-1.062 2.624-.681 5.325-1.242 7.937-1.784l.293-.061 1.287-.266c2.289-.472 4.655-.961 6.965-1.529l.357-.088h.011c1.176-.288 2.392-.586 3.553-.98a15.581 15.581 0 0 0 3.846-1.749.531.531 0 0 0 .175-.577.346.346 0 0 0-.345-.259.492.492 0 0 0-.056 0 23.556 23.556 0 0 0-3.378.734h-.008l-.69.184c-.567.148-1.142.307-1.7.461-.819.226-1.665.46-2.505.665-1.953.479-3.951.918-5.882 1.343-.911.2-1.852.408-2.776.616-1.053.238-1.917.44-2.719.637a12.454 12.454 0 0 0 .194-1.6l.037-.458.067-.76v-.025c.057-.638.116-1.3.168-1.947.173-2.158.269-4.047.294-5.774a44.231 44.231 0 0 0-.252-5.6c-.092-.817-.209-1.782-.389-2.749a16.76 16.76 0 0 0-.7-2.679.162.162 0 0 0-.16-.094zm62.415-5.665c-.755 0-1.512.065-2.244.128h-.006l-.588.049a31.9 31.9 0 0 0-4.937.751 6.8 6.8 0 0 0-1.886.74 6.27 6.27 0 0 0-1.554 1.294 18.133 18.133 0 0 0-1.948 2.888l-.26.444a21.683 21.683 0 0 1-2.813 3.772 19.928 19.928 0 0 1-3.544 3.011 1.089 1.089 0 0 1-.434.48.036.036 0 0 1 .006.01l-.165.073h-.014l-.3.132a46.31 46.31 0 0 0-4.966 2.42c-.009.068-.018.138-.028.2-.017.123-.034.239-.044.352-.03.354-.07.714-.108 1.061s-.078.7-.108 1.056a36.59 36.59 0 0 0-.159 4.265 21.657 21.657 0 0 0 .589 4.427c.14.577.326 1.149.506 1.7l.036.111a16.489 16.489 0 0 1 3.2-1.79 12.908 12.908 0 0 1 3.57-1.142 8.872 8.872 0 0 1 1.294-.09 18.626 18.626 0 0 1 2.567.227l.257.037h.014a13.53 13.53 0 0 0 1.916.184 4.583 4.583 0 0 0 1.39-.192 3.586 3.586 0 0 0 1.518-.993 11.8 11.8 0 0 0 1.141-1.488 9.969 9.969 0 0 1 1.319-1.66 3.986 3.986 0 0 1 2.331-1.124 3.679 3.679 0 0 1 .387-.017c.1 0 .207 0 .308.005h.007c.1 0 .211.005.316.005a2.347 2.347 0 0 0 .969-.165 2.064 2.064 0 0 0 1.117-1.393.836.836 0 0 1 .44-.514 2.406 2.406 0 0 1-.76-.5c-.075-.064-.153-.131-.236-.2-.451-.359-.9-.7-1.344-1.005-.279-.2-.568-.387-.846-.573l-.428-.286c-.073-.049-.164-.124-.27-.21a2.01 2.01 0 0 0-.941-.545.321.321 0 0 0-.065.006h-.012a.063.063 0 0 1-.05-.025.043.043 0 0 1-.006-.041c.063-.169.224-.254.478-.254a3.632 3.632 0 0 1 1.323.375 13.874 13.874 0 0 1 1.635.874 7.739 7.739 0 0 1 2.194 1.749.494.494 0 0 1-.1.577 1.216 1.216 0 0 0 .3.039 1.382 1.382 0 0 0 1-.488 2.432 2.432 0 0 0 .549-1.032 7.681 7.681 0 0 0-.1-3.006l-.039-.24a.154.154 0 0 1 .036-.126.151.151 0 0 1 .112-.055.119.119 0 0 1 .032 0l.035-.079c-.769-.336-1.589-.6-2.381-.861-.352-.115-.716-.234-1.07-.357l-.649-.226-.053-.019-1.516-.527-.225-.076a2.607 2.607 0 0 1-1.3-.734.671.671 0 0 1-.121-.629.5.5 0 0 1 .374-.329 1.892 1.892 0 0 1 .421-.046 3.99 3.99 0 0 1 1.368.33c.113.042.23.084.348.125.619.21 1.241.423 1.842.629l.233.08c.322.11.652.217.971.321a26.74 26.74 0 0 1 2.682.98 5.269 5.269 0 0 1 1.353.852A3.84 3.84 0 0 1 96.1 63.7c.042.092.084.22.133.368.151.454.357 1.076.733 1.16a.376.376 0 0 0 .083.009c.222 0 .4-.215.536-.638a5.294 5.294 0 0 0 .181-.939 6.368 6.368 0 0 0-.091-1.97 7.29 7.29 0 0 0-.665-1.906 6.214 6.214 0 0 0-2.733-2.793 19.89 19.89 0 0 0-3.693-1.216l-.138-.036c-1.037-.268-2.14-.5-3.278-.678-.419-.069-.874-.134-1.392-.2a.078.078 0 0 1-.072-.081.068.068 0 0 1 .072-.067c.4-.018.8-.027 1.183-.027.183 0 .367 0 .548.006a11.06 11.06 0 0 1 4.764-1.04h.089a2.253 2.253 0 0 1 1.177.391 5.349 5.349 0 0 1 1.06.9 5.822 5.822 0 0 1 1.17 1.726 7.617 7.617 0 0 1 2.9 4.095c.031.093.059.182.086.273a3.982 3.982 0 0 1 .775-1.186 5.84 5.84 0 0 1 1.076-.914 19.4 19.4 0 0 1 2.69-1.491.889.889 0 0 1-.223-.126 1.688 1.688 0 0 1-.462-1.221l-.019-.172a5.411 5.411 0 0 1 .032-1.876 2.885 2.885 0 0 1 .331-.82 3.261 3.261 0 0 1 .533-.666 5.363 5.363 0 0 1 1.451-.963 21.3 21.3 0 0 1 4.082-1.446 22.97 22.97 0 0 1 4.288-.625.7.7 0 0 1 .067-.162c1.437-2.576 2.851-5.306 4.2-8.114 1.274-2.646 2.536-5.45 3.751-8.335-1-.075-2.02-.2-3-.317-.73-.088-1.485-.18-2.228-.251-1.971-.189-3.965-.344-5.927-.461-.406-.025-.815-.047-1.211-.069h-.022c-1.334-.07-2.708-.125-4.082-.164l-.486-.014h-.051c-.635-.019-1.292-.038-1.939-.038h-.31a2.036 2.036 0 0 0-.587.069.974.974 0 0 0-.478.328 1.837 1.837 0 0 0-.176.275 1.059 1.059 0 0 1-.353.434l-.046.026-.083.047-.04.041a.859.859 0 0 0-.083.09 6.949 6.949 0 0 0-.507.767c-.444.765-.853 1.571-1.248 2.349l-.006.011c-.294.58-.579 1.175-.855 1.751-.391.815-.794 1.658-1.228 2.468-.758 1.412-1.463 2.65-2.155 3.785-.176.287-1.543 2.371-2.32 3.422a7.232 7.232 0 0 1 1.824.284c.129-.294.278-.583.423-.862.123-.238.251-.484.365-.732.085-.186.161-.385.234-.578a5.176 5.176 0 0 1 .492-1.052.344.344 0 0 1 .287-.164.351.351 0 0 1 .265.126.362.362 0 0 1 .075.3 4.642 4.642 0 0 1-.781 1.6v.007l-.043.066a7.551 7.551 0 0 1-1.076 1.368l.064.022a4.408 4.408 0 0 1 1.594 1.115 15.22 15.22 0 0 1 1.264 1.563c.151.2.293.4.438.585l.115.147c.593.756 2.4 3.056 2.753 4.987a2.822 2.822 0 0 1-.013 1.079 2.229 2.229 0 0 1-.409.919 1.371 1.371 0 0 1-1.015.552h-.027a.306.306 0 0 1-.273-.145.684.684 0 0 1-.087-.362 1.93 1.93 0 0 1 .262-.92.84.84 0 0 1 .652-.5c-.134 0-.138-.089-.142-.2a.777.777 0 0 0-.015-.148 2.689 2.689 0 0 0-.144-.4l-.047-.114a12.389 12.389 0 0 0-.645-1.336 19.628 19.628 0 0 0-1.34-2.074c-.507-.7-1.048-1.367-1.6-2.051l-.074-.091a3.919 3.919 0 0 0-1.947-1.556 7.637 7.637 0 0 0-1.975-.233zm21.849 16.981a.378.378 0 0 1 .291.122.45.45 0 0 1 .107.28.551.551 0 0 1-.1.35.473.473 0 0 1-.345.19l-.114.011c-2.329.22-4.737.447-7.092.783-1.284.184-2.423.372-3.483.577-.4.078-.812.179-1.208.277-.2.048-.4.1-.6.145a.059.059 0 0 1-.008.052 4.5 4.5 0 0 0-.717 1.748 2.29 2.29 0 0 0 .035.931 1.69 1.69 0 0 0 .486.81 1.511 1.511 0 0 0 1.095.366 6.391 6.391 0 0 0 .68-.049l.053-.006c.712-.078 1.418-.175 2.139-.276 1.178-.166 2.4-.36 3.742-.592.623-.107 1.276-.227 1.94-.356a65.173 65.173 0 0 0 6.86-2.92 11.31 11.31 0 0 1 .659-1.232c.136-.231.277-.47.4-.706l.021-.039a3.065 3.065 0 0 0 .54-2.38 2.105 2.105 0 0 0-.618-.746 2.166 2.166 0 0 1-.628-.755 1.436 1.436 0 0 1-.1-.737 1.939 1.939 0 0 1 .246-.708 3.8 3.8 0 0 1 .373-.508 1.991 1.991 0 0 0 .572-1.067c.024-.541-.5-.953-.971-1.316a5.163 5.163 0 0 1-.432-.361 2.781 2.781 0 0 1-.8-1.49 2.715 2.715 0 0 1 .244-1.666.079.079 0 0 1 .065-.044 15.934 15.934 0 0 0-.346-1.728 8.165 8.165 0 0 0-.6-1.625.906.906 0 0 0-.934-.511c-.1 0-.206.005-.316.01h-.006l-.214.009c-.559.018-1.083.054-1.6.108a22.709 22.709 0 0 0-3.456.634 21.123 21.123 0 0 0-3.311 1.175 5.418 5.418 0 0 0-1.327.786 2.1 2.1 0 0 0-.74 1.308 5.26 5.26 0 0 0 .046 1.533l.008.056c.02.148.046.332.105.361a.119.119 0 0 0 .048.007 4.053 4.053 0 0 0 .7-.16c.079-.022.141-.04.169-.046l.327-.071.026-.006 3.162-.683c.306-.066.625-.147.934-.225a11.1 11.1 0 0 1 2.413-.426h.009a.474.474 0 0 1 .437.4.377.377 0 0 1-.217.445 15.38 15.38 0 0 1-3.3.843c-.459.082-.933.167-1.377.265l-.391.086-.391.086c-.412.192-.833.379-1.241.56a31.992 31.992 0 0 0-3.143 1.54l-.046.027a5.649 5.649 0 0 0-2.174 1.811 2 2 0 0 0-.249.79 1.654 1.654 0 0 0 .109.813 1.069 1.069 0 0 0 .763.638 2.26 2.26 0 0 0 .513.055 3.637 3.637 0 0 0 .5-.037 10.361 10.361 0 0 0 1.368-.322c.261-.074.506-.143.733-.194l3.07-.7 1.217-.276 5.075-1.149a.484.484 0 0 1 .106-.012.4.4 0 0 1 .3.128.5.5 0 0 1 .132.285.412.412 0 0 1-.056.266.388.388 0 0 1-.25.167l-8.286 1.885c-.349.079-.706.169-1.052.256a21.842 21.842 0 0 1-2.346.5l-.02.013a11.546 11.546 0 0 0-2.785 2.221c-.052.06-.107.127-.172.211a.942.942 0 0 0-.2.944.73.73 0 0 0 .689.365h.076a3.8 3.8 0 0 0 .947-.178c.1-.027.2-.055.3-.079.832-.208 1.689-.4 2.547-.564a98.253 98.253 0 0 1 9.87-1.239l.469-.043zm-102.433.322a.707.707 0 0 0-.628.439.561.561 0 0 0 .152.638A8.207 8.207 0 0 0 13 68.581h.006l.254.1a.627.627 0 0 0 .23.047.556.556 0 0 0 .52-.492.678.678 0 0 0-.412-.78l-.3-.117a6.4 6.4 0 0 1-2.167-1.184.61.61 0 0 0-.425-.176zm88.448-2.54a6.524 6.524 0 0 1-.056 1.2 6.581 6.581 0 0 1 1.1-.64 1.916 1.916 0 0 1-1.044-.561zM54.593 59.2a.586.586 0 0 0-.6.615.682.682 0 0 0 .151.445.6.6 0 0 0 .463.211 7.2 7.2 0 0 1 1.605.283l.238.06a.7.7 0 0 0 .169.022.641.641 0 0 0 .616-.591.622.622 0 0 0-.079-.4.583.583 0 0 0-.369-.257l-.114-.028-.031-.008a9.29 9.29 0 0 0-2.032-.352zm-17.711-9.865a.7.7 0 0 0-.655.546.531.531 0 0 0 .308.623 11.654 11.654 0 0 0 2.714.979.716.716 0 0 0 .149.016.669.669 0 0 0 .642-.619.594.594 0 0 0-.085-.386.565.565 0 0 0-.368-.237 10.257 10.257 0 0 1-2.411-.851.664.664 0 0 0-.294-.071zm22.277-7.866a.583.583 0 0 0-.585.449 28.621 28.621 0 0 0-.732 3.66.656.656 0 0 0 .155.539.762.762 0 0 0 .559.259.493.493 0 0 0 .512-.46 28.6 28.6 0 0 1 .732-3.66.583.583 0 0 0-.087-.524.7.7 0 0 0-.555-.263zm-41.827 1.787a.626.626 0 0 0-.232.048 21.287 21.287 0 0 0-2.9 1.345.6.6 0 0 0-.272.313.612.612 0 0 0-.011.372.729.729 0 0 0 .221.354.581.581 0 0 0 .385.151.626.626 0 0 0 .318-.092 19.189 19.189 0 0 1 2.594-1.217.682.682 0 0 0 .41-.785.553.553 0 0 0-.513-.489zm64.49-10.6a.534.534 0 0 0-.488.323 10.108 10.108 0 0 0-.562 1.306 4.741 4.741 0 0 0-.256 1.393.579.579 0 0 0 .156.431.647.647 0 0 0 .464.183.683.683 0 0 0 .441-.153.6.6 0 0 0 .21-.46 4.874 4.874 0 0 1 .646-2.058.622.622 0 0 0-.023-.621.721.721 0 0 0-.587-.34zM40.9 30.653a.691.691 0 0 0-.182.026c-.783.215-1.593.374-2.376.527-.6.118-1.227.241-1.835.388a.578.578 0 0 0-.369.253.617.617 0 0 0-.08.4.645.645 0 0 0 .621.6.706.706 0 0 0 .165-.02c.609-.147 1.232-.27 1.835-.388.783-.154 1.592-.312 2.375-.527a.591.591 0 0 0 .443-.679.709.709 0 0 0-.188-.4.56.56 0 0 0-.409-.18zM15.928 28.8a.558.558 0 0 0-.522.495.676.676 0 0 0 .413.777c.422.165.858.313 1.279.457.422.144.859.292 1.282.458a.63.63 0 0 0 .229.046.558.558 0 0 0 .522-.494.676.676 0 0 0-.413-.778c-.422-.165-.858-.314-1.28-.457s-.859-.292-1.282-.458a.629.629 0 0 0-.228-.046zm39.6-4.551a.585.585 0 0 0-.46.2.668.668 0 0 0-.153.437.6.6 0 0 0 .614.635 14.148 14.148 0 0 1 2.577.161.726.726 0 0 0 .132.012.627.627 0 0 0 .463-.2.75.75 0 0 0 .2-.44.525.525 0 0 0-.456-.6 15.754 15.754 0 0 0-2.915-.206zm34.238-7.158a.593.593 0 0 0-.33.108l-1.647 1.1a.634.634 0 0 0-.262.34.666.666 0 0 0 0 .39.631.631 0 0 0 .57.476.592.592 0 0 0 .33-.108l.329-.22 1.318-.878a.634.634 0 0 0 .262-.34.665.665 0 0 0 0-.39.631.631 0 0 0-.573-.476zM32.231 15.3a.735.735 0 0 0-.121.01 15.041 15.041 0 0 0-2.929.732.673.673 0 0 0-.414.774.559.559 0 0 0 .525.5.633.633 0 0 0 .228-.046 14.689 14.689 0 0 1 2.929-.732.514.514 0 0 0 .457-.582.756.756 0 0 0-.2-.447.639.639 0 0 0-.475-.209zm30.819-2.214a.675.675 0 0 0-.569.318.646.646 0 0 0 .228.869 9.473 9.473 0 0 1 1.313 1.159l.022.022a.6.6 0 0 0 .424.187.693.693 0 0 0 .615-.431.578.578 0 0 0-.14-.654 11.176 11.176 0 0 0-1.593-1.38.531.531 0 0 0-.3-.09z" transform="translate(5.561 1.112)"/>
    </g>
    <g id="HEAD" transform="translate(59.107 28.591)">
        <path id="_Skin-2" d="M52.865 14.807c-.612-3.71 1.4-4.48 0-8.007C49.76.265 41.3.546 35.09.044a46.327 46.327 0 0 0-20.32 3.431 32.7 32.7 0 0 0-4.4 2.333 1.923 1.923 0 0 0-.28 3.022C4.562 16.672 7.724 27.2 3.313 35.453c-.815 1.476-1.893 2.8-2.6 4.334-1.077 2.334-1.146 5.678 1.3 7.228 3.434 1.849 5.353-1.815 7.042 3.495 8.438 18.5 25.4 19.545 41.509 9.9a13.94 13.94 0 0 0 3.868-2.874c2.388-2.693 2.107-6.479 2.16-9.841q.044-2.956.015-5.912c-.075-7.983-2.716-19.059-3.742-26.976z" class="cls-1" transform="translate(8.245 12.707)"/>
        <path id="_Ink-2" d="M33.852 79.656a10.078 10.078 0 0 1-2.749-.348 5.86 5.86 0 0 1-2.55-1.4 3.1 3.1 0 0 1-.749-1.16 2.781 2.781 0 0 1-.091-1.466.69.69 0 0 1 .279-.442.838.838 0 0 1 .482-.145.874.874 0 0 1 .747.39l.08.129a4 4 0 0 0 1.607 1.626 5.242 5.242 0 0 0 1.36.411 9.112 9.112 0 0 0 1.419.117h.175a31.217 31.217 0 0 0 7.66-1.275 43.788 43.788 0 0 0 6.993-2.438 30.951 30.951 0 0 0 6.356-3.783 10.966 10.966 0 0 0 2.146-2.172 7.983 7.983 0 0 0 .768-1.3 7.24 7.24 0 0 0 .5-1.461 19.306 19.306 0 0 0-.053-6.448c-.056-.468-.113-.953-.161-1.421-.466-4.583-1.034-9.448-1.844-15.776l-.135-1.05-.139-1.079v-.007c-.513-3.963-1.043-8.06-1.3-12.112a1.243 1.243 0 0 1-.228-.543l-.044-.287a2.393 2.393 0 0 1-.018-.68c0-.821.024-1.6.07-2.387.008-.143.014-.287.019-.427-.773.171-1.59.32-2.5.456a79.836 79.836 0 0 1-11.87.889c-1.969 0-3.963-.074-5.926-.22-2.739-.2-5.626-.556-8.827-1.075-1.534-.248-3.034-.52-4.457-.807-.872-.175-1.743-.4-2.585-.625h-.008l-.578-.151a9.041 9.041 0 0 0-1.229 2.6 8.4 8.4 0 0 0-.329 2.847 10.81 10.81 0 0 0 .621 2.66 15.47 15.47 0 0 1 .514 1.838 5.106 5.106 0 0 1 .039 1.9 3.28 3.28 0 0 1-1.448 2.216 8.907 8.907 0 0 1-2.484 1.037l-.75.217a2.165 2.165 0 0 0-.727.316 1.036 1.036 0 0 0-.373.71 11.917 11.917 0 0 0 .015 2.639c.03.381.058.74.072 1.1.017.436.036.875.054 1.3.041.968.084 1.969.108 2.955 0 .2.01.395.015.587.015.529.03 1.076.029 1.614a2.215 2.215 0 0 1-.281 1.213 4.55 4.55 0 0 1 .419.631.071.071 0 0 1 0 .072.08.08 0 0 1-.067.04.067.067 0 0 1-.049-.022 4.152 4.152 0 0 0-.5-.443 4.116 4.116 0 0 1-.313.34l-.009-.013a1 1 0 0 1-.713.3 1.121 1.121 0 0 1-.732-.285l-.123-.107a1.717 1.717 0 0 1-.68-1.061c0-.025-.01-.05-.012-.075h-.167a4.908 4.908 0 0 0-2.372.613A5.875 5.875 0 0 0 3.6 51.8a3.328 3.328 0 0 0 .727.638.036.036 0 0 1 .016.042.038.038 0 0 1-.036.028.041.041 0 0 1-.018 0 3.482 3.482 0 0 1-.774-.5 7.028 7.028 0 0 0-.395 1.53 6.788 6.788 0 0 0 .22 2.978 4.843 4.843 0 0 0 .653 1.336 3.8 3.8 0 0 0 1.071 1.025 4.683 4.683 0 0 0 2.485.731h.012a4.872 4.872 0 0 0 1.21-.175c.066-.016.133-.035.2-.052a2.539 2.539 0 0 1 .662-.119 1.379 1.379 0 0 1 .706.191l-.06.005a.342.342 0 0 0-.092.013.907.907 0 0 0 .178.006.827.827 0 0 1 .7.412.85.85 0 0 1 .008.821l-.038.087-.01.022-.01.022-.023.149v.04l-.009.03-.005.014.951 1.453a55.445 55.445 0 0 0 3.703 5.173 42.574 42.574 0 0 0 3.025 3.29 9.552 9.552 0 0 0 2.036 1.41c.38.217.774.441 1.155.7a1.207 1.207 0 0 1 .533.873 1.038 1.038 0 0 1-.311.849 2.346 2.346 0 0 1-1.7.718 3.768 3.768 0 0 1-1.78-.513 6.924 6.924 0 0 1-1.514-1.137 22.066 22.066 0 0 1-3.127-4.031 28.883 28.883 0 0 1-2.085-3.929 21.821 21.821 0 0 1-.77-2.071 18.986 18.986 0 0 1-.541-2.151 2.333 2.333 0 0 1-.82.446 6.469 6.469 0 0 1-1.877.315h-.218A7.661 7.661 0 0 1 4.36 61.7a6.467 6.467 0 0 1-2.389-1.955 7.644 7.644 0 0 1-1.3-2.754 9.329 9.329 0 0 1-.134-3.87A8.571 8.571 0 0 1 2 49.572a21.131 21.131 0 0 1-.636-2.482c-.052-.243-.1-.471-.151-.7l-.1-.436c-.324-1.418-.556-2.592-.73-3.7a29.962 29.962 0 0 1-.372-3.734 17.444 17.444 0 0 1 1.215-7.356 14.129 14.129 0 0 1 .874-1.782c.088-.15.194-.3.307-.459a3.231 3.231 0 0 0 .562-1.023c.192-.775-.545-1.583-1.2-2.3a6.16 6.16 0 0 1-.795-.988 3.43 3.43 0 0 1-.469-1.7 2.572 2.572 0 0 1 .944-1.968 4.536 4.536 0 0 1-.572-2.306 4.036 4.036 0 0 1 .783-2.291 4.5 4.5 0 0 1 2.84-1.755 4.667 4.667 0 0 1 .792-.065 5.539 5.539 0 0 1 1.48.2A54.445 54.445 0 0 1 13.4 9.459a51.057 51.057 0 0 1 7.382-4.136 59.013 59.013 0 0 1 12.212-3.99A62.037 62.037 0 0 1 52.142.327a59.959 59.959 0 0 1 15.319 3.591l.431.167.214.082a8.6 8.6 0 0 1 3.23 1.8 3.712 3.712 0 0 1 .656.923 3.587 3.587 0 0 1 .338 1.054 3.343 3.343 0 0 1-.387 2.172 4.523 4.523 0 0 1-1.2 1.362 5.912 5.912 0 0 1-1.611.87 9.568 9.568 0 0 1 1.143 1.11 1.841 1.841 0 0 1 .47 1.18 1.619 1.619 0 0 1-.111.615 1.7 1.7 0 0 1-.359.557 9.874 9.874 0 0 1-4.628 2.713 4.893 4.893 0 0 1-.331 2.953 4.163 4.163 0 0 1-1.068 1.453 5.09 5.09 0 0 1-1.506.893 9.946 9.946 0 0 1-3.6.574c-.344 0-.7-.012-1.073-.034l-.079-.005-.146 1.673a2.016 2.016 0 0 1-.447 1.142 1.707 1.707 0 0 1-1.067.576c-.031 0-.063.008-.1.011a135.14 135.14 0 0 1 3.092 15.833c.365 2.426.718 4.995 1.147 8.33l.118.927c.086.681.179 1.376.269 2.048.307 2.292.624 4.662.751 6.994a15.045 15.045 0 0 1-.023 2.027 11.955 11.955 0 0 1-.32 1.955 10.2 10.2 0 0 1-.664 1.855 9.721 9.721 0 0 1-1.054 1.73 16.238 16.238 0 0 1-5.794 4.57 60.71 60.71 0 0 1-7.716 3.216c-1.334.447-2.682.839-4.007 1.166-1.366.337-2.748.615-4.107.827l-.37.057a24.694 24.694 0 0 1-3.7.362zM11.8 56.193a1.014 1.014 0 0 1-.619-.212c-.272-.2-.52-.417-.759-.623A5.588 5.588 0 0 0 8.448 54.1a8.583 8.583 0 0 0-2.553-.435 5.1 5.1 0 0 0-.885.073h-.023a.158.158 0 0 1-.144-.1.111.111 0 0 1 .035-.127A5.728 5.728 0 0 1 6.453 52.5a4.565 4.565 0 0 1 1.806-.361c.148 0 .3.007.452.02a7.522 7.522 0 0 1 2.348.59 5.264 5.264 0 0 1 1.056.616 3.724 3.724 0 0 1 .823.852 1.131 1.131 0 0 1 .032 1.2 1.4 1.4 0 0 1-1.17.776z" transform="translate(6.025 0)"/>
    </g>
    <g id="FACE" transform="translate(84.371 58.135)">
        <path id="_Ink-3" d="M16.759 31.8a1.914 1.914 0 0 1-1.416-.642 2.256 2.256 0 0 1-.43-.685 2.341 2.341 0 0 1-.17-.822 3.78 3.78 0 0 1 1.421-2.7 8.285 8.285 0 0 1 2.151-1.515 4.962 4.962 0 0 1 1.1-.391 3.532 3.532 0 0 1 .56-.057 3.029 3.029 0 0 0 .637-.077.111.111 0 0 1 .029 0 .128.128 0 0 1 .115.084.1.1 0 0 1-.029.119 3.335 3.335 0 0 0-.622.911c-.089.166-.173.322-.263.46-.246.38-.506.791-.738 1.217a13.611 13.611 0 0 0-.7 1.437l-.039.1c.042.1.078.2.107.282l.033.092.01.026a1.266 1.266 0 0 1 .083.566 1.517 1.517 0 0 1-.153.544 1.892 1.892 0 0 1-1.11.967 2 2 0 0 1-.576.084zm1.257-3.053a.654.654 0 0 1 .26.3.477.477 0 0 0-.259-.303zm.923-8.058a5.549 5.549 0 0 1-1.978-.4 9.99 9.99 0 0 1-2.326-1.319.893.893 0 0 1-.325-.516 1.069 1.069 0 0 1 .046-.58 1.318 1.318 0 0 1 .391-.566.953.953 0 0 1 .61-.238.866.866 0 0 1 .472.145l.159.123a12.593 12.593 0 0 0 1.456 1.012 3.588 3.588 0 0 0 1.745.556 1.885 1.885 0 0 0 .737-.145 2.061 2.061 0 0 0 .687-.486 2.1 2.1 0 0 0 .4-1.695 3.2 3.2 0 0 0-.85-1.5 6.2 6.2 0 0 0-1.287-1.038.4.4 0 0 1-.108-.459.6.6 0 0 1 .2-.285.609.609 0 0 1 .38-.125.81.81 0 0 1 .137.012 4.316 4.316 0 0 1 1.515.542 3.442 3.442 0 0 1 1.02.941 3.736 3.736 0 0 1 .652 2.5 4.112 4.112 0 0 1-.334 1.31 3.823 3.823 0 0 1-.752 1.126 3.6 3.6 0 0 1-2.646 1.081zM6.644 11.67a1.192 1.192 0 0 1-.908-.371 1.97 1.97 0 0 1-.557-1.27 1.726 1.726 0 0 1 .044-.39l-.561.01c-.337.005-.615.008-.875.008a19.877 19.877 0 0 1-3.226-.216.379.379 0 0 1-.076.008.438.438 0 0 1-.307-.138.617.617 0 0 1-.168-.318.5.5 0 0 1 .341-.575A21.824 21.824 0 0 1 5.9 7.314l.166-.014c.9-.1 1.827-.173 2.719-.243l.231-.018.212-.018.309-.028c.436-.041.888-.083 1.33-.083a4.965 4.965 0 0 1 1.118.114 1.1 1.1 0 0 1 .653.416 1.206 1.206 0 0 1 .227.687 1.372 1.372 0 0 1-.214.775 1.17 1.17 0 0 1-.666.5 6.257 6.257 0 0 1-1.7.191c-.219 0-.44 0-.653-.01S9.2 9.57 8.986 9.57h-.125l-.311.005h-.174a2.423 2.423 0 0 1-.351 1.046 5.217 5.217 0 0 1-.488.673 1.155 1.155 0 0 1-.893.376zM25 10.584a1.3 1.3 0 0 1-1.022-.53A1.048 1.048 0 0 1 23.8 9.1l.012-.036c.027-.075.051-.154.077-.237s.046-.147.071-.22l-.284-.024a7.11 7.11 0 0 1-1.371-.226 2.271 2.271 0 0 1-.59-.26 1.014 1.014 0 0 1-.378-.412.491.491 0 0 1 .073-.562c.52-.619 1.705-.714 2.571-.784l.351-.03h.049c.227-.023.464-.05.693-.077a19.906 19.906 0 0 1 2.233-.171 7.527 7.527 0 0 1 .767.036 1.5 1.5 0 0 1 1 .483 1.382 1.382 0 0 1 0 1.8 1.5 1.5 0 0 1-1 .483 7.628 7.628 0 0 1-.774.037c-.368 0-.766-.021-1.252-.066a1.267 1.267 0 0 1-.025 1.142 1.172 1.172 0 0 1-.885.6 1.111 1.111 0 0 1-.138.008zM2.476 4.767a4.981 4.981 0 0 1-1.7-.238.264.264 0 0 1-.066-.479 6.8 6.8 0 0 1 2.166-.855c.17-.046.33-.089.49-.135.839-.242 1.712-.475 2.67-.712.34-.084.689-.168 1.027-.25A43.49 43.49 0 0 0 11.681.8 1.218 1.218 0 0 1 12.1.727a1.42 1.42 0 0 1 .958.4 1.572 1.572 0 0 1 .493.918 1.405 1.405 0 0 1-.262 1.067 1.517 1.517 0 0 1-.5.416 1.95 1.95 0 0 1-.663.207l-.044.005c-.978.108-1.969.263-2.927.414-.922.145-1.876.295-2.818.4-.9.1-1.783.165-2.63.188l-.628.014c-.215.007-.408.011-.603.011zm22.6-1.411c-.387 0-.776-.008-1.157-.024l-.376-.017-.4-.013a11.873 11.873 0 0 1-1.828-.148 2.321 2.321 0 0 1-1.439-.711 1.354 1.354 0 0 1-.272-.594 2.19 2.19 0 0 1 .016-.827 1.182 1.182 0 0 1 .5-.769A1.526 1.526 0 0 1 20.982 0a1.46 1.46 0 0 1 1.2.566c.259.089.6.181.9.263.171.046.333.09.465.13.608.18 1.261.373 1.923.561 1.008.287 2.014.638 2.986.977l.949.329a.113.113 0 0 1 .084.12.13.13 0 0 1-.116.114 33.075 33.075 0 0 1-4.297.296z" transform="translate(8.262 8.895)"/>
    </g>
    <g id="FACIAL_HAIR" transform="translate(78.651 82.278)">
        <path id="_Ink-4" d="M14.1 23.847a11.615 11.615 0 0 1-2.3-.226 18.9 18.9 0 0 1-3.138-.6c-1.156-.3-2.416-.7-3.645-1.147a31.853 31.853 0 0 1-3.18-1.332A5.478 5.478 0 0 1 .1 19.4a.358.358 0 0 1-.1-.285 2.5 2.5 0 0 1 .72-1.41 1.656 1.656 0 0 1 1.13-.376 7.329 7.329 0 0 1 2.046.445c.369.116.751.236 1.1.316a28.805 28.805 0 0 0 4.9.4c2.157-.47 1.766-3.852 1.618-5.126-.017-.143-.03-.256-.036-.337a3.628 3.628 0 0 1 .15-1.282 3.367 3.367 0 0 1 .672-1.254 2.423 2.423 0 0 1 1.741-.844h.12a2.02 2.02 0 0 1 1.184.378 3.037 3.037 0 0 1 .815.9 5.581 5.581 0 0 1 .714 1.966c.025.17.048.381.074.626a13.642 13.642 0 0 0 .392 2.318 2.791 2.791 0 0 0 .434.92.869.869 0 0 0 .692.372.977.977 0 0 0 .231-.029 11.045 11.045 0 0 0 2.569-1.487c.631-.43 1.227-.836 1.7-1.091a3.177 3.177 0 0 1 .856-.136 1.2 1.2 0 0 1 .973.39 1.869 1.869 0 0 1 .233 1.546 9.086 9.086 0 0 1-1.038 2.016 16.2 16.2 0 0 1-1.4 2.008 10.129 10.129 0 0 1-1.79 1.516 11.43 11.43 0 0 1-2.09 1.1 12.546 12.546 0 0 1-4.61.887zm9.766-15.982a4.173 4.173 0 0 1-1.922-.58 8.44 8.44 0 0 0-1.614-.644c-.683-.18-1.424-.337-2.141-.488a14.458 14.458 0 0 1-3.341-.944 12.582 12.582 0 0 1-4.413 1.251l-.3.047a17.06 17.06 0 0 0-2.4.632 11.718 11.718 0 0 1-3.306.713c-.1 0-.2 0-.3-.01a.19.19 0 0 1-.077.013 1.554 1.554 0 0 1-1.057-.7 1.937 1.937 0 0 1-.333-.955 3.365 3.365 0 0 1 .254-1.451 4.652 4.652 0 0 1 .944-1.485 7.2 7.2 0 0 1 1.466-1.192A12.856 12.856 0 0 1 9.12.545 17.292 17.292 0 0 1 13.044 0a5.366 5.366 0 0 1 2.168.37 5.685 5.685 0 0 1 1.873-.276 11.26 11.26 0 0 1 3.237.52A9.7 9.7 0 0 1 23.308 2.1a4.7 4.7 0 0 1 .983 1.045 6.058 6.058 0 0 1 .684 1.288 5.527 5.527 0 0 1 .338 1.321A3.116 3.116 0 0 1 25.26 6.9a1.15 1.15 0 0 1-.977.942 3.226 3.226 0 0 1-.417.023z" transform="translate(17.823 4.606)"/>
    </g>
</svg>
