<svg xmlns="http://www.w3.org/2000/svg" id="peep-91" width="118.817" height="160.93" viewBox="0 0 118.817 160.93">
    <defs>
        <style>
            .cls-1{fill:#d08b5b}
        </style>
    </defs>
    <g id="BODY" transform="translate(0 61.969)">
        <path id="_Skin" d="M108.69 78.983q-.878-4.61-1.61-9.243c-.232-1.466-.457-2.934-.66-4.4-.142-1.03-.359-2.208.4-2.97 1.061-1.074 2.024-1.992 2.154-3.53a14.94 14.94 0 0 0-.733-4.429c-.69-2.945-1.55-5.854-2.5-8.736-.965-2.927-2.022-5.827-3.1-8.722a77.855 77.855 0 0 0-3.274-8.033A24.5 24.5 0 0 0 87.508 17.9c-1.289-.606-3.919-2.769-5.266-3.253-1.238-.445-1.234.855-2.453.365a4.83 4.83 0 0 1-2.427-1.788c-.592-.949-2.078-2.277-2.3-3.383-.479-2.343.04-4.336-1.759-6.1A13.324 13.324 0 0 0 67.335.532C62.449-.734 55.933.151 52.986 4.371c-1.408 2.015-1.9 4.451-3.8 6.1-1.659 1.429-1.286 2.413-3.436 3.153-.122.042-3.42-.616-3.542-.573-2.35-.467-4.6.841-6.753 1.6a48.707 48.707 0 0 0-9.155 4.357 56.355 56.355 0 0 0-14.856 13.305 63.63 63.63 0 0 0-9.611 17.224Q1 51.77.343 54.053a4.287 4.287 0 0 0-.209 2.607 3.412 3.412 0 0 0 1.428 1.672c.866.58 2.6.957 2.57 2.124a19.068 19.068 0 0 1-.508 2.7c-.188 1.044-.343 2.094-.5 3.143-.7 4.773-1.25 9.572-1.492 14.385a115.479 115.479 0 0 0-.082 14.313 1.743 1.743 0 0 0 .285.842.186.186 0 0 0 .025.352l.395.078a1.822 1.822 0 0 0 1.007.322c.266.008.532.019.8.032 2.8.545 5.607 1.059 8.447 1.449q5.179.71 10.388 1.174a153.488 153.488 0 0 0 21.364.083q10.7-.521 21.409-.256c7.149.173 14.3.462 21.446.58 7.989.132 15.965-.071 23.931-.661a1.551 1.551 0 0 0 1.552-1.9c-1.291-6.042-2.753-12.043-3.909-18.109z" class="cls-1" transform="translate(3.776 -4.32)"/>
        <path id="_Top" fill="#ec7495" d="M35.454 1.7l.156-.056c2.109-.766 4.3-2 6.6-1.545.081-.028 1.574.255 2.6.434l-.97.941-1.712.306Q50.99 15.374 63.09 15.374T81.447 1.78l.57-.147a1.765 1.765 0 0 1 .225.065c1.347.484 3.977 2.647 5.266 3.253a24.5 24.5 0 0 1 11.859 11.014 74.684 74.684 0 0 1 3.174 7.762l.1.271c1.073 2.894 2.131 5.794 3.1 8.722.908 2.756 1.734 5.537 2.408 8.352l.091.384a14.94 14.94 0 0 1 .733 4.429 3.7 3.7 0 0 1-.423 1.443l-11.689 3.906 5.567 35.29q-7.649.3-15.312.171c-7.151-.118-14.3-.407-21.446-.58q-10.39-.251-20.761.225l-1.757.084a147.851 147.851 0 0 1-20.252-.136l-.461-.042v-5.162l2.377-28.745-12.052-2.108L.937 44.892a2.909 2.909 0 0 1-.8-1.184 3.976 3.976 0 0 1 .151-2.418l.055-.19q.657-2.281 1.49-4.515a63.63 63.63 0 0 1 9.612-17.224A56.355 56.355 0 0 1 26.3 6.056 48.708 48.708 0 0 1 35.454 1.7z" transform="translate(3.777 8.632)"/>
        <path id="_Ink" d="M23.494 95.985a1.352 1.352 0 0 1-.148-.008 1.327 1.327 0 0 1-.818-.4 1.185 1.185 0 0 1-.333-.808c-.006-1.129.1-2.283.205-3.4.044-.47.089-.957.125-1.433.1-1.33.212-2.738.364-4.565.293-3.525.618-7.106.933-10.57.181-1.99.368-4.049.548-6.078.152-1.726.329-3.6.555-5.9a33.785 33.785 0 0 1-4.845-.508 42.3 42.3 0 0 1-4.7-1.124c-1.458-.435-2.951-.952-4.563-1.582-1.36-.543-2.817-1.158-4.441-1.893-.081 1.7-.273 3.425-.458 5.093l-.029.257c-.616 5.532-1.075 10.41-1.4 14.913-.16 2.182-.294 4.512-.435 7.555-.057 1.234-.1 2.484-.14 3.716-.012.418-.023.835-.032 1.239l-.02.946a1.876 1.876 0 0 1-.625 1.591 1.5 1.5 0 0 1-.935.341 1.379 1.379 0 0 1-.906-.341 1.621 1.621 0 0 1-.549-.946A4.653 4.653 0 0 1 .8 90.992c0-.092.007-.187.01-.281.018-.7.04-1.411.065-2.124.05-1.405.115-2.834.193-4.246.255-4.6.757-9.435 1.537-14.779l.279-1.894c.251-1.7.527-3.5.888-5.305a40.448 40.448 0 0 1 1.371-5.209c-.439-.2-.9-.416-1.357-.633-.236-.111-.479-.222-.714-.33-.562-.257-1.142-.523-1.69-.815a2.369 2.369 0 0 1-1.32-1.449 3.869 3.869 0 0 1 .212-1.98c.029-.1.057-.2.083-.3l.017-.064c.182-.7.388-1.432.613-2.181a68.818 68.818 0 0 1 3.237-8.62 69.584 69.584 0 0 1 9.848-15.788A56.207 56.207 0 0 1 20 18.85c1.089-.964 2.216-1.875 3.348-2.708 1.177-.866 2.394-1.671 3.616-2.393a37.867 37.867 0 0 1 3.788-1.963 34.509 34.509 0 0 1 4.021-1.508 21.985 21.985 0 0 1 4.04-.874c.647-.067 1.342-.114 2.188-.148h.254a14.182 14.182 0 0 1 1.46.1h.005c.168.018.341.036.51.051a.067.067 0 0 1 .06.061.048.048 0 0 1-.044.051c-1.309.254-2.6.6-3.919.962l-.555.153c-1.373.378-2.844.8-4.293 1.352a39.318 39.318 0 0 0-7.959 4.164A52.862 52.862 0 0 0 14.24 27.8a64.489 64.489 0 0 0-4.684 6.982 70.67 70.67 0 0 0-3.726 7.387 67.789 67.789 0 0 0-2.981 8.324c-.19.666-.377 1.363-.556 2.072-.011.045-.031.1-.053.173-.078.237-.2.6-.1.758a1.164 1.164 0 0 0 .532.311c.074.029.143.056.2.081l.663.319c1.289.618 3.44 1.634 3.661 1.736l.337.154a64.163 64.163 0 0 0 8.535 3.278 39.711 39.711 0 0 0 4.465 1.05 31.635 31.635 0 0 0 4.588.457l.049-.492a43.291 43.291 0 0 1 1.43-8.088.114.114 0 0 1 .112-.086.144.144 0 0 1 .142.119 33.558 33.558 0 0 1 .3 4.694c0 1.513-.068 3.026-.15 4.705-.188 3.83-.422 7.721-.648 11.484-.1 1.692-.207 3.442-.307 5.163-.113 1.944-.251 3.92-.384 5.83-.057.814-.116 1.656-.172 2.492-.049.72-.09 1.457-.129 2.171-.114 2.05-.231 4.169-.549 6.211a.966.966 0 0 1-.477.658 1.622 1.622 0 0 1-.844.242zm89.063-2.222a.95.95 0 0 1-.368-.079l-.092-.039a1.627 1.627 0 0 1-1.062-.952 4.852 4.852 0 0 1-.16-.7c-.02-.113-.041-.229-.065-.34-.141-.655-.275-1.314-.4-1.958-.25-1.306-.5-2.627-.734-3.929l-.223-1.227c-.735-4.063-1.485-8.4-1.86-12.759-.17-1.979-.353-3.972-.51-5.686l-.131-1.421-.08-.852v-.005c-.143-1.512-.292-3.074-.316-4.609l-.658.217-3.212 1.055c-.2.065-.408.147-.63.233a5.436 5.436 0 0 1-1.824.479 1.89 1.89 0 0 1-.213-.012 1.684 1.684 0 0 1-.986-.393c.307 4.022.72 7.927 1.23 11.6.539 3.9 1.082 7.327 1.659 10.491.257 1.412.6 3.276.99 5.169.173.848.356 1.714.544 2.576.029.134.06.269.091.4.067.29.136.59.186.887a1.421 1.421 0 0 1-.36 1.2.929.929 0 0 1-.735.381.77.77 0 0 1-.393-.106 2.374 2.374 0 0 1-.614-.469 1.6 1.6 0 0 1-.337-.657c-.1-.351-.169-.717-.238-1.071l-.094-.47c-.2-.932-.393-1.887-.58-2.838-.4-2.046-.764-4.051-1.071-5.958-.556-3.446-1.026-7-1.4-10.562-.36-3.467-.635-7.038-.818-10.615-.17-3.324-.237-6.757-.2-10.5.018-1.95.088-3.711.216-5.383.114-1.489.332-2.979.543-4.421v-.013l.137-.946a.057.057 0 0 1 .057-.049.05.05 0 0 1 .052.049c.05.833.114 1.68.175 2.5.087 1.158.176 2.356.231 3.536s.091 2.374.126 3.532c.022.735.045 1.494.073 2.243.095 2.582.227 5.137.393 7.592a1.47 1.47 0 0 1 1.04-.441 1.359 1.359 0 0 1 .2.015 9.15 9.15 0 0 0 1.334-.413c.25-.091.485-.177.715-.249l2.431-.755c1.21-.376 2.513-.778 3.838-1.173a84.974 84.974 0 0 1-2.6-10.915l-.3-1.66c-.284-1.566-.6-3.243-.971-4.89a47.99 47.99 0 0 0-1.331-4.812 30.291 30.291 0 0 0-2.11-4.808 30.72 30.72 0 0 0-2.942-4.401 39.881 39.881 0 0 0-3.618-3.915c-1.164-1.114-2.446-2.242-4.035-3.55-1.379-1.134-2.838-2.222-4.248-3.274-1.01-.753-2.054-1.532-3.061-2.322a1.209 1.209 0 0 1 .009.415A13.409 13.409 0 0 1 82.6 14.3a14.919 14.919 0 0 1-1.124 2.418 16.4 16.4 0 0 1-1.54 2.217 17.39 17.39 0 0 1-1.892 1.96 18.327 18.327 0 0 1-6.187 3.582 20.922 20.922 0 0 1-3.49.877 22.616 22.616 0 0 1-3.618.289 23.719 23.719 0 0 1-3.7-.293 23.9 23.9 0 0 1-3.623-.869 25.391 25.391 0 0 1-4.9-2.19 25.04 25.04 0 0 1-4.311-3.153 22.2 22.2 0 0 1-3.436-3.951 18.543 18.543 0 0 1-2.27-4.582.08.08 0 0 1 .011-.078.108.108 0 0 1 .085-.037.114.114 0 0 1 .091.042l.309.392.045.058a.143.143 0 0 1 .1-.153A18.855 18.855 0 0 0 49.918 6.9a13.594 13.594 0 0 0 2.316-2.914 11.22 11.22 0 0 0 .78-1.579l.054-.141.085-.227A4.443 4.443 0 0 1 54.085.35a1.205 1.205 0 0 1 .872-.35 1.521 1.521 0 0 1 1.17.558 1 1 0 0 1 .159.983A16.769 16.769 0 0 1 54.321 5.4a13.707 13.707 0 0 1-1.383 1.687 12.922 12.922 0 0 1-1.687 1.469 14.338 14.338 0 0 1-3.416 1.865 10.979 10.979 0 0 1-3.835.712c-.266 0-.535-.011-.8-.031a.186.186 0 0 1-.06-.015l.256.323c.831 1.044 1.938 2.411 3.142 3.72a33.042 33.042 0 0 0 3.551 3.37 25.236 25.236 0 0 0 3.249 2.229 24.644 24.644 0 0 0 3.585 1.7 23.093 23.093 0 0 0 3.825 1.083 21.258 21.258 0 0 0 3.971.38 19.782 19.782 0 0 0 4.536-.523 17.1 17.1 0 0 0 3.882-1.434 16.8 16.8 0 0 0 3.387-2.293 14.884 14.884 0 0 0 2.638-3 12.559 12.559 0 0 0 1.634-3.56 1.135 1.135 0 0 1-.439.086 1.321 1.321 0 0 1-.261-.027 6.493 6.493 0 0 1-2.946-2.1 9.843 9.843 0 0 1-1.836-2.8 8.493 8.493 0 0 1-.707-3.105 6.322 6.322 0 0 1 .152-1.59 4.989 4.989 0 0 1 .591-1.471.233.233 0 0 1 .2-.119.285.285 0 0 1 .279.241l.042.344a13.139 13.139 0 0 0 1.355 4.949 10.127 10.127 0 0 0 1.561 2.158 8.869 8.869 0 0 0 1.085.96c.151.112.317.212.478.31a4.121 4.121 0 0 1 .7.5l.062.062v-.011a1.093 1.093 0 0 1 .377-.729 1.073 1.073 0 0 1 .68-.234h.044a4.13 4.13 0 0 1 1.279.312l.021.009A49.907 49.907 0 0 1 92.98 16.5a38.327 38.327 0 0 1 7.873 7.79 32.5 32.5 0 0 1 4.969 9.621 81.431 81.431 0 0 1 2.218 9.689l.007.037.136.728.4 2.149c.279 1.475.613 3.188 1.051 4.86a28.421 28.421 0 0 0 1.628 4.691 1.315 1.315 0 0 1 .051 1.118 1.386 1.386 0 0 1-.846.7c-.953.333-2 .689-3.295 1.119.39 1.554.673 3.166.947 4.726v.005c.105.6.214 1.217.327 1.82.485 2.591 1.04 5.216 1.576 7.755.417 1.97.847 4.008 1.242 6.016.233 1.183.458 2.387.675 3.552s.437 2.34.666 3.509c.136.694.282 1.416.411 2.054l.012.058c.085.42.173.855.258 1.283.08.4.157.812.23 1.207l.118.626.02.1.016.074a1.841 1.841 0 0 1 .039.9 1.94 1.94 0 0 1-.606.808l-.085.081a.658.658 0 0 1-.461.187z" transform="translate(2.759 -0.675)"/>
    </g>
    <g id="HEAD" transform="translate(32.682)">
        <path id="_Skin-2" d="M55.67 23.77a42.36 42.36 0 0 0-4.005-11.97c-4-7.883-13.147-8.968-21.349-10.593-8.094-1.1-16.666-2.089-24.638.1C1.2 2.328-.555 7.3.152 11.223a29.436 29.436 0 0 0 2.617 7.025 37.034 37.034 0 0 1 3.312 14.673c-.139 3.292-.638 7.05 3.424 8.445 3.865 1.79 4.192 6.644 9.032 9.4 1.957 3.692 7.288 4.017 11.125 4.874 2.425.432 4.878.751 7.337.956 7.121.85 12.817-1.072 16.544-6.98 2.494-3.6 4.352-7.747 3.893-12.105-.457-4.593-1.218-9.158-1.766-13.741z" class="cls-1" transform="translate(3.479 10.261)"/>
        <path id="_Ink-2" d="M42.631 66.568a20.739 20.739 0 0 1-4.593-.5 16.267 16.267 0 0 1-4.226-1.572.841.841 0 0 1-.476-1 1.041 1.041 0 0 1 .372-.528 1.084 1.084 0 0 1 .661-.224 1.2 1.2 0 0 1 .478.1 26.04 26.04 0 0 0 3.394 1.225 17.473 17.473 0 0 0 3.576.62c.431.028.867.043 1.3.043a18.983 18.983 0 0 0 5.816-.9 16.789 16.789 0 0 0 2.721-1.151 17.357 17.357 0 0 0 4.589-3.535A16.968 16.968 0 0 0 58 56.9a15.217 15.217 0 0 0 2.15-5.053 17.187 17.187 0 0 0 .369-3.393c.017-.983-.024-2.036-.133-3.415l-.012-.154c-.42-5.162-.922-9.314-1.58-13.066-.329-1.878-.755-3.785-1.266-5.668-.5-1.838-1.093-3.7-1.766-5.548a7.261 7.261 0 0 0-1.734-1.053c-1.754-.068-3.527-.1-5.271-.1-2.833 0-5.688.091-8.484.271-3.963.257-7.882.7-11.646 1.3l-.413.068c-.19.032-.389.061-.581.089a9.105 9.105 0 0 0-2.025.454 1.672 1.672 0 0 0-.765.587 2.614 2.614 0 0 0-.378.868 23.48 23.48 0 0 0-.571 4.977l-.007.158c-.032.719-.018 1.453-.005 2.162a26.9 26.9 0 0 1-.046 2.8 7.523 7.523 0 0 1-.431 2.032 4.878 4.878 0 0 1-.468.93 4.211 4.211 0 0 1-.694.817 6.438 6.438 0 0 1-1.328.862c-.2.108-.409.22-.61.34a1.237 1.237 0 0 0-.458.414.889.889 0 0 0-.1.577 5.426 5.426 0 0 0 .225.921c.249.819.506 1.665-.216 2.3a.521.521 0 0 1-.34.124.439.439 0 0 1-.316-.124 6.493 6.493 0 0 0-1.081-.815c-.133-.086-.269-.175-.4-.264a.18.18 0 0 1-.083-.211.193.193 0 0 1 .184-.125.253.253 0 0 1 .1.02c.147.061.3.129.444.195.162.073.329.148.5.217a4.361 4.361 0 0 0-1.227-.628 9.3 9.3 0 0 0-1.325-.339 4.908 4.908 0 0 0-.894-.082c-.137 0-.275.006-.41.017-.34.151-.691.292-.988.409-.382.149-.8.3-1.277.457a4.959 4.959 0 0 0-1.619 2.132 4.906 4.906 0 0 0-.27 2.632 4.7 4.7 0 0 0 .51 1.48 3.168 3.168 0 0 0 1.077 1.17 4.781 4.781 0 0 0 2.04.539 6.042 6.042 0 0 1 1.712.362 3.78 3.78 0 0 1 1.372 1.023 6.822 6.822 0 0 1 .919 1.413l.211.415a16.8 16.8 0 0 0 1.594 2.648 13.7 13.7 0 0 0 2.642 2.584 13.527 13.527 0 0 0 1.523.983l.145.08c.5.274.919.552.957 1.192a.606.606 0 0 1-.323.525 1.219 1.219 0 0 1-.636.177 3.01 3.01 0 0 1-1.488-.609l-.169-.106a16.579 16.579 0 0 1-2.071-1.512 15.352 15.352 0 0 1-1.706-1.712 14.807 14.807 0 0 1-1.4-1.94 11.086 11.086 0 0 1-.563-1.134 5.715 5.715 0 0 0-1.4-2.156 3.341 3.341 0 0 0-1.837-.543c-.119-.012-.241-.024-.36-.038a5.72 5.72 0 0 1-1.977-.539C9 48.989 8.29 45.831 8.889 43.386a6.9 6.9 0 0 1 .419-1.2 1.338 1.338 0 0 1-.2.016 1.613 1.613 0 0 1-1.26-.639 1.041 1.041 0 0 1-.148-1.047c.021-.05.045-.1.068-.145l.026-.053a3.03 3.03 0 0 1-1.344-1.709 2.533 2.533 0 0 1-.074-1.161 1.928 1.928 0 0 1-.707-.763 2.446 2.446 0 0 1-1.2-.995 1.809 1.809 0 0 1-.262-.911 1.778 1.778 0 0 1 .221-.83c-.039-.065-.077-.134-.113-.2a3.6 3.6 0 0 1-1.245-1.195 2.663 2.663 0 0 1-.129-2.641l-.038-.119a3.214 3.214 0 0 1-1.815-1.959 2.4 2.4 0 0 1 0-1.313 3.035 3.035 0 0 1 .637-1.157 2.3 2.3 0 0 1-1.073-2.672 3.248 3.248 0 0 1 .739-1.362.3.3 0 0 0-.006-.033l-.085-.062C.04 20.308-.307 19.288.271 18.2A2.8 2.8 0 0 1 1.484 17l.025-.073a3.086 3.086 0 0 1-.231-2.323 2.566 2.566 0 0 1 .488-.913 3.022 3.022 0 0 1 .792-.672 3.089 3.089 0 0 1 .03-.983 2.448 2.448 0 0 1 .89-1.484c.016-.072.037-.148.064-.232a4.083 4.083 0 0 1 .788-1.362 1.261 1.261 0 0 1 .976-.441 3.055 3.055 0 0 1 .056-.883 3.167 3.167 0 0 1 .6-1.287 2.915 2.915 0 0 1 1.158-.888 2.354 2.354 0 0 1 .917-.182c.085 0 .171 0 .257.013A2.242 2.242 0 0 1 9 4.476a2.374 2.374 0 0 1 1.058-.4 3.418 3.418 0 0 1 .444-.03 3.04 3.04 0 0 1 .416.028c.147-.064.3-.121.467-.176.105-.034.209-.066.325-.1a3.4 3.4 0 0 1 1.413-.967 2.813 2.813 0 0 1 .962-.17 2.924 2.924 0 0 1 .938.156l.187-.036a2.109 2.109 0 0 1 .579-.617 2.542 2.542 0 0 1 .9-.387 2.42 2.42 0 0 1 .542-.061 2.972 2.972 0 0 1 1.749.612h.01a2.1 2.1 0 0 1 .67-.829 1.884 1.884 0 0 1 1.105-.323h.093a2.2 2.2 0 0 1 .846.207 2.668 2.668 0 0 1 .71.486c.234-.027.463-.051.7-.076a5.905 5.905 0 0 1 .823-.745A1.181 1.181 0 0 1 24.643.8a.96.96 0 0 1 .8.429c.078.111.152.226.223.336v.006l.335-.022a2.312 2.312 0 0 1 .706-.6 2.171 2.171 0 0 1 .967-.259h.078a1.827 1.827 0 0 1 1.448.71c.278-.006.572-.012.9-.016A5.4 5.4 0 0 1 31.327.4a.946.946 0 0 1 .478-.12 1.029 1.029 0 0 1 .7.264 7.378 7.378 0 0 1 .55.6 3.077 3.077 0 0 1 1.669-.88.831.831 0 0 1 .618-.264 1.239 1.239 0 0 1 .8.322 2.932 2.932 0 0 1 .714.3 8.581 8.581 0 0 1 1.013-.051c.164 0 .338 0 .531.01a2.8 2.8 0 0 1 .394-.169A3.262 3.262 0 0 1 39.846.23a2.994 2.994 0 0 1 1.6.474 1.871 1.871 0 0 1 1.27-.485h.113A1.678 1.678 0 0 1 43.5.4a2.16 2.16 0 0 1 .522.376 1.849 1.849 0 0 1 .606-.523 2.035 2.035 0 0 1 .844-.239c.067 0 .135-.007.2-.007A3.82 3.82 0 0 1 47.9.789 2.164 2.164 0 0 1 49.492.1a2.754 2.754 0 0 1 .458-.039 2.852 2.852 0 0 1 .772.106 3.416 3.416 0 0 1 1.458.844A3.161 3.161 0 0 1 54.285.1c.057 0 .114 0 .171.006a2.876 2.876 0 0 1 1.53.579 3.245 3.245 0 0 1 1 1.245 6.559 6.559 0 0 1 1.109.532 5.353 5.353 0 0 1 .976.756l.061.062.032.033a3.091 3.091 0 0 1 .891.474 2.175 2.175 0 0 1 .8 1.163 2.5 2.5 0 0 1-.045 1.368c.035.132.067.275.1.451A2.619 2.619 0 0 1 62.836 8a2.751 2.751 0 0 1 .359 1.571 3.146 3.146 0 0 1-.157.8 3.081 3.081 0 0 1-.359.735 4.279 4.279 0 0 1-.962 1.007 2.309 2.309 0 0 1 .182 1.4 2.479 2.479 0 0 1-.641 1.27 3.518 3.518 0 0 1-.6.674 1.929 1.929 0 0 1-.115 1.339 2.25 2.25 0 0 1-.973 1.018L59.5 18l-.039.088c-.009.035-.02.069-.031.1v.009a1.737 1.737 0 0 1-.365.947 7.506 7.506 0 0 1-.523.6 3.9 3.9 0 0 0-.834 1.142l-.031.076a.832.832 0 0 1-.744.5.646.646 0 0 1-.18-.025 29.852 29.852 0 0 1 1.346 2.974c.377.967.728 2.006 1.044 3.088a57.41 57.41 0 0 1 1.419 6.324c.34 1.971.625 4.043.87 6.333l.223 2.11a54.647 54.647 0 0 1 .371 5.639 19.052 19.052 0 0 1-1 6.2 17.586 17.586 0 0 1-3.109 5.544 18.72 18.72 0 0 1-2.187 2.228 19.173 19.173 0 0 1-8.465 4.209 22.045 22.045 0 0 1-4.634.482zM13.468 19.41a.438.438 0 0 0-.427.276 1.41 1.41 0 0 0 .011 1.086 1.482 1.482 0 0 0 .815.771.614.614 0 0 0 .229.047.419.419 0 0 0 .366-.192.414.414 0 0 0 .033-.346.336.336 0 0 0-.189-.208.656.656 0 0 1-.439-.909l.013-.034a.317.317 0 0 0-.033-.322.476.476 0 0 0-.379-.169zM6.3 17.884a.451.451 0 0 0-.288.106 1.872 1.872 0 0 0-.477.562 1.114 1.114 0 0 0-.128.7 1.649 1.649 0 0 0 .943 1.127.446.446 0 0 0 .22.061.408.408 0 0 0 .259-.094.462.462 0 0 0 .15-.223.366.366 0 0 0-.19-.443l-.054-.031c-.214-.124-.437-.28-.47-.5-.037-.25.2-.448.361-.578a.327.327 0 0 0 .115-.391.489.489 0 0 0-.442-.288zm2.536-6.214a.411.411 0 0 0-.229.075 1.515 1.515 0 0 0-.79 1.139 1.607 1.607 0 0 0 .577 1.247.408.408 0 0 0 .289.125.471.471 0 0 0 .412-.27.362.362 0 0 0-.086-.428.827.827 0 0 1-.306-.63.652.652 0 0 1 .314-.463l.03-.02a.4.4 0 0 0 .166-.481.412.412 0 0 0-.377-.293zm8.071 34.676a1 1 0 0 1-.791-.371c-.12-.147-.235-.3-.346-.441a7.283 7.283 0 0 0-.95-1.08 5.39 5.39 0 0 0-.534-.4 2.521 2.521 0 0 1-.909-.868.035.035 0 0 1 .015-.051 1.319 1.319 0 0 1 .625-.144 4.075 4.075 0 0 1 1.617.479 5.207 5.207 0 0 1 2.08 1.634.7.7 0 0 1 .072.787 1.03 1.03 0 0 1-.88.455z" transform="translate(-0.869 1.62)"/>
    </g>
    <g id="FACE" transform="translate(55.777 25.111)">
        <path id="_Ink-3" d="M15.692 25.9a5.9 5.9 0 0 1-2.1-.389 6.055 6.055 0 0 1-1.37-.731 5.641 5.641 0 0 1-1.115-1.045 1.015 1.015 0 0 1-.232-.829 1.186 1.186 0 0 1 .5-.749 1.294 1.294 0 0 1 .734-.237 1.126 1.126 0 0 1 .922.478l.045.057a3.861 3.861 0 0 0 1.434 1.119 3.462 3.462 0 0 0 1.423.309 3.389 3.389 0 0 0 .353-.018 3.892 3.892 0 0 0 1.566-.512 7.244 7.244 0 0 0 1.327-1.029c.1-.09.2-.188.326-.317a.513.513 0 0 1 .271-.194.593.593 0 0 1 .176-.026.638.638 0 0 1 .2.031.589.589 0 0 1 .294.207.482.482 0 0 1 .093.335 2.918 2.918 0 0 1-.392 1.191 4.028 4.028 0 0 1-.838 1 5.415 5.415 0 0 1-1.27.823 5.393 5.393 0 0 1-2.344.528zm1.477-7.774a5.408 5.408 0 0 1-1.808-.339 9.342 9.342 0 0 1-2.126-1.121.755.755 0 0 1-.3-.439.848.848 0 0 1 .042-.493 1.123 1.123 0 0 1 .358-.481.91.91 0 0 1 .558-.2.835.835 0 0 1 .432.123l.144.1a11.567 11.567 0 0 0 1.331.86 3.458 3.458 0 0 0 1.6.473 1.837 1.837 0 0 0 .674-.123 1.89 1.89 0 0 0 .628-.413 1.694 1.694 0 0 0 .365-1.441 2.675 2.675 0 0 0-.777-1.278 5.61 5.61 0 0 0-1.176-.882.324.324 0 0 1-.1-.39.51.51 0 0 1 .181-.243.585.585 0 0 1 .347-.107.8.8 0 0 1 .125.01 4.139 4.139 0 0 1 1.387.466 3.072 3.072 0 0 1 .933.8 3.01 3.01 0 0 1 .6 2.122 3.3 3.3 0 0 1-.305 1.114 3.245 3.245 0 0 1-.688.957 3.417 3.417 0 0 1-2.425.921zM5.4 10.53a1.237 1.237 0 0 1-.77-.28 1.091 1.091 0 0 1-.4-.72 7.547 7.547 0 0 1 .046-2.113c.027-.205.056-.418.076-.647a1.245 1.245 0 0 1 .516-.9 1.666 1.666 0 0 1 .977-.319 1.268 1.268 0 0 1 .739.216 1 1 0 0 1 .408.675 5.322 5.322 0 0 1-.637 3.494 1.15 1.15 0 0 1-.425.457 1.037 1.037 0 0 1-.53.137zm17.27-.479a1.075 1.075 0 0 1-.813-.324 2.916 2.916 0 0 1-.5-.783A3.216 3.216 0 0 1 21.111 8a1.914 1.914 0 0 1 .589-1.716 1.128 1.128 0 0 1 .094-.133 1.35 1.35 0 0 1 1.021-.551 1.186 1.186 0 0 1 .31.043 1.466 1.466 0 0 1 1 .81 2.675 2.675 0 0 1 .124 1.567 4.988 4.988 0 0 1-.513 1.48 1 1 0 0 1-.442.406 1.421 1.421 0 0 1-.62.145zM.191 5.017a.191.191 0 0 1-.157-.09.184.184 0 0 1-.013-.192 6.758 6.758 0 0 1 1.607-1.89 10 10 0 0 1 2.15-1.365A9.726 9.726 0 0 1 6.331.652L6.6.608A7.129 7.129 0 0 1 7.718.5a1.794 1.794 0 0 1 1.375.472 1.037 1.037 0 0 1 .276.771.692.692 0 0 1-.276.5 2.233 2.233 0 0 1-1.452.4c-.114 0-.233 0-.347-.005-.11 0-.235-.005-.359-.005s-.216 0-.311.008a10.5 10.5 0 0 0-2.161.342 15.117 15.117 0 0 0-4.168 2 .188.188 0 0 1-.104.034zm26.3-1.022l-.115-.027a6.806 6.806 0 0 1-1.261-.457l-.415-.188a11.851 11.851 0 0 0-1.462-.579 18.384 18.384 0 0 0-3.331-.684 1.423 1.423 0 0 1-.668-.236.929.929 0 0 1-.374-.529.89.89 0 0 1 .117-.795 1.068 1.068 0 0 1 .527-.42 1.265 1.265 0 0 1 .45-.08 1.421 1.421 0 0 1 .259.024l.209.04a15.713 15.713 0 0 1 3.6 1.086 7.344 7.344 0 0 1 1.582.967 4.347 4.347 0 0 1 1.116 1.343c.039.281 0 .35-.038.4l-.012.014-.01.013a.289.289 0 0 1-.179.11z" transform="translate(7.698 7.02)"/>
    </g>
</svg>
