<svg xmlns="http://www.w3.org/2000/svg" id="peep-68" width="171.187" height="215" viewBox="0 0 171.187 215">
    <defs>
        <style>
            .cls-1{fill:#d08b5b}
        </style>
    </defs>
    <g id="BODY" transform="translate(20.575 89.618)">
        <path id="_Skin" d="M154.38 42.826c1.434-.75 2.833-1.565 4.211-2.413a.879.879 0 0 0-.884-1.517c-.509.271-1.016.544-1.524.813a8.938 8.938 0 0 0 1.1-1.132l-.023-.023a1.515 1.515 0 0 0-1.824-2.378 20.492 20.492 0 0 1-4.061 2.5 25.413 25.413 0 0 1-9.715 1.552 12.861 12.861 0 0 0-3.514.351c.457-1.837 1.6-3.224 2.207-5 .448-1.8-2.14-3.02-3.057-1.293-.225.424-.44.853-.649 1.284-1.982 1.807-5.292 1.647-7.291 3.587a6.226 6.226 0 0 0-1.916 3.766c-.149.936.083 1.875-.482 2.7-2.732 3.872-7.049 9.992-9.241 14.253-1.552-10.126-5.7-22.65-9.978-31.908a38.426 38.426 0 0 0-5.162-8.364c.241-.837-.61-2.323-1.151-1.865-1.665-2.038-4.609-2.566-6.975-3.579a13.872 13.872 0 0 1-7.149-7.448C85.631.556 81.509-.226 75.793.046c-5.47-.007-9.518 2.338-10.711 7.918-2.425 4.235-8.15 3.535-12.269 4.656a40.752 40.752 0 0 0-8.733 3.116c-3.1-2.944-14.19 9.411-15.2 12.591.594.115 1.184.254 1.768.423a.422.422 0 0 1-.223.813 16.255 16.255 0 0 0-1.972-.341c-.02.063-.038.126-.051.188l-.222-.016a2.646 2.646 0 0 1 .477.314c.373.31-.113.909-.509.662a3.1 3.1 0 0 0-1.31-.33c-.027.923-3.312-.11-3.822-.415-2.268-.284-4.6.021-6.719-1.075-2.817-.595-5.656-1.252-8.442-2.009-.737.288-1.431 1.319-.845 2.075a.423.423 0 0 1-.509.662 10.837 10.837 0 0 1-3.38-3.482c-.429-.434-1.192-.341-1.769-.521a.926.926 0 0 0-.122.452c-2.447.4-.7 3.082.529 3.916a1.993 1.993 0 0 0-.62 1.956.944.944 0 0 0-.064.833 12.026 12.026 0 0 0 2.215 2.819 18.212 18.212 0 0 0 2.6 2.678 28.031 28.031 0 0 0 13.35 5.262c1.7.262 4.154.663 5.209 2.107a50.038 50.038 0 0 1-1.165 5.026 26.13 26.13 0 0 0-.57 6.8.166.166 0 0 0-.27.075 5.864 5.864 0 0 1-.813 2.683 22.79 22.79 0 0 0-1.016 4.564c-.746 7.292-.924 14.8.758 21.978a26.037 26.037 0 0 0 3.144 7.525 1.585 1.585 0 0 0 1.738.762 12.3 12.3 0 0 0 6.915 1.149c7.617-2.161 4.963 3.042 15.643 1.449 18.434-2.353 37.064 2.271 55.459-.444.453 3.507 6.384 2.5 8.444 1.018 6.177-4.6 9.244-19.17 12.344-26.56 2.131-5.825 5.7-16.142 10.372-20.051a13.312 13.312 0 0 1 4.79-2.143c6.325-1.633 12.674-3.177 19.011-4.765 1.075-.265.882-2.1-.268-1.984-1.524.157-3.055.298-4.585.446z" class="cls-1" transform="translate(-12.072 -3.085)"/>
        <path id="_Ink" d="M107.756 95.153a.812.812 0 0 1-.606-.281c-5.681-.229-11.268-.4-16.607-.5-4.45-.086-9.061-.129-13.706-.129-5.166 0-10.56.054-16.032.16-4.8.093-9.82.228-14.936.4-.716.024-1.445.051-2.149.077h-.009c-1.7.063-3.467.129-5.2.153h-.072a6.1 6.1 0 0 1-1.081-.1 4.786 4.786 0 0 1-1.1-.329A2.528 2.528 0 0 1 35.4 94a1.528 1.528 0 0 1-.4-.923v-.046a4.581 4.581 0 0 1-.511.108.613.613 0 0 1-.093.007.568.568 0 0 1-.129-.015l-.034-.009a5.187 5.187 0 0 1-1.511.206 15.866 15.866 0 0 1-4.105-.765l-.72-.2-.155-.041a10.016 10.016 0 0 1-2.428-.928 6.581 6.581 0 0 1-1.967-1.69 11.424 11.424 0 0 1-1.3-2.1 15.535 15.535 0 0 1-.889-2.323 27.94 27.94 0 0 1-.925-4.883 36.845 36.845 0 0 1 .055-9.13 35.449 35.449 0 0 1 .273-7.449c.146-1.286.306-2.471.491-3.623.108-.671.248-1.329.393-2l.056-.272c.036-.182.074-.37.122-.553l.033-.118a.988.988 0 0 1-.128.008 1.208 1.208 0 0 1-.578-.158 1.3 1.3 0 0 1-.575-.66 2.392 2.392 0 0 1-.161-.877 41.809 41.809 0 0 1 .334-5.083v-.027l.038-.359c.2-1.851.467-3.658.8-5.37l.089-.457a20.408 20.408 0 0 1 1.085-3.941 43.091 43.091 0 0 1-5.86-1.3 17.827 17.827 0 0 1-2.735-1.123 5.813 5.813 0 0 1-.97-.238l-.295-.089c-.631-.185-1.262-.4-1.876-.652a21.8 21.8 0 0 1-3.652-1.847 17.366 17.366 0 0 1-2.608-2.035 15.333 15.333 0 0 1-2.142-2.519L2.34 30.4a9.97 9.97 0 0 1-.886-1.655 3.129 3.129 0 0 1-.283-1.841 1.231 1.231 0 0 1 .619-.809 5.826 5.826 0 0 1-1.267-1.54 4.511 4.511 0 0 1-.4-.9A2.594 2.594 0 0 1 0 22.79a1.252 1.252 0 0 1 .484-1 1.7 1.7 0 0 1 1.027-.3 2.682 2.682 0 0 1 1.439.424 7.484 7.484 0 0 1 1.564 1.574l.043.053c.506.624 1.062 1.243 1.7 1.892.159.162.32.32.478.471l.163.153c-.026-.061-.048-.123-.067-.185a2.581 2.581 0 0 1 .036-1.618 2.039 2.039 0 0 1 1.047-1.2 1.633 1.633 0 0 1 .7-.149 3.271 3.271 0 0 1 1.182.28l.093.038a22.288 22.288 0 0 0 2.487.877 30.943 30.943 0 0 0 3.752.788c1.264.193 2.557.337 3.809.476 1 .111 2.035.226 3.047.365a36.134 36.134 0 0 1 4.112.778 13.006 13.006 0 0 1 1.26-3.2 19.984 19.984 0 0 1 1.9-2.852 25.307 25.307 0 0 1 2.664-2.865 27.626 27.626 0 0 1 3-2.4 32.167 32.167 0 0 1 3.283-1.983c1.093-.576 2.271-1.122 3.5-1.623A55.871 55.871 0 0 1 50.125 9.2c2.183-.552 4.584-1.056 7.555-1.587a.976.976 0 0 1 .17-.015 1.919 1.919 0 0 1 1.017.408l.092.061h.007a1.533 1.533 0 0 0 .724.342.362.362 0 0 0 .176-.044 10.4 10.4 0 0 0 2.654-2.13 30.234 30.234 0 0 0 3.038-4.1c.371-.566.755-1.151 1.151-1.719A.94.94 0 0 1 67.494 0 1.035 1.035 0 0 1 68 .135a.948.948 0 0 1 .364.357.841.841 0 0 1-.044.874l-.309.511c-.576.948-1.269 2.06-2.043 3.111a17.659 17.659 0 0 1-2.456 2.759 10.72 10.72 0 0 1-1.539 1.147 8.995 8.995 0 0 1-1.734.819A7.283 7.283 0 0 1 58 10.13a3.493 3.493 0 0 1-1.017-.138l-.122-.178.122.178a43.873 43.873 0 0 0 4.435 5.4c1.434 1.5 3.047 3.034 5.077 4.815a137.024 137.024 0 0 0 11.229 8.621l.321.227a53.755 53.755 0 0 0 8.607-7.855 52.285 52.285 0 0 0 6.689-9.544 5.473 5.473 0 0 1-1.931-.8h-.007l-.279-.159a7.283 7.283 0 0 1-2.144-1.708 4.363 4.363 0 0 1-.6-.968 5.545 5.545 0 0 1-.35-1.047 14.7 14.7 0 0 1-.282-2.226c-.031-.407-.063-.828-.112-1.236a.1.1 0 0 1 .022-.078.135.135 0 0 1 .1-.04.143.143 0 0 1 .09.029 4.23 4.23 0 0 1 1.111 2l.116.338a4.948 4.948 0 0 0 1.412 2.272 10.335 10.335 0 0 0 2.321 1.408c.126.06.408.15.735.254a5.31 5.31 0 0 1 1.984.874 9.02 9.02 0 0 1 2.062-.24 9.93 9.93 0 0 1 4.078.91 13.247 13.247 0 0 1 3.558 2.39 23.64 23.64 0 0 1 3.383 3.988 49.607 49.607 0 0 1 2.708 4.49 71.123 71.123 0 0 1 4.465 10.088c.652 1.815 1.21 3.614 1.659 5.346a50.824 50.824 0 0 1 1.11 5.485c.41 2.845.706 5.94.9 9.463l.022.4c2.559-4.025 5.29-8.178 8.115-12.343a3.815 3.815 0 0 1-.055-2.492 5.894 5.894 0 0 1 1.3-2.2 7.816 7.816 0 0 1 1.946-1.516 23.674 23.674 0 0 1 2.229-1.074c.217-.1.441-.194.66-.292l.227-.1a11.42 11.42 0 0 0 2.379-1.368 8.5 8.5 0 0 0 .865-.833 7.051 7.051 0 0 1 1.062-.98 2.479 2.479 0 0 1 1.388-.423 1.818 1.818 0 0 1 1.121.346 1.291 1.291 0 0 1 .367.452 1.592 1.592 0 0 1 .152.656 4.34 4.34 0 0 1-.211 1.359 11.615 11.615 0 0 1-.49 1.292 9.516 9.516 0 0 1-.688 1.288 11.049 11.049 0 0 1-.866 1.175.445.445 0 0 1-.093.084l-.024.015a22.159 22.159 0 0 0 2.643.3c.341.016.685.024 1.024.024a20.742 20.742 0 0 0 4.37-.456 19.429 19.429 0 0 0 5.187-1.907c.327-.177.652-.37.968-.556.512-.3 1.042-.615 1.583-.867a6.112 6.112 0 0 1 1.706-.537c.138-.021.283-.036.444-.045h.017a.429.429 0 0 1 .338.2.36.36 0 0 1 .05.337c-.058.146-.115.28-.175.411a9.705 9.705 0 0 1-1.027 1.749 8.936 8.936 0 0 1-1.4 1.511l-.081.068c.374-.13.74-.275 1.088-.432.757-.342 1.5-.753 2.221-1.151a17.415 17.415 0 0 1 4.03-1.8c.095-.025.2-.05.322-.077a.831.831 0 0 1 .175-.019.629.629 0 0 1 .58.359.743.743 0 0 1-.1.787c-.076.1-.14.177-.2.25a25.672 25.672 0 0 1-3.331 3.447c-.419.356-.852.7-1.289 1.031 1.31-.4 2.677-.889 4.063-1.461a.632.632 0 0 1 .241-.05.677.677 0 0 1 .511.265 1.094 1.094 0 0 1 .241.543 1.894 1.894 0 0 1-.158 1.017 3.153 3.153 0 0 1-.607.873 9.885 9.885 0 0 1-1.7 1.332l-.045.03a15.783 15.783 0 0 1-3.443 1.689 35.221 35.221 0 0 1-7.164 1.558l-1.177.164c-1.124.157-2.32.33-3.507.556a27.1 27.1 0 0 0-3.423.86 15.838 15.838 0 0 0-3.176 1.418 12.692 12.692 0 0 0-1.445 1 12 12 0 0 0-1.322 1.234 18.972 18.972 0 0 0-2.419 3.358c-.71 1.223-1.325 2.5-1.884 3.7-1.007 2.16-1.976 4.506-3.142 7.606-.7 1.86-1.349 3.776-1.976 5.628-.268.792-.545 1.612-.823 2.417-.854 2.473-1.881 4.928-2.874 7.3l-.159.381a68.056 68.056 0 0 1-3.591 7.42c-.691 1.218-1.421 2.39-2.168 3.484-.788 1.155-1.626 2.266-2.489 3.3a.6.6 0 0 1-.461.241.61.61 0 0 1-.354-.121.821.821 0 0 1-.257-.307.787.787 0 0 1-.081-.4.742.742 0 0 1 .16-.411 43.207 43.207 0 0 0 2.59-3.754c.763-1.238 1.513-2.582 2.229-4 .66-1.3 1.292-2.664 1.932-4.156.562-1.312 1.118-2.7 1.7-4.233.552-1.461 1.062-2.967 1.554-4.424.375-1.109.763-2.256 1.167-3.375l.556-1.538c.706-1.95 1.471-4.042 2.274-6.132a81.427 81.427 0 0 1 3.321-7.576l.132-.259a31.077 31.077 0 0 1 2.039-3.47 17.1 17.1 0 0 1 2.619-3.038 13.6 13.6 0 0 1 1.4-1.1 14.676 14.676 0 0 1 1.493-.9 18.3 18.3 0 0 1 3.209-1.294 43.42 43.42 0 0 1 6.87-1.33l1.451-.192a43.5 43.5 0 0 0 5.8-1.069 15.525 15.525 0 0 0 3.169-1.215 12.966 12.966 0 0 0 1.169-.694 32.178 32.178 0 0 1-3.284.78c-.534.1-1.079.174-1.621.226-.741.074-1.5.109-2.335.109-.572 0-1.174-.017-1.84-.052a.122.122 0 0 1-.11-.117.093.093 0 0 1 .08-.1c.883-.157 1.823-.359 2.96-.635l.3-.072a.851.851 0 0 1 .2-.5 4.2 4.2 0 0 1 1.344-.923 8.226 8.226 0 0 0 .722-.4 22.791 22.791 0 0 0 1.955-1.429c.556-.455 1.111-.952 1.647-1.477l.015-.015-.007.007-.007.007c-.517.239-1.032.507-1.531.766a21.291 21.291 0 0 1-2.733 1.26 14.571 14.571 0 0 1-3.674.8l-.078.006-.078.005c-.381.027-.767.044-1.141.06a16.009 16.009 0 0 0-2.765.28.143.143 0 0 1-.031 0 .1.1 0 0 1-.1-.085.119.119 0 0 1 .074-.135 14.628 14.628 0 0 1 3.1-.8h.009l.37-.068a.356.356 0 0 1 .2-.229l.3-.145a9.4 9.4 0 0 0 2.487-1.573 7.9 7.9 0 0 0 1.624-2.153 10.14 10.14 0 0 0-2.973 1.4 17.593 17.593 0 0 1-1.634.92 20.478 20.478 0 0 1-5.151 1.637l-.2.035a22.021 22.021 0 0 1-3.616.309 16.483 16.483 0 0 1-3.5-.353 11.009 11.009 0 0 1-3.2-1.2.082.082 0 0 1-.043-.1.1.1 0 0 1 .1-.074h.016c.5.083 1.01.175 1.5.265h.007c.332.061.675.124 1.012.182a.494.494 0 0 1-.156-.293.424.424 0 0 1 .108-.342 9.016 9.016 0 0 0 1.726-2.93l.073-.211.024-.068a5.32 5.32 0 0 0 .246-.856 1.091 1.091 0 0 0-.1-.8.841.841 0 0 0-.735-.356 1.632 1.632 0 0 0-.645.138 4.449 4.449 0 0 0-1.345 1.14 7.34 7.34 0 0 1-.771.769 12.17 12.17 0 0 1-2.56 1.511l-.191.087c-.247.111-.5.222-.746.328a11.379 11.379 0 0 0-3.712 2.211 6.127 6.127 0 0 0-.886 1.118 4.144 4.144 0 0 0-.533 1.319 2.8 2.8 0 0 0 .028 1.3 2.3 2.3 0 0 0 .1.272.8.8 0 0 1 .074.6 3.608 3.608 0 0 1-.6.937c-.115.146-.223.284-.307.409-.3.45-.609.907-.9 1.349-.507.76-1.02 1.535-1.517 2.285l-.009.014-.27.407c-1.146 1.731-2.307 3.511-3.551 5.442-.382.593-.766 1.192-1.141 1.78l-.568.891-.244.383-.056.087-.045.07-.232.366-.235.37a.4.4 0 0 1-.007.222 1.011 1.011 0 0 1-.454.543l-.036.021c-1.842 2.917-3.695 5.893-5.487 8.771l-.014.023c-1.111 1.784-2.259 3.628-3.393 5.44-.177 1.62-.319 3.041-.435 4.345-.314 3.519-.5 6.744-.557 9.858-.022 1.163.04 2.35.1 3.5v.006c.022.422.045.858.064 1.286.034.771.081 1.537.14 2.277l.044.538a4.931 4.931 0 0 1-.173 2.177.9.9 0 0 1-.318.422.779.779 0 0 1-.456.141zM24.82 40.24a3.351 3.351 0 0 1 1.531.417 3.087 3.087 0 0 1 1.044.951.957.957 0 0 1 .3.54 3.6 3.6 0 0 1 .267.975.576.576 0 0 1-.12.464 25.237 25.237 0 0 1-.51 6.564 58.36 58.36 0 0 1-1.728 6.4l-.133.413-.085.262c-.266.819-.544 1.648-.812 2.449-.6 1.779-1.21 3.618-1.74 5.448a46.279 46.279 0 0 0-1.285 5.567 34.382 34.382 0 0 0-.116 9.391l.026.214a26.43 26.43 0 0 0 .889 4.509 14.848 14.848 0 0 0 .828 2.154 10.468 10.468 0 0 0 1.19 1.926 5.4 5.4 0 0 0 1.574 1.371 8.028 8.028 0 0 0 1.94.758l.079.021c.362.1.735.2 1.1.31a17.234 17.234 0 0 0 2.89.667 4.105 4.105 0 0 0 .444.024 7.318 7.318 0 0 0 2.7-.682l.27-.105a11.288 11.288 0 0 0 2.7-3.741 24.969 24.969 0 0 0 1.524-4.479A47.022 47.022 0 0 0 40.71 77a55.865 55.865 0 0 0 .395-6.089 78.738 78.738 0 0 0-.89-12.2c-.6-4.178-1.43-8.389-2.231-12.461l-.025-.129c-.123-.624-.25-1.257-.374-1.87-.29-1.441-.591-2.931-.849-4.4l-.219-1.235c-.108-.613-.232-1.338-.337-2.062-.128-.885-.17-1.74-.215-2.646l-.006-.126a13.191 13.191 0 0 0-4.675-4.534 17.292 17.292 0 0 0-4.291-1.748 46.863 46.863 0 0 0-7.363-1.157c-1.927-.2-3.92-.4-5.808-.794a25.881 25.881 0 0 1-4.167-1.264l-.186-.072a2.364 2.364 0 0 0-.805-.194.788.788 0 0 0-.769.553 1.372 1.372 0 0 0-.086.789 1.743 1.743 0 0 0 .328.726 4.271 4.271 0 0 0 1.646 1.23 15.639 15.639 0 0 0 1.964.723l.068.022a18.218 18.218 0 0 0 2.26.561c.231.042.466.075.693.107a7.51 7.51 0 0 1 1.572.338.37.37 0 0 1 .233.365.286.286 0 0 1-.233.269 3.9 3.9 0 0 1-.9.1 9.831 9.831 0 0 1-1.867-.244h-.023a19.461 19.461 0 0 1-2.985-.846c-.21-.078-.386-.144-.553-.21l-.142-.056c.135.1.28.2.442.317a.05.05 0 0 1 .017.057.04.04 0 0 1-.038.03h-.016a14.042 14.042 0 0 1-3.237-1.75A16.337 16.337 0 0 1 4.3 24.625l-.08-.091c-.087-.1-.188-.227-.306-.376A10.439 10.439 0 0 0 2.895 23a1.911 1.911 0 0 0-1.219-.633.879.879 0 0 0-.4.1.53.53 0 0 0-.3.375 1.154 1.154 0 0 0 .092.629 4.18 4.18 0 0 0 .394.742 15.132 15.132 0 0 0 1.05 1.383l.147.179.077.1a2.7 2.7 0 0 1 1.062.282 9.173 9.173 0 0 1 .965.546l.065.041a31.761 31.761 0 0 0 3.295 1.755c1.033.487 2.113.914 3.157 1.327 1.223.484 2.487.985 3.684 1.583a.023.023 0 0 1 .013.026.032.032 0 0 1-.03.023 27.409 27.409 0 0 1-4.174-1.034l-.061-.019-.061-.02c-.8-.264-1.626-.57-2.521-.935a26.311 26.311 0 0 1-2.69-1.276c-.234-.128-.471-.283-.722-.448a4.728 4.728 0 0 0-1.859-.877 1.317 1.317 0 0 0-.167-.011h-.093a.5.5 0 0 0-.433.252c-.294.558.4 1.849.545 2.1a12.6 12.6 0 0 0 1.724 2.37 16.769 16.769 0 0 0 4.749 3.534c.563.288 1.167.559 1.848.83-.105-.093-.209-.191-.288-.265A10.585 10.585 0 0 1 9.691 34.5a9.229 9.229 0 0 1-.857-1.3l-.129-.247a4.182 4.182 0 0 1-.479-1.3 1.246 1.246 0 0 1 .067-.632 1.067 1.067 0 0 1 .461-.509 1.689 1.689 0 0 1 .877-.226 3.216 3.216 0 0 1 .99.178l.1.034.02.007c.237.083.5.191.791.328a15.835 15.835 0 0 1 2.156 1.285c.254.17.516.346.777.513a9.9 9.9 0 0 0 1.583.831 9.517 9.517 0 0 0 1.7.517l.114.023.347.067a4.5 4.5 0 0 1 2.813 1.231.382.382 0 0 1 .046.4.289.289 0 0 1-.262.179.342.342 0 0 1-.11-.019c-.767-.259-1.56-.45-2.328-.635-.708-.17-1.44-.347-2.142-.575a9.691 9.691 0 0 1-2.037-.905c-.35-.212-.7-.44-1.035-.661-.462-.3-.94-.617-1.432-.892a7.1 7.1 0 0 0-1.412-.625l-.271-.08a1.33 1.33 0 0 0-.35-.065.373.373 0 0 0-.125.019.24.24 0 0 0-.15.106c-.032.067 0 .154.037.265l.023.067.007.023a9.28 9.28 0 0 0 3.825 4.366c.343.224.711.44 1.095.644a20.792 20.792 0 0 0 3.388 1.4c1.166.379 2.38.7 3.553 1h.006c.381.1.775.2 1.162.307.016 0 1.61.451 2.132.616.058.007.117.005.178.005zm92.226 16.5l-.083.022h-.006c-.56.157-1.134.3-1.688.438l-.694.174a21.812 21.812 0 0 0-4 1.335c-.232 2.941-.568 5.922-.892 8.805-.046.411-.1.876-.149 1.33l-.075.675c.64-1.189 1.226-2.237 1.793-3.2 1.867-3.177 3.816-6.4 5.794-9.579zm-94.909.335a5.822 5.822 0 0 1-.079.866c-.017.119-.033.23-.045.341-.035.3-.066.6-.1.9-.034.324-.069.66-.108.989-.164 1.368-.286 2.609-.374 3.794-.062.827-.1 1.658-.134 2.433.667-2.5 1.529-4.988 2.363-7.4v-.01c.157-.454.32-.923.478-1.385a3.434 3.434 0 0 1-.514-.105l-.3-.08-.06-.015c-.209-.053-.717-.182-1.127-.328zm135.271-18.109l-.063.045zm.414-.3l-.118.087zm-38.875 16.583l.011-.017.011-.018.232-.366.077-.121.024-.037.244-.383.006.133a.8.8 0 0 1-.166.555.749.749 0 0 1-.438.252zm-86.41-21.292a2.677 2.677 0 0 1-1.226-.5 4.66 4.66 0 0 0-.653-.35 9.124 9.124 0 0 0-5-.485 8.9 8.9 0 0 0-1.605.453.072.072 0 0 1-.026.005.077.077 0 0 1-.07-.062.074.074 0 0 1 .034-.086 8.749 8.749 0 0 1 1.957-.782 8.162 8.162 0 0 1 2.077-.27c.237 0 .478.011.714.032a8.722 8.722 0 0 1 2.435.561l.075.03.126.048a5.465 5.465 0 0 1 .89.4 1.24 1.24 0 0 1 .6.671.236.236 0 0 1-.03.207.3.3 0 0 1-.224.127z" transform="translate(-12.457 0.736)"/>
    </g>
    <g id="HEAD" transform="translate(52.067 25.245)">
        <path id="_Skin-2" d="M25.928 0c7.93 0 18.172 5 19.04 10.111 1.032 6.03 6.537 29.165 5.294 36.584s-7.947 12.76-18.674 12.76-18.732-5.874-20.571-7.891-5.245-9.217-5.245-9.217S.029 41.58 0 36.879a7.008 7.008 0 0 1 3.734-6.411S2.395 11.916 5.772 7.086 18 0 25.928 0z" class="cls-1" transform="translate(7.878 10.555)"/>
        <path id="_Ink-2" d="M32.523 64.665c-.527 0-1.057-.019-1.575-.056a23.266 23.266 0 0 1-3.215-.454l-.117-.025a6.2 6.2 0 0 1-1.476-.466 2.542 2.542 0 0 1-1.1-1.048.679.679 0 0 1-.04-.524.474.474 0 0 1 .254-.294 2.97 2.97 0 0 1 1.235-.3 3.163 3.163 0 0 1 .36.022 9.5 9.5 0 0 1 1.088.212c.214.051.436.1.655.144a20.524 20.524 0 0 0 3.369.344c.164 0 .33.005.494.005a20.288 20.288 0 0 0 6.072-.9 22.063 22.063 0 0 0 2.719-1.054 19.71 19.71 0 0 0 2.588-1.449A14.485 14.485 0 0 0 48 54.726a9.3 9.3 0 0 0 .736-1.368 9.83 9.83 0 0 0 .489-1.423 12.546 12.546 0 0 0 .383-2.963A34.639 34.639 0 0 0 49 42.9v-.006l-.149-.933-.02-.129c-.791-5.114-1.421-9.255-1.982-13.032l-.275-1.863c-.146-.99-.289-1.922-.428-2.823a88.566 88.566 0 0 1-1.187-10.584.082.082 0 0 1 .021-.062.1.1 0 0 1 .159.037C46 16.358 46.686 18.87 47.3 21.41c.589 2.431 1.134 4.977 1.713 8.013l.328 1.712.14.728c.817 4.254 1.661 8.653 2.369 13l.044.274a29.491 29.491 0 0 1 .377 3.574 15.492 15.492 0 0 1-.256 3.578 10.9 10.9 0 0 1-1.177 3.169 13.163 13.163 0 0 1-2.015 2.719 19.452 19.452 0 0 1-5.246 3.836 23.732 23.732 0 0 1-3.013 1.277 25.614 25.614 0 0 1-3.13.862 24.119 24.119 0 0 1-4.911.513zM14.7 58.463a2.07 2.07 0 0 1-.842-.194 4.327 4.327 0 0 1-.761-.448l-.039-.028a18.044 18.044 0 0 1-3.285-3 16.447 16.447 0 0 1-2.334-3.646 17.518 17.518 0 0 1-1.319-4.122 1.5 1.5 0 0 1-.641.733A2.061 2.061 0 0 1 4.455 48a3.623 3.623 0 0 1-.612-.056 3.8 3.8 0 0 1-1.5-.613 4.389 4.389 0 0 1-1.15-1.154 7.258 7.258 0 0 1-1.036-3.2A12.758 12.758 0 0 1 .08 39.62a7.161 7.161 0 0 1 .681-2.311 4.558 4.558 0 0 1 1.5-1.766 11.765 11.765 0 0 1-.933-3.363 21.514 21.514 0 0 1-.147-3.516 63.008 63.008 0 0 1 .719-6.872c.083-.586.168-1.192.247-1.784l1.084-8.122.044-.327c.117-.856.266-1.865.477-2.857a17.293 17.293 0 0 1 .815-2.774A11.09 11.09 0 0 1 5.919 3.44a8.02 8.02 0 0 1 2.029-1.956 7.707 7.707 0 0 1 1.4-.727A9.621 9.621 0 0 1 10.855.3 14.7 14.7 0 0 1 14 0H14.434c1.829.028 8.713.187 14.245.315 2.748.064 5.344.124 6.877.157l1.1.023c.739.014 1.879.029 2.98.043C40.7.556 41.8.57 42.541.583h.087l.7.012c.5.008 1.015.016 1.522.032h.108a2.085 2.085 0 0 1 1.45.5.958.958 0 0 1 .287.791v.038l1.1.1a1.026 1.026 0 0 1 .814.48 1.024 1.024 0 0 1 .03.938l-.015.033a21.037 21.037 0 0 0-.9 3.952c-.117.687-.219 1.28-.309 1.671a16.114 16.114 0 0 0-.337 1.938l-.023.231a2.69 2.69 0 0 1-.324 1.249 1.431 1.431 0 0 1-.553.5 1.522 1.522 0 0 1-.7.173 1.13 1.13 0 0 1-.754-.263 1.092 1.092 0 0 1-.343-.821.93.93 0 0 1 0-.126c-1.881-.083-4.073-.127-6.338-.127-2.952 0-5.84.076-8.133.214a80.791 80.791 0 0 0-11.939 1.625c-1 .212-2 .446-2.975.694-.2.05-.406.1-.625.142a6.229 6.229 0 0 0-1.9.623 1.46 1.46 0 0 0-.69.98 3.954 3.954 0 0 0-.017 1.242c.051.487.122.572.211.68a1.267 1.267 0 0 1 .264.567l.014.052a15.947 15.947 0 0 0 .892 2.588c.046.1.1.2.148.3a1.682 1.682 0 0 1 .282 1.176 1.971 1.971 0 0 1-.538.85 3.036 3.036 0 0 1-1.615.666 4.474 4.474 0 0 0-1.022.287 1.569 1.569 0 0 0-.771.735 6.72 6.72 0 0 0-.622 2.179c-.106.777-.136 1.593-.163 2.314l-.013.339v.091a29.8 29.8 0 0 0 .038 3.193c.016.243.044.488.072.726a9.5 9.5 0 0 1 .083 1.074 3.118 3.118 0 0 1-.164 1.056.865.865 0 0 1-.3.419.744.744 0 0 1-.437.14.873.873 0 0 1-.7-.37c-.044-.059-.087-.122-.131-.193l-.04-.065c.036.057.072.119.11.189a.073.073 0 0 1 0 .073.076.076 0 0 1-.063.038.065.065 0 0 1-.048-.022 2.232 2.232 0 0 0-.772-.556 2.192 2.192 0 0 0-.864-.171 2.882 2.882 0 0 0-.942.168 3.862 3.862 0 0 0-.894.453 3.362 3.362 0 0 0-1.195 1.532 5.732 5.732 0 0 0-.407 1.928 13.073 13.073 0 0 0 .08 2.239 7.669 7.669 0 0 0 .571 2.159 3.083 3.083 0 0 0 .468.768 1.729 1.729 0 0 0 .723.51 2.024 2.024 0 0 0 .6.093c.064 0 .129.007.2.012a2.644 2.644 0 0 1 .381.079 2.168 2.168 0 0 0 .475.078h.086a.614.614 0 0 1 .556.744l-.008.023-.017.049a.148.148 0 0 1 .038.05 21.8 21.8 0 0 0 1.858 3.1 32.088 32.088 0 0 0 2.268 2.815 23.352 23.352 0 0 0 2.634 2.489 12.209 12.209 0 0 0 1.46 1.059 2.147 2.147 0 0 0 .518.222c.038.011.08.019.12.028a1.368 1.368 0 0 1 .158.039l.09.031h.015a.656.656 0 0 1 .344.145.686.686 0 0 1 .215.324 1.133 1.133 0 0 1-.068.9 1.278 1.278 0 0 1-.8.608 1.634 1.634 0 0 1-.442.059zM6.992 43.221a.976.976 0 0 1-.986-.763l-.012-.047a3.036 3.036 0 0 0-.942-1.521 3.063 3.063 0 0 0-1.609-.775A.139.139 0 0 1 3.33 40a.089.089 0 0 1 .056-.1 3.359 3.359 0 0 1 3.319.176 4.085 4.085 0 0 1 1.37 1.448 1.2 1.2 0 0 1 .171.582.949.949 0 0 1-.13.491 1.21 1.21 0 0 1-.479.452 1.385 1.385 0 0 1-.645.172z" transform="translate(7.402 6.311)"/>
    </g>
    <g id="FACE" transform="translate(74.321 51.331)">
        <path id="_Ink-3" d="M15.121 26.9a5.322 5.322 0 0 1-2.022-.4 5.709 5.709 0 0 1-1.32-.76 5.627 5.627 0 0 1-1.079-1.089 1.114 1.114 0 0 1-.224-.861 1.242 1.242 0 0 1 .482-.778 1.186 1.186 0 0 1 .707-.247 1.024 1.024 0 0 1 .158.012 1.092 1.092 0 0 1 .731.484l.043.06a3.774 3.774 0 0 0 1.382 1.162 3.133 3.133 0 0 0 1.371.321 3.032 3.032 0 0 0 .34-.019 3.566 3.566 0 0 0 1.509-.532 7.07 7.07 0 0 0 1.278-1.069c.092-.094.188-.2.314-.329a.5.5 0 0 1 .261-.2.533.533 0 0 1 .17-.027.577.577 0 0 1 .473.247.529.529 0 0 1 .089.348 3.2 3.2 0 0 1-.378 1.237 4.127 4.127 0 0 1-.806 1.04 5.2 5.2 0 0 1-1.224.855 5.089 5.089 0 0 1-1.358.467 4.993 4.993 0 0 1-.897.078zm1.423-8.076a4.878 4.878 0 0 1-1.742-.352 8.8 8.8 0 0 1-2.049-1.165.789.789 0 0 1-.286-.456.946.946 0 0 1 .041-.512 1.164 1.164 0 0 1 .345-.5.839.839 0 0 1 .538-.21.762.762 0 0 1 .416.128l.139.107a11.093 11.093 0 0 0 1.283.894 3.155 3.155 0 0 0 1.537.491 1.657 1.657 0 0 0 .65-.128 1.815 1.815 0 0 0 .6-.429 1.862 1.862 0 0 0 .352-1.5 2.828 2.828 0 0 0-.749-1.327 5.461 5.461 0 0 0-1.134-.917.353.353 0 0 1-.1-.4.528.528 0 0 1 .175-.252.535.535 0 0 1 .335-.111.711.711 0 0 1 .12.011 3.8 3.8 0 0 1 1.337.484 3.034 3.034 0 0 1 .9.831 3.3 3.3 0 0 1 .574 2.2 3.638 3.638 0 0 1-.294 1.157 3.376 3.376 0 0 1-.663.994 3.163 3.163 0 0 1-2.325.963zM5.207 10.939a1.141 1.141 0 0 1-.742-.291 1.158 1.158 0 0 1-.389-.748 8.445 8.445 0 0 1 .045-2.2c.026-.213.054-.434.073-.672a1.314 1.314 0 0 1 .5-.939 1.529 1.529 0 0 1 .942-.332 1.159 1.159 0 0 1 .712.224 1.058 1.058 0 0 1 .393.7 5.9 5.9 0 0 1-.614 3.629 1.164 1.164 0 0 1-.41.475.944.944 0 0 1-.51.154zm16.642-.5a1 1 0 0 1-.784-.336 3.069 3.069 0 0 1-.478-.813 3.549 3.549 0 0 1-.244-.98 2.08 2.08 0 0 1 .565-1.783A1.176 1.176 0 0 1 21 6.39a1.28 1.28 0 0 1 .985-.568 1.065 1.065 0 0 1 .3.044 1.442 1.442 0 0 1 .963.842 2.982 2.982 0 0 1 .119 1.628 5.457 5.457 0 0 1-.493 1.536 1 1 0 0 1-.426.421 1.288 1.288 0 0 1-.599.148zM.184 5.212a.181.181 0 0 1-.151-.093.2.2 0 0 1-.012-.2 6.916 6.916 0 0 1 1.548-1.963 9.57 9.57 0 0 1 2.072-1.418A8.9 8.9 0 0 1 6.1.677l.264-.046A6.39 6.39 0 0 1 7.437.515a1.657 1.657 0 0 1 1.325.5 1.129 1.129 0 0 1 .266.8.734.734 0 0 1-.266.524 2.038 2.038 0 0 1-1.4.411c-.11 0-.224 0-.335-.006-.106 0-.226-.006-.345-.006s-.208 0-.3.008A9.443 9.443 0 0 0 4.3 3.1 14.14 14.14 0 0 0 .281 5.18a.172.172 0 0 1-.097.032zm25.339-1.063l-.111-.028a6.26 6.26 0 0 1-1.212-.474l-.4-.195a10.946 10.946 0 0 0-1.409-.6 16.6 16.6 0 0 0-3.21-.71 1.31 1.31 0 0 1-.641-.242.967.967 0 0 1-.36-.55.985.985 0 0 1 .111-.824A1.048 1.048 0 0 1 18.8.083 1.141 1.141 0 0 1 19.232 0a1.274 1.274 0 0 1 .25.025l.2.041a14.344 14.344 0 0 1 3.468 1.129 7.008 7.008 0 0 1 1.525 1 4.458 4.458 0 0 1 1.078 1.4c.038.291 0 .364-.036.413l-.011.014-.01.013a.279.279 0 0 1-.172.115z" transform="translate(7.418 7.293)"/>
    </g>
</svg>
