<svg xmlns="http://www.w3.org/2000/svg" id="peep-43" width="162" height="219" viewBox="0 0 162 219">
    <defs>
        <style>
            .cls-1{fill:#d08b5b}
        </style>
    </defs>
    <g id="BODY" transform="translate(20.963 91.286)">
        <path id="_Skin" d="M98.215 46.847c-.448-1.232.206-2.461.569-3.654 1.289-4.134-2.237-14.563-4.7-14.715-.9-2.338-3.309-3.307-5.2-4.654-2.15-1.344-4.242-2.888-6.478-4.067a1.3 1.3 0 0 0-2.3-.593c-2.264-1.411-4.979-1.149-7.405-2.073-1.844-2.986-1.982-6.125-2.471-9.006-.213-1.256.013-2.467-.843-3.587-2.881-4.052-14.248-5.81-18.44-3.408-2.256-1.41-2.31 1.143-2.669 2.719a5.007 5.007 0 0 0-.547 2.622c-1.068 2.235-1.974 5.03-4.218 6.7-2.848 2.118-7.23 2.923-10.007 3.962a3.256 3.256 0 0 1-.813-1.469 32.709 32.709 0 0 0-12.087 5.157c-4.1 1.2-6.982 4.538-9.068 8.117a1.549 1.549 0 0 0-.217 1.115C4.9 39.434 1.842 50.712 1.412 62.1c-4.126 2.48 1.961 24.763 3.378 29.389.919 1.63 1.963 6.282 4.263 5.922 1.578 1.787 4.093 1.436 6.234 1.573a7.862 7.862 0 0 0 .238 4.2 1.681 1.681 0 0 0 3.242-.089c21.326 4.151 43.207.839 64.773 1.462 6.235.044 12.47.238 18.69.683a1.714 1.714 0 0 0 1.7-1.708c-1.337-14.253-2.593-33-4.089-47.117a47.928 47.928 0 0 0-1.626-9.568z" class="cls-1" transform="translate(7.843 -4.714)"/>
        <path id="_Top" fill="#ffcf77" d="M72.02 90.4c-12.477 0-26.582-.222-37.731-.593-5.569-.186-10.2-.4-13.4-.63-1.686-.12-3-.243-3.891-.366-.936-.129-1.431-.259-1.471-.387a10.964 10.964 0 0 1-.405-2.522 8.784 8.784 0 0 1 .168-2.534c-.4-.026-.823-.034-1.232-.043a13.624 13.624 0 0 1-2.7-.234 4.816 4.816 0 0 1-1.233-.449 3.813 3.813 0 0 1-1.067-.847 1.625 1.625 0 0 1-.25.02c-.7 0-1.339-.47-1.953-1.436a17.828 17.828 0 0 1-1.333-2.848 15.431 15.431 0 0 0-.728-1.657c-.376-1.228-1.021-3.5-1.706-6.195-.851-3.353-1.545-6.484-2.062-9.3A53.446 53.446 0 0 1 0 51.468a12.737 12.737 0 0 1 .314-3.2 4.205 4.205 0 0 1 .44-1.1 1.973 1.973 0 0 1 .658-.688 67.515 67.515 0 0 1 2.71-16.78 58.1 58.1 0 0 1 3-7.92 53.041 53.041 0 0 1 4.198-7.39 1.55 1.55 0 0 1 .189-1.068l.028-.047a26.894 26.894 0 0 1 1.721-2.609 19.378 19.378 0 0 1 2.059-2.341 14.412 14.412 0 0 1 2.436-1.9 11.876 11.876 0 0 1 2.852-1.271 29.693 29.693 0 0 1 5.782-3.192A36.5 36.5 0 0 1 32.692 0l.022.095-.081.185a7.887 7.887 0 0 0-.775 2.965 4.593 4.593 0 0 0 .342 1.261 20.3 20.3 0 0 0 1.041 2.262 31 31 0 0 0 4.245 6.085 26.12 26.12 0 0 0 7.249 5.765 22.154 22.154 0 0 0 4.795 1.862 21.974 21.974 0 0 0 2.7.518 22.962 22.962 0 0 0 2.9.183c.742 0 1.5-.035 2.259-.105a39.366 39.366 0 0 0 4.185-.605 30.6 30.6 0 0 0 3.755-1 24.514 24.514 0 0 0 3.326-1.4 20.7 20.7 0 0 0 2.9-1.8 18.856 18.856 0 0 0 2.467-2.2 18.807 18.807 0 0 0 2.037-2.6 20.56 20.56 0 0 0 1.608-3 24.263 24.263 0 0 0 1.179-3.4l.15-2.073a6.905 6.905 0 0 1 1.112.558 1.574 1.574 0 0 1 1.092-.471 1.257 1.257 0 0 1 .8.269 1.145 1.145 0 0 1 .408.78c1.474.777 2.907 1.727 4.292 2.645.714.474 1.453.963 2.185 1.421l.131.092c.4.278.83.546 1.244.805a17.179 17.179 0 0 1 2.237 1.569 6.417 6.417 0 0 1 .919.979 4.979 4.979 0 0 1 .672 1.208l.353.023a1.339 1.339 0 0 1 .747.352 4.411 4.411 0 0 1 .77.89 14.393 14.393 0 0 1 1.428 2.867A27.428 27.428 0 0 1 98.5 20.7a22.927 22.927 0 0 1 .556 3.788 9.046 9.046 0 0 1-.27 3.08c-.073.24-.16.487-.243.725a4.309 4.309 0 0 0-.326 2.929A28.515 28.515 0 0 1 99.2 35.5c.231 1.446.391 2.93.546 4.365v.027c.032.294.065.6.1.9.867 8.185 1.658 17.98 2.423 27.452.568 7.032 1.1 13.674 1.666 19.66a1.459 1.459 0 0 1-.5 1.151 2.06 2.06 0 0 1-1.2.556c-2.864.263-7.1.464-12.591.6-5.023.123-10.953.189-17.624.189zM83.7 29.634c-2.468 0-8.173 1.181-12.309 2.193a23.3 23.3 0 0 0-3.363 1.086 16.984 16.984 0 0 0-2.272 1.135 8.811 8.811 0 0 0-1.689 1.252L57.9 42.089 56.335 43.1c0 .031 0 3.2.361 6.664a11 11 0 0 0 .65 2.631 19.351 19.351 0 0 0 1.078 2.379 22.841 22.841 0 0 0 1.457 2.388h.016c.855-.235 8.4-2.3 9.933-2.594 1.222-.232 2.259-1.805 3.016-2.954.257-.39.479-.727.67-.957a2.58 2.58 0 0 1 1.267-.668c.576-.172 1.274-.306 2.014-.449a23.993 23.993 0 0 0 2.661-.617 3.748 3.748 0 0 0 1.431-.866 5.815 5.815 0 0 0 .965-1.213 7.539 7.539 0 0 0 .717-1.547c.041-.009 4.915-1.063 6.468-1.411.391-.088.621-.251.683-.484a1.049 1.049 0 0 0-.287-.861 3.409 3.409 0 0 0-.4-.448l-12.215-.428.045-.01c1.227-.262 7.421-1.577 8.834-1.771a18.226 18.226 0 0 0 3.474-.97 9.247 9.247 0 0 0 1.618-.774c.452-.29.682-.557.682-.794 0-.22-.32-.4-.952-.549a16.22 16.22 0 0 0-2.351-.297c-1.758-.118-3.894-.135-5.941-.135h-.775c-3.316 0-10.716.625-10.79.631l2.853-1.369c.1-.019 9.674-1.873 10.943-1.873a1.325 1.325 0 0 0 .828-.3 2.466 2.466 0 0 0 .567-.664 4.332 4.332 0 0 0 .429-.965 6.387 6.387 0 0 0-.392-.732 4.908 4.908 0 0 0-1.083-1.269 2.063 2.063 0 0 0-1.109-.19z" transform="translate(7.843 10.909)"/>
        <path id="_Device" fill="#fff" d="M5.331 16.64L11.6 2.417S12.546 0 14.155 0s16.191.457 16.191.457 2.984.381 2.021 1.959-15.293 30.937-15.293 30.937H11V31.87l6.766-1.895s1.231-1.309-.689-1.309-13.091-.428-13.091-.428l10.651-1.566 5.269-2.03-.775-1.067-4.494-.643L0 23.576l3.983-1.349 8.9-1.892s1.751-1.235 1.751-2.446-4.69-1.677-4.69-1.677z" transform="translate(79.419 24.332)"/>
        <path id="_Ink" d="M105.27 103.663a.648.648 0 0 1-.512-.241 2.511 2.511 0 0 1-.67-1.679c-.02-.33-.031-.667-.042-.992-.007-.218-.015-.444-.025-.666-.052-1.151-.12-2.358-.2-3.588-.165-2.477-.351-4.888-.552-7.164-.433-4.9-1.105-9.868-1.756-14.669-.459-3.387-.933-6.89-1.319-10.341-.48-4.289-.81-8.545-.982-12.651-.087-2.08-.121-4.213-.1-6.339.007-.723.04-1.5.1-2.36-1.4 3.175-2.878 6.353-4.406 9.446l-.364.737a64.475 64.475 0 0 1-3.145 5.793l-.2.316-.155.249a9.9 9.9 0 0 1-.8 1.162 2.169 2.169 0 0 1-1.034.765 2.937 2.937 0 0 1-.785.088c-.221 0-.447-.014-.665-.027-.176-.011-.342-.021-.5-.024l-.535-.009c-.427-.006-.869-.013-1.3-.03a9 9 0 0 1-2.007-.3 2.246 2.246 0 0 1-.31-.1 5.521 5.521 0 0 1-1.3 1.438 7.2 7.2 0 0 1-1.669.981 20.49 20.49 0 0 1-2.884.9l-.345.087c-.15.037-.306.073-.457.107a3.289 3.289 0 0 0-2.381 1.293l-.137.235a5.935 5.935 0 0 1-1.588 1.941 6.685 6.685 0 0 1-1.264.722 11.952 11.952 0 0 1-1.37.5c-.764.234-1.555.426-2.32.612h-.012l-.555.145-.262.065c-.207.052-.418.1-.621.153h-.006c-.42.1-.854.208-1.277.324-.29.08-.551.153-.806.241a2.806 2.806 0 0 0-.777.453 1.446 1.446 0 0 1-.7.838 2.229 2.229 0 0 1-1.1.3h-.134a2.39 2.39 0 0 1-1.1-.367c-.376.321-.782.623-1.174.915-.206.154-.419.313-.623.47-.878.68-1.688 1.3-2.477 1.9-1.834 1.384-3.527 2.633-5.178 3.817-2.953 2.119-6.138 4.263-9.465 6.374-1.194.758-2.609 1.65-4.051 2.527l.145.054.288.109a3.564 3.564 0 0 1 .992.528 1.506 1.506 0 0 1 .58.935.986.986 0 0 1-.154.768 1.017 1.017 0 0 1-.717.376 1.382 1.382 0 0 1-.169.01 1.581 1.581 0 0 1-.892-.3 4.181 4.181 0 0 1-.716-.644c-.086-.093-.177-.185-.265-.273-.122-.122-.248-.248-.36-.379a1.4 1.4 0 0 1-.194-.312c-1.486.877-2.821 1.622-4.083 2.277l-.346.178c-1.486.761-2.98 1.568-4.424 2.347-1.881 1.016-3.827 2.066-5.779 3.029a18.885 18.885 0 0 1-3.142 1.253 14.574 14.574 0 0 1 .306 3.524v.146a.833.833 0 0 1-.233.607.957.957 0 0 1-.679.265.936.936 0 0 1-.675-.266.81.81 0 0 1-.216-.606l.019-.56a14.384 14.384 0 0 1 .312-2.838 11.176 11.176 0 0 1-1.825.145 14.649 14.649 0 0 1-3.584-.472 9.281 9.281 0 0 1-1.957-.7 8.062 8.062 0 0 1-1.843-1.647 12.637 12.637 0 0 1-1.453-2.082A25.4 25.4 0 0 1 4.792 91.2a46.5 46.5 0 0 1-1.909-5.1c-.512-1.645-.975-3.42-1.376-5.276A67.161 67.161 0 0 1 .139 70.9a71.344 71.344 0 0 1 .08-10.032 73.752 73.752 0 0 1 4.258-19.542 75.393 75.393 0 0 1 4.039-9.12l.192-.364c.9-1.706 1.693-3.074 2.48-4.306a32.349 32.349 0 0 1 2.957-3.981 24.68 24.68 0 0 1 3.767-3.455 30.43 30.43 0 0 1 4.35-2.688 43.066 43.066 0 0 1 4.582-2c.221-.083.462-.165.758-.258a15.891 15.891 0 0 1 2.609-1.383 9.28 9.28 0 0 1 1.416-.448 6.643 6.643 0 0 1 1.449-.169h.113a.476.476 0 0 1 .325.13 2.621 2.621 0 0 1 .286.065.551.551 0 0 1 .4.531l-.01.079a.656.656 0 0 1-.025.112 1.2 1.2 0 0 1 .208.051c1.249-.353 2.5-.836 3.71-1.3.622-.24 1.264-.488 1.894-.713l.421-.149.11-.039.06-.021a12.984 12.984 0 0 0 4.235-2.092 11.24 11.24 0 0 0 2.9-3.953 25 25 0 0 0 1.187-3.414c.225-.769.458-1.563.738-2.328A.167.167 0 0 1 49.787 0a.152.152 0 0 1 .156.156 20.129 20.129 0 0 1-.812 6.294 13.3 13.3 0 0 1-1.282 2.925 9.555 9.555 0 0 1-2 2.393 15.472 15.472 0 0 1-4.949 2.444c-.285.1-.579.206-.868.311l-.225.083-3.525 1.315c-.132.049-.268.1-.4.156a4.654 4.654 0 0 1-1.612.435 1.431 1.431 0 0 1-.755-.2c.2.5.393 1 .579 1.494a35.28 35.28 0 0 0 1.464 3.471 26.314 26.314 0 0 0 1.686 2.861 24.174 24.174 0 0 0 2.051 2.61A21.1 21.1 0 0 0 43.022 30a22.455 22.455 0 0 0 4.3 2.29A24.645 24.645 0 0 0 52 33.648a26.746 26.746 0 0 0 4.883.446 27.864 27.864 0 0 0 6.186-.7 29.9 29.9 0 0 0 3.218-.92 23.712 23.712 0 0 0 3.066-1.314 19.143 19.143 0 0 0 2.808-1.77A16.39 16.39 0 0 0 74.6 27.1a14.577 14.577 0 0 0 1.508-2.1 16.531 16.531 0 0 0 1.147-2.35 18.047 18.047 0 0 0 .782-2.509 18.548 18.548 0 0 0 .414-2.579.767.767 0 0 1-.121.01.738.738 0 0 1-.158-.017 10.912 10.912 0 0 1-3.084-1.368L75 16.132a8.772 8.772 0 0 1-2.5-2.016 7.376 7.376 0 0 1-.9-2.107c-.245-.775-.417-1.469-.418-1.476a26.669 26.669 0 0 1-.327-4.126c0-.061.171-.108.315-.108.092 0 .154.02.17.054a9.969 9.969 0 0 1 .5 2.12 12.073 12.073 0 0 0 .343 1.628l.063.184c.059.17.115.344.174.528.136.419.276.853.454 1.263a4.144 4.144 0 0 0 .675 1.115 10.574 10.574 0 0 0 4.172 2.48c.264.107.538.217.8.328a1.243 1.243 0 0 1 .465-.907 1.467 1.467 0 0 1 .911-.3 1.4 1.4 0 0 1 1 .4 1.25 1.25 0 0 1 .34.924c0 .071 0 .141-.007.21v.069c.214.118.42.254.593.371l.182.124a24.236 24.236 0 0 0 2.124 1.31c.91.494 1.87.93 2.8 1.351.519.235 1.055.479 1.578.73a23.257 23.257 0 0 1 2.136 1.167 21.754 21.754 0 0 1 2 1.393 21.37 21.37 0 0 1 1.731 1.515l.149.147c.084.084.171.168.263.257a5.323 5.323 0 0 1 1.237 1.532c.067.154.393.5.573.514 3.033.2 5.737.468 8.266.822a.963.963 0 0 1 .76.393.735.735 0 0 1-.031.667c-.9 2.029-4.455 10.226-5.378 12.372.056.821.045 1.73.034 2.609-.011.841-.022 1.709.027 2.494.14 2.27.329 4.634.562 7.025.635 6.53 1.54 13.142 2.415 19.536.245 1.79.5 3.641.744 5.474.575 4.3 1.11 8.713 1.567 12.514.267 2.22.474 4.294.634 6.339.07.9.133 1.788.187 2.649l.047.784.022.306a3.459 3.459 0 0 1-.416 2.466.986.986 0 0 1-.766.407zM2.612 74.972c.3 2.254.711 4.5 1.224 6.671l.114.481c.393 1.638.751 2.973 1.124 4.2a39.448 39.448 0 0 0 1.471 4.087 14.478 14.478 0 0 0 2.206 3.621 10.216 10.216 0 0 0 1.486 1.424 5.326 5.326 0 0 0 1.388.707 7.229 7.229 0 0 0 2.411.436 7.721 7.721 0 0 0 3.211-.484h.011a30.16 30.16 0 0 0 4.267-2c.316-.169.642-.343.963-.51l.176-.091c.708-.367 1.443-.754 2.246-1.183a3.047 3.047 0 0 1 .05-1.075 3.873 3.873 0 0 1 .418-1.031.758.758 0 0 1 .676-.415.912.912 0 0 1 .585.225.893.893 0 0 1 .308.586v.03a4.027 4.027 0 0 0 .078.533c4.7-2.579 9.5-5.432 14.681-8.721 3.134-1.991 6.221-4.035 9.178-6.077 1.529-1.056 3.038-2.127 4.486-3.185.779-.569 1.559-1.146 2.317-1.714.164-.123.329-.251.489-.375s.31-.24.466-.358l-.228-.292a12.219 12.219 0 0 1-1.485-2.553 14.077 14.077 0 0 1-.877-2.824 21.407 21.407 0 0 1-.381-3.565l-.015-.52a12.624 12.624 0 0 1 .13-2.626l-.236.128c-.14.076-.285.154-.427.235-.883.5-1.666.944-2.393 1.352-1.412.793-3.089 1.727-4.828 2.64-3.326 1.746-6.136 3.1-8.841 4.27l-1.464.632a77.534 77.534 0 0 1-7.746 2.984c-1.486.458-3.7 1.022-5.237 1.378a5.22 5.22 0 0 1 .531.608 2.914 2.914 0 0 1 .34.576 1.075 1.075 0 0 1 .1.59.724.724 0 0 1-.469.535 1.08 1.08 0 0 1-.444.1 1.334 1.334 0 0 1-.778-.284 3.075 3.075 0 0 1-.63-.638 4.266 4.266 0 0 1-.6-1.059c-.691.145-2.665.5-2.685.5a18.71 18.71 0 0 0-5.411 2.015.619.619 0 0 1-.289.089.216.216 0 0 1-.223-.151c-.051-.161.047-.442.383-.677a14.426 14.426 0 0 1 2.927-1.551 29.4 29.4 0 0 1 3.2-1.049l.108-.03c.784-.215 1.594-.447 2.405-.688a3.411 3.411 0 0 1-.129-1.015c.014-.515.049-1.039.082-1.546.019-.293.039-.6.055-.894.087-1.647.2-3.317.341-5.105.055-.7.113-1.343.177-1.969-.143-.077-.282-.164-.417-.248a3.775 3.775 0 0 0-.86-.439l-.081-.024a.381.381 0 0 1-.311-.405.5.5 0 0 1 .427-.45 3.534 3.534 0 0 1 .433-.027 3.784 3.784 0 0 1 .794.086c.064.014.123.029.179.046.08-.652.162-1.246.251-1.818.047-.3.092-.613.136-.914a22.23 22.23 0 0 1 .805-3.888.163.163 0 0 1 .151-.107.129.129 0 0 1 .117.072 6.757 6.757 0 0 1 .653 2.132 22.09 22.09 0 0 1 .19 2.26l.02.4.011.191c.088 1.532.111 3.2.073 5.247-.031 1.692-.088 3.454-.175 5.389l-.018.471a12.276 12.276 0 0 1-.136 1.7c2.27-.739 4.506-1.549 6.646-2.408 2.216-.889 4.386-1.852 6.45-2.864 2.981-1.461 5.955-2.992 8.84-4.548.656-.354 1.323-.711 1.969-1.056h.011c.79-.422 1.607-.859 2.408-1.293l1.533-.834.766-.418.242-.134a7.95 7.95 0 0 1 .911-.469 2.881 2.881 0 0 1 1-.218h.025a.813.813 0 0 1 .606.286 2.588 2.588 0 0 1 1.492-.51h.019c.964-1.334 1.763-2.4 2.516-3.357l.639-.814a21.423 21.423 0 0 1 3.687-3.9 8.965 8.965 0 0 1 2.043-1.131 1.083 1.083 0 0 1-.484-.263 2.39 2.39 0 0 1-.621-1.1 9.2 9.2 0 0 1-.256-1.3v-.013l-.047-.315a7.115 7.115 0 0 1-.081-1.341 10.861 10.861 0 0 1 .136-1.339.414.414 0 0 1 .431-.315.377.377 0 0 1 .363.211c.1.231.207.463.309.687.2.446.412.907.6 1.376l.082.212a8.034 8.034 0 0 0 .349.757 3.636 3.636 0 0 1 .542 1.725 1.106 1.106 0 0 1-.212.605c.423-.141.857-.273 1.276-.4l.549-.168c1.724-.534 3.733-1.143 5.758-1.62.519-.122 1.043-.236 1.558-.338a26.274 26.274 0 0 1 1.141-3.827 3.18 3.18 0 0 1-.783-.632c-.106-.105-.215-.214-.332-.319a5 5 0 0 1-.632-.721c-.089-.116-.181-.235-.278-.351a.611.611 0 0 1-.082-.639.465.465 0 0 1 .437-.276h.023l.142.006a3.538 3.538 0 0 1 1.489.32l.167.086a5.686 5.686 0 0 1 .7.418c.261-.6.548-1.238.9-2l.4-.855.3-.651.009-.02a53.5 53.5 0 0 1 3.053-5.934 3.575 3.575 0 0 1 1.027-1.1 2.9 2.9 0 0 1 1.421-.48c.283-.023.583-.034.917-.034.538 0 1.088.029 1.619.058.3.016.613.033.916.044 1.419.051 2.712.107 3.953.173-.152-.16-.3-.331-.445-.5-.174-.2-.353-.406-.539-.592A20.451 20.451 0 0 0 91.651 24a22.1 22.1 0 0 0-4.009-2.476c-.364-.179-.736-.354-1.1-.524a26.374 26.374 0 0 1-3.1-1.631 12.006 12.006 0 0 1-2.268-1.969 18.275 18.275 0 0 1-.652 3.418 19.245 19.245 0 0 1-1.268 3.224 20.262 20.262 0 0 1-1.819 2.961 20.983 20.983 0 0 1-2.307 2.627 20.677 20.677 0 0 1-6.075 3.979 29.434 29.434 0 0 1-7 2.039 31.244 31.244 0 0 1-5.118.428 28.78 28.78 0 0 1-4.753-.39 26.232 26.232 0 0 1-4.616-1.21 25.6 25.6 0 0 1-3.481-1.572 25.263 25.263 0 0 1-3.222-2.087 1.751 1.751 0 0 1-.1.394 2.7 2.7 0 0 1-.257.461l-.178.26c-.1.148-.221.319-.353.477a1.516 1.516 0 0 1-1.206.526h-.008a1.348 1.348 0 0 1-.626-.155 1.434 1.434 0 0 1-.476-.4 1.372 1.372 0 0 1-.237-1.2 1.6 1.6 0 0 1 .359-.673 1.76 1.76 0 0 1 .626-.422c.162-.068.33-.127.489-.181l.124-.042a3.534 3.534 0 0 1 .5-.143 22.55 22.55 0 0 1-2.661-2.781 26.913 26.913 0 0 1-1.827-2.567 19.725 19.725 0 0 1-1.507-2.9 10.751 10.751 0 0 1-.819-6.238.172.172 0 0 1 .148-.128 1.356 1.356 0 0 1 .417-.766 3.682 3.682 0 0 0-.433-.087c-.435.1-.87.182-1.2.245-.369.2-.741.4-1.1.6-1.118.61-2.274 1.241-3.461 1.791a54.8 54.8 0 0 0-4.9 2.5 26.232 26.232 0 0 0-2.292 1.52 25.821 25.821 0 0 0-2.091 1.731 26.562 26.562 0 0 0-1.9 1.941c-.6.675-1.175 1.4-1.719 2.149a56.3 56.3 0 0 0-4.942 8.291 71.28 71.28 0 0 0-3.618 8.954c-.508 1.543-.973 3.134-1.381 4.728a7.315 7.315 0 0 1 2.526-1.427.731.731 0 0 1 .253-.044 1.059 1.059 0 0 1 .861.5.856.856 0 0 1 .135.5 1 1 0 0 1-.724.953 18.287 18.287 0 0 0-2.464.7H4.81l-.522.174a.535.535 0 0 1-.167.028.429.429 0 0 1-.213-.056A70.928 70.928 0 0 0 2.1 62.665 67.568 67.568 0 0 0 2.431 73.5a5.1 5.1 0 0 1 .941-.345c.415-.1.836-.216 1.288-.364a1 1 0 0 1 .313-.053.837.837 0 0 1 .63.286 1.166 1.166 0 0 1 .287.644 1.033 1.033 0 0 1-.122.645.9.9 0 0 1-.577.411c-.492.121-.953.213-1.41.28a3.187 3.187 0 0 1-.468.034 4.308 4.308 0 0 1-.701-.066zm81.027-30.686a25.028 25.028 0 0 0-5.074.572c-1.758.363-3.487.859-4.946 1.3l-.74.222c-1.519.458-2.789.856-4.051 1.311a9.57 9.57 0 0 0-3.8 2.552c-.368.389-.738.785-1.1 1.168-.829.889-1.687 1.809-2.571 2.678-.721.708-1.512 1.466-2.42 2.317a2.529 2.529 0 0 0-.433.835 4.022 4.022 0 0 0-.068 1.682c.071.635.118 1.283.164 1.91.061.831.124 1.689.241 2.528a15.093 15.093 0 0 0 1.022 4.04 7.492 7.492 0 0 0 .846 1.432l.268.348c.111.144.243.313.384.473a.941.941 0 0 1 .727-.372.882.882 0 0 1 .1.006 6.48 6.48 0 0 0 .761.049 5.244 5.244 0 0 0 1.227-.15c.362-.085.727-.181 1.081-.273l.548-.143.891-.224c.76-.189 1.546-.384 2.308-.61l.181-.055a9.875 9.875 0 0 0 1.164-.426 5.161 5.161 0 0 0 1.065-.627 4.111 4.111 0 0 0 1.026-1.337 7.231 7.231 0 0 1 .532-.845 3.708 3.708 0 0 1 1.835-1.206 14.363 14.363 0 0 1 2.307-.5c.508-.082.988-.159 1.422-.265a10.909 10.909 0 0 0 2.159-.746 6.119 6.119 0 0 0 1.813-1.287l.06-.065a.462.462 0 0 1 .209-.514l.039-.022a.425.425 0 0 1 .21-.054h.01a5.1 5.1 0 0 0 .273-.443.106.106 0 0 1 .094-.061.13.13 0 0 1 .1.048.127.127 0 0 1 .029.105c-.011.064-.027.127-.042.189l-.008.034a9.134 9.134 0 0 1 2.253-.213h2.192a5.537 5.537 0 0 0 .6-.028l.031-.014.027-.012H88.565c-.001 0 0-.019.016-.037.059-.079.121-.163.187-.256.19-.267.384-.557.629-.942a57.473 57.473 0 0 1-6.765 1.209c-1.316.171-2.512.3-3.655.385-1.3.1-2.5.149-3.671.151a.485.485 0 0 1-.374-.155.528.528 0 0 1-.129-.345.557.557 0 0 1 .122-.366.5.5 0 0 1 .381-.179c2.461-.094 5.1-.228 7.739-.569 1.288-.167 2.625-.382 3.973-.641.5-.1 1.014-.2 1.522-.31l.379-.083c.049-.011.12-.023.2-.037a3.066 3.066 0 0 0 1.043-.312l.033-.056.16-.276c-.011-.135-.139-.231-.38-.285a3.006 3.006 0 0 0-.642-.054H86.6c-1.059 0-2.136-.009-3.177-.017h-.228c-.671-.005-1.355-.016-2.016-.026-.98-.015-1.994-.03-2.99-.03-1.072 0-2.011.018-2.872.055h-.025a.7.7 0 0 1-.638-.589.571.571 0 0 1 .321-.676 28.239 28.239 0 0 1 7.825-1.695c.325-.039.662-.078.991-.119a37.4 37.4 0 0 0 4.645-.8l.377-.1a8.3 8.3 0 0 0 2.822-1.132 6.048 6.048 0 0 0-1.573-.371c-.548-.064-1.106-.083-1.646-.1-.263-.009-.511-.018-.755-.031l-.1-.006c-1.752-.108-3.53-.164-5.285-.166h-.205c-3.059 0-6.332.091-10.613.294a.076.076 0 0 1-.074-.073.074.074 0 0 1 .057-.085 53.829 53.829 0 0 1 5.6-.911c1.829-.2 3.734-.318 5.661-.349.464-.007.934-.011 1.4-.011 1.294 0 2.6.029 3.9.086l.647.03.229.01h.022a15.825 15.825 0 0 1 2.18.191 4.8 4.8 0 0 1 1.995.79.691.691 0 0 1 .309.5c1.528-3.052 2.972-6.208 4.368-9.26l.062-.136.38-.829c.409-.894.82-1.8 1.217-2.686.784-1.738 1.594-3.535 2.43-5.285l.408-.853c.612-1.274 1.14-2.335 1.728-3.372-2.106-.282-4.4-.509-7-.693-1.666-.118-6.245-.348-8.7-.348a9.76 9.76 0 0 0-1.414.062 1.873 1.873 0 0 0-1.135.782 7.544 7.544 0 0 0-.727 1.3c-.084.177-.164.344-.245.5-1.112 2.128-2.155 4.332-3.164 6.464l-.091.192c-.25.527-.5 1.065-.738 1.584l-.007.015-.218.472a1.068 1.068 0 0 1-.074.16c-.73 1.575-1.37 2.886-2.119 4.159.744-.139 1.476-.254 2.176-.342a4.674 4.674 0 0 1 .519-1.837c.054-.124.1-.242.146-.348l.019-.049c.047-.12.093-.249.143-.387a3.35 3.35 0 0 1 1.2-1.906.385.385 0 0 1 .178-.045.346.346 0 0 1 .241.1.387.387 0 0 1 .114.254 3.533 3.533 0 0 1-.79 1.9c-.125.192-.244.374-.338.543-.242.431-.474.857-.688 1.265-.029.054-.056.108-.082.161-.052.1-.1.2-.158.3.439-.047.8-.08 1.129-.1l.246-.017c.337-.022.781-.048 1.225-.048a8.015 8.015 0 0 1 1.5.126 4.765 4.765 0 0 1 1.418.494 2.686 2.686 0 0 1 1.244 1.4 2.256 2.256 0 0 1 .143.91 2.3 2.3 0 0 1-.26.943 3.021 3.021 0 0 1-1.779 1.476 9.358 9.358 0 0 1-2.342.407c-1.871.151-3.769.423-5.605.686l-.2.029a26 26 0 0 0-3.264.759c-.836.233-1.7.474-2.566.641a.19.19 0 0 1-.036 0 .176.176 0 0 1-.168-.129.155.155 0 0 1 .075-.181 20.141 20.141 0 0 1 4.661-1.841l.5-.152.14-.043c.2-.06.392-.123.583-.183a16.522 16.522 0 0 1 2.244-.6c.939-.158 1.9-.288 2.842-.386l.092-.008c.116-.01.254-.018.4-.027a11.751 11.751 0 0 0 1.608-.177 2.375 2.375 0 0 0 1.35-.633 1.022 1.022 0 0 0 .247-.774c-.032-.447-.367-.78-.994-.989a5.439 5.439 0 0 0-1.509-.228zm5.016 11.073a4.941 4.941 0 0 1 1.783.245 1.637 1.637 0 0 1 .435.252c.706-1.258 1.4-2.562 2.127-3.988A5.138 5.138 0 0 1 91.325 53a15.57 15.57 0 0 1-1.922.674 31.452 31.452 0 0 1-4.544.923c-.407.058-.814.114-1.207.168-1.05.145-2.137.295-3.2.47l1.075.012c.73.008 1.484.016 2.226.029 1.455.026 2.663.054 3.8.087H88.262zm-1.638 46.969a1.273 1.273 0 0 1-.853-.322 1.225 1.225 0 0 1-.4-.9 4.45 4.45 0 0 1 .478-2.028 4.526 4.526 0 0 1 1.3-1.635.5.5 0 0 1 .306-.106.782.782 0 0 1 .653.5 4.2 4.2 0 0 1 .208 2 4.575 4.575 0 0 1-.624 1.9 1.254 1.254 0 0 1-1.068.591zm6.392-.147a.457.457 0 0 1-.435-.338 16.836 16.836 0 0 1-.661-3.6c-.027-.247-.055-.5-.085-.751-.144-1.212-.24-2.452-.332-3.65l-.035-.449-.032-.41c-.24-3.03-.432-6.068-.569-9.031s-.223-5.992-.257-9.043c-.015-1.321.006-2.705.061-4.114l.017-.411c.014-.324.023-.657.031-.979a17.07 17.07 0 0 1 .3-3.3.145.145 0 0 1 .148-.11.148.148 0 0 1 .149.11 17.68 17.68 0 0 1 .342 3.14c.016.326.033.663.054.989l.011.151c.118 1.619.206 3.1.268 4.524.124 2.853.274 5.764.457 8.9.085 1.46.178 2.944.276 4.411a8.546 8.546 0 0 1 .953-.456 3.562 3.562 0 0 1 1.376-.217h.125a1.063 1.063 0 0 1 1.044 1.206 1 1 0 0 1-.375.678 1.163 1.163 0 0 1-.718.226 1.518 1.518 0 0 1-.233-.018c-.26-.041-.524-.091-.78-.139-.431-.081-.877-.165-1.318-.209.087 1.259.167 2.374.245 3.408.05.663.108 1.334.163 1.982.071.828.144 1.684.2 2.527.009.13.019.271.032.431a6.05 6.05 0 0 1 1.25-.435l.119-.032.131-.037.177-.052a4.2 4.2 0 0 1 1.152-.228 1.417 1.417 0 0 1 .864.271.929.929 0 0 1 .4.637.873.873 0 0 1-.23.678 1.736 1.736 0 0 1-1.421.534c-.177 0-.36-.01-.536-.02l-.252-.013-.425-.015a5.028 5.028 0 0 1-1.141-.143 15.244 15.244 0 0 1-.016 2.929.509.509 0 0 1-.494.468zm-61.918-1.44a1.767 1.767 0 0 1-.731-.166 3.922 3.922 0 0 1-1.444-1.22l-.114-.145-.012-.016a2.16 2.16 0 0 1-.43-.71 2.206 2.206 0 0 1-.016-.769v-.053a.532.532 0 0 1 .11-.27.325.325 0 0 1 .253-.134h.039c.1.013.2.017.292.021a2.818 2.818 0 0 1 .345.029 1.727 1.727 0 0 1 .493.189c.084.043.171.087.261.123a6.987 6.987 0 0 0 .792.246c.167.045.339.091.505.144a1.471 1.471 0 0 1 .893.777 1.367 1.367 0 0 1 .013 1.113 1.343 1.343 0 0 1-.519.631 1.366 1.366 0 0 1-.73.209zm40.764-3.331a4.091 4.091 0 0 1-2.075-.845c-.147-.093-.286-.181-.425-.264l-.047-.028c-.113-.066-.228-.132-.339-.2a10.391 10.391 0 0 1-1.087-.682 3.5 3.5 0 0 1-.882-.93.5.5 0 0 1-.013-.461.39.39 0 0 1 .294-.237 3.347 3.347 0 0 1 .466-.033 6.264 6.264 0 0 1 2.1.481h.011l.2.071.075.026c.174.06.361.116.559.176a3.386 3.386 0 0 1 2.233 1.338 1.157 1.157 0 0 1 .025.99.95.95 0 0 1-.644.534 1.841 1.841 0 0 1-.451.063zm-17.826-5.458a1.629 1.629 0 0 1-1.389-.88 1.571 1.571 0 0 1-.195-.737 1.36 1.36 0 0 1 .225-.758 3.174 3.174 0 0 1 1.162-1.027 10.731 10.731 0 0 1 1.468-.633l.347-.131a19.528 19.528 0 0 0 2.559-1.275h.005l.33-.185a.5.5 0 0 1 .244-.066.523.523 0 0 1 .471.329.471.471 0 0 1-.107.526l-.6.605a16.977 16.977 0 0 0-1.59 1.78l-.116.157-.117.161-.006.008a10.77 10.77 0 0 1-1 1.232 3.109 3.109 0 0 1-1.281.834 1.394 1.394 0 0 1-.41.06zm-39.294-4.337a1.6 1.6 0 0 1-1.1-.439 1.4 1.4 0 0 1-.407-.858 1.8 1.8 0 0 1 .176-.94 4.418 4.418 0 0 1 1.252-1.369c.191-.159.372-.31.537-.465l.053-.051c.231-.225.472-.428.7-.625a7.35 7.35 0 0 0 1.177-1.158.524.524 0 0 1 .423-.2.49.49 0 0 1 .4.186.393.393 0 0 1 .029.373c-.161.436-.3.9-.438 1.4a15.175 15.175 0 0 1-.755 2.193 4.284 4.284 0 0 1-1.36 1.745 1.188 1.188 0 0 1-.687.208zm68.894-.126a1.168 1.168 0 0 1-.688-.224 1.32 1.32 0 0 1-.438-.555 1.3 1.3 0 0 1-.093-.7 1.236 1.236 0 0 1 .336-.675 6.653 6.653 0 0 1 2.261-1.327h.007c.135-.057.275-.117.409-.176l.212-.094a4.724 4.724 0 0 1 1.606-.388.82.82 0 0 1 .68.243.3.3 0 0 1 .048.063.578.578 0 0 1 0 .586 6.681 6.681 0 0 1-1.627 1.739l-.075.056c-.138.1-.277.209-.411.312a5.61 5.61 0 0 1-1.885 1.094 1.3 1.3 0 0 1-.342.046zm-43.5-10.5a1.342 1.342 0 0 1-.609-.156 7.181 7.181 0 0 1-1.856-1.33 8.067 8.067 0 0 1-1.359-1.841.43.43 0 0 1 .009-.435.438.438 0 0 1 .37-.224.408.408 0 0 1 .215.063 14.894 14.894 0 0 0 3.566 1.52 1.338 1.338 0 0 1 .649.445 1.081 1.081 0 0 1 .252.741l-.006.082a.97.97 0 0 1-.162.539 1.638 1.638 0 0 1-.489.44 1.17 1.17 0 0 1-.576.161zm31.654-.514a2.322 2.322 0 0 1-1.282-.5 7.889 7.889 0 0 1-1.062-.931l-.029-.03a6.176 6.176 0 0 1-.9-1.141 3.881 3.881 0 0 1-.508-1.339.221.221 0 0 1 .044-.183.2.2 0 0 1 .154-.069.26.26 0 0 1 .048 0 5.64 5.64 0 0 1 1.324.438 9.936 9.936 0 0 1 1.226.69c.221.143.442.3.655.445.194.135.395.274.6.405a1.8 1.8 0 0 1 .562.517 1.678 1.678 0 0 1 .23.731.746.746 0 0 1-.192.564 1.129 1.129 0 0 1-.495.34 1.208 1.208 0 0 1-.371.067zm27.427-1.014a2.073 2.073 0 0 1-1.111-.392 4.679 4.679 0 0 1-.89-.779l-.043-.049-.215-.245a6.072 6.072 0 0 1-.835-1.093 8.479 8.479 0 0 1-.474-1.146l-.11-.3a.558.558 0 0 1 .068-.524.756.756 0 0 1 .6-.314.6.6 0 0 1 .31.082c.159.094.325.183.486.269a7.839 7.839 0 0 1 .857.508c.249.179.489.382.72.579.124.106.253.215.384.321l.182.145a4.3 4.3 0 0 1 .784.836 1.969 1.969 0 0 1 .419 1.077.941.941 0 0 1-.377.758 1.176 1.176 0 0 1-.751.272zm-14.757-6.823h-.025a1.13 1.13 0 0 1-.883-.366 1.263 1.263 0 0 1-.321-1.217 6.306 6.306 0 0 1 .86-1.618 4.332 4.332 0 0 1 1.35-1.216.513.513 0 0 1 .25-.062.478.478 0 0 1 .487.362c.013.066.029.134.044.2a2.6 2.6 0 0 1 .088.565 2.914 2.914 0 0 1-.1.65c-.022.092-.042.178-.059.264a5.578 5.578 0 0 1-.633 1.817 1.251 1.251 0 0 1-1.058.621zm-52.4-3.994a5.268 5.268 0 0 1-2.64-.766.58.58 0 0 1-.2-.779 3.629 3.629 0 0 1 .575-.746 4.48 4.48 0 0 1 .781-.629 3.53 3.53 0 0 1 1.84-.6c.06 0 .12 0 .178.007a1.8 1.8 0 0 1 1.158.511 1.76 1.76 0 0 1 .5 1.025 1.693 1.693 0 0 1-.221 1.075 1.759 1.759 0 0 1-.978.752 3.128 3.128 0 0 1-.997.151zm-17.261-1.517a1.258 1.258 0 0 1-.327-.043 9.827 9.827 0 0 1-2.744-1.463l-.013-.009-.174-.117-.163-.109-.065-.043a5.914 5.914 0 0 1-1.047-.806 7.236 7.236 0 0 1-.711-.941l-.148-.214a.223.223 0 0 1-.015-.24.308.308 0 0 1 .263-.16.255.255 0 0 1 .055.006c.179.039.367.071.548.1a6.962 6.962 0 0 1 .875.185 7.943 7.943 0 0 1 .777.3c.2.084.4.171.6.242.4.14.818.254 1.222.363a12.326 12.326 0 0 1 1.72.558 1.08 1.08 0 0 1 .471.466 1.166 1.166 0 0 1 .164.643l-.009.094a1.24 1.24 0 0 1-.166.555 1.324 1.324 0 0 1-1.113.633zM48 58.852a1.474 1.474 0 0 1-.908-.419 4.008 4.008 0 0 1-.667-.741 7.179 7.179 0 0 1-1.023-2.27.408.408 0 0 1 .065-.363.464.464 0 0 1 .364-.178.429.429 0 0 1 .3.118c.26.243.53.482.79.714.362.322.737.654 1.091 1l.041.041a3.048 3.048 0 0 1 .628.878.823.823 0 0 1-.125.975.767.767 0 0 1-.556.245zM33.82 46.526a1.346 1.346 0 0 1-.909-.376 1.67 1.67 0 0 1-.494-.855 1.246 1.246 0 0 1 .06-.772 1.177 1.177 0 0 1 .61-.6 25.721 25.721 0 0 1 2.993-1.217c.173-.055.345-.114.512-.17a6.316 6.316 0 0 1 2.044-.454 3.261 3.261 0 0 1 .334.017.419.419 0 0 1 .331.216.346.346 0 0 1-.013.338 5.4 5.4 0 0 1-1.714 1.665l-.328.237-.068.051a25.056 25.056 0 0 1-2.68 1.726 1.368 1.368 0 0 1-.678.194zm24.1-3.567a1.06 1.06 0 0 1-.37-.071c-1.343-.5-2.787-1.035-4.244-1.538a.47.47 0 0 1-.3-.529.369.369 0 0 1 .377-.327h.034c1.521.1 3.024.166 4.422.223a1.079 1.079 0 0 1 .812.358 1.1 1.1 0 0 1 .24.736 1.084 1.084 0 0 1-.971 1.148zm-39.06-3.535h-.05a6.18 6.18 0 0 1-2.957-1.06 4.76 4.76 0 0 1-1.024-.814A9.412 9.412 0 0 1 14 36.531a.3.3 0 0 1-.034-.3.45.45 0 0 1 .351-.251c.19-.019.384-.049.572-.078.241-.037.49-.075.734-.092.049 0 .1-.005.154-.005a5.038 5.038 0 0 1 .656.058c.111.015.226.03.339.041l.407.04a7.95 7.95 0 0 1 2.426.529 1.248 1.248 0 0 1 .677.661 1.534 1.534 0 0 1 .073.91 1.891 1.891 0 0 1-.514.96 1.388 1.388 0 0 1-.981.42zm68.132-3.789a.944.944 0 0 1-.458-.119 1.162 1.162 0 0 1-.392-.36 1.823 1.823 0 0 1-.3-.71 2.113 2.113 0 0 1 0-.732 4.464 4.464 0 0 1 .542-1.414l.144-.259a6.734 6.734 0 0 1 .932-1.344l.006-.04a1.236 1.236 0 0 1 .395-.8 1.068 1.068 0 0 1 .7-.256 1.093 1.093 0 0 1 .837.377 1.154 1.154 0 0 1 .233.971A9.615 9.615 0 0 1 89 33.16a9.827 9.827 0 0 1-1.133 2 1.092 1.092 0 0 1-.875.475zm-57.644-9.126a1.368 1.368 0 0 1-.777-.232 1.039 1.039 0 0 1-.439-.69l-.022-.121-.019-.1a2.98 2.98 0 0 1-.049-1.324 4.228 4.228 0 0 1 .408-.887l.077-.139.037-.069a5.781 5.781 0 0 1 .655-.955 8.174 8.174 0 0 1 .807-.836.768.768 0 0 1 .51-.191.714.714 0 0 1 .41.124.61.61 0 0 1 .244.374 6.774 6.774 0 0 1 .159 2.373c-.013.093-.025.19-.036.284a3.69 3.69 0 0 1-.208.985 3.266 3.266 0 0 1-.787 1.007l-.044.043a1.322 1.322 0 0 1-.926.354zm54.577-1.5a1.791 1.791 0 0 1-1.124-.572l-.056-.047a4.47 4.47 0 0 0-1.206-.711.518.518 0 0 1-.317-.577.418.418 0 0 1 .44-.344h.138a5.948 5.948 0 0 1 1.836.3c.708.265 1.07.682 1.074 1.238a.71.71 0 0 1-.146.425.654.654 0 0 1-.37.253 1.179 1.179 0 0 1-.269.037z" transform="translate(6.846 -2.857)"/>
    </g>
    <g id="HEAD" transform="translate(53.049 25.714)">
        <path id="_Skin-2" d="M54.656 25.152a47.269 47.269 0 0 0-3.933-12.669C46.8 4.142 37.816 2.994 29.763 1.274 21.816.112 13.4-.936 5.573 1.381 1.173 2.463-.545 7.724.149 11.876a32.706 32.706 0 0 0 2.57 7.433A41.753 41.753 0 0 1 5.97 34.834c-.136 3.484-.626 7.46 3.362 8.936 3.795 1.894 4.115 7.03 8.867 9.944 1.921 3.907 7.155 4.251 10.922 5.157 2.381.457 4.789.794 7.2 1.012 6.991.9 12.583-1.134 16.243-7.386 2.449-3.8 4.273-8.2 3.822-12.809-.445-4.856-1.193-9.688-1.73-14.536z" class="cls-1" transform="translate(3.415 10.857)"/>
        <path id="_Ink-2" d="M41.854 70.438a18.955 18.955 0 0 1-4.51-.53 15.268 15.268 0 0 1-4.144-1.664.913.913 0 0 1-.467-1.058 1.105 1.105 0 0 1 .365-.559 1.015 1.015 0 0 1 .649-.237 1.1 1.1 0 0 1 .469.109 24.386 24.386 0 0 0 3.333 1.3 16.035 16.035 0 0 0 3.511.657c.423.03.851.045 1.273.045a17.406 17.406 0 0 0 5.71-.952 15.861 15.861 0 0 0 2.672-1.218 16.9 16.9 0 0 0 2.41-1.676 17.658 17.658 0 0 0 2.095-2.064 17.84 17.84 0 0 0 1.72-2.391 16.79 16.79 0 0 0 2.11-5.347 19.545 19.545 0 0 0 .362-3.591c.017-1.04-.023-2.155-.13-3.613l-.012-.163c-.413-5.462-.906-9.855-1.551-13.826-.323-1.987-.741-4.005-1.243-6-.49-1.945-1.073-3.92-1.734-5.871a7.053 7.053 0 0 0-1.7-1.114c-1.722-.072-3.463-.109-5.175-.109-2.781 0-5.584.1-8.329.287A112.494 112.494 0 0 0 28.1 22.24l-.406.071c-.187.033-.382.064-.57.094a8.4 8.4 0 0 0-1.988.48 1.663 1.663 0 0 0-.751.621 2.877 2.877 0 0 0-.371.919 26.694 26.694 0 0 0-.561 5.266l-.007.167c-.031.761-.018 1.537 0 2.288.017.972.034 1.976-.045 2.958a8.5 8.5 0 0 1-.423 2.15 5.329 5.329 0 0 1-.46.984 4.388 4.388 0 0 1-.681.864 6.291 6.291 0 0 1-1.3.912c-.2.114-.4.232-.6.36a1.255 1.255 0 0 0-.45.438 1 1 0 0 0-.094.61 6.115 6.115 0 0 0 .221.975c.244.866.5 1.762-.212 2.435a.49.49 0 0 1-.334.131.415.415 0 0 1-.31-.131 6.443 6.443 0 0 0-1.062-.862c-.13-.091-.264-.186-.39-.279a.2.2 0 0 1-.081-.224.19.19 0 0 1 .181-.132.233.233 0 0 1 .1.022c.144.065.292.137.436.206.159.077.323.157.488.23a4.18 4.18 0 0 0-1.2-.664 8.6 8.6 0 0 0-1.3-.359 4.481 4.481 0 0 0-.878-.086c-.134 0-.27.006-.4.018-.334.16-.678.308-.97.433-.375.158-.785.316-1.254.483a5.225 5.225 0 0 0-1.589 2.256 5.569 5.569 0 0 0-.265 2.785 5.232 5.232 0 0 0 .5 1.566 3.269 3.269 0 0 0 1.058 1.238 4.432 4.432 0 0 0 2 .57 5.565 5.565 0 0 1 1.681.383 3.746 3.746 0 0 1 1.33 1.084 7.3 7.3 0 0 1 .9 1.495l.207.439a18.111 18.111 0 0 0 1.565 2.8 13.987 13.987 0 0 0 2.594 2.734 13.213 13.213 0 0 0 1.5 1.04l.142.085a1.494 1.494 0 0 1 .939 1.261.648.648 0 0 1-.317.556 1.133 1.133 0 0 1-.624.188 2.842 2.842 0 0 1-1.461-.644l-.166-.112a16.393 16.393 0 0 1-2.033-1.6 15.758 15.758 0 0 1-3.047-3.864 12.116 12.116 0 0 1-.553-1.191 6.113 6.113 0 0 0-1.37-2.282 3.112 3.112 0 0 0-1.8-.574c-.117-.012-.237-.025-.353-.04a5.3 5.3 0 0 1-1.941-.57c-2.477-1.381-3.178-4.723-2.59-7.31a7.69 7.69 0 0 1 .411-1.269 1.22 1.22 0 0 1-.2.016A1.549 1.549 0 0 1 7.7 43.98a1.172 1.172 0 0 1-.147-1.109c.021-.053.044-.1.066-.154l.025-.056a3.18 3.18 0 0 1-1.315-1.806 2.881 2.881 0 0 1-.072-1.229 1.99 1.99 0 0 1-.694-.807 2.456 2.456 0 0 1-1.183-1.053 2.027 2.027 0 0 1-.257-.964 2 2 0 0 1 .217-.879c-.038-.069-.075-.141-.111-.214a3.674 3.674 0 0 1-1.218-1.261 3.009 3.009 0 0 1-.127-2.794l-.037-.126a3.32 3.32 0 0 1-1.782-2.073 2.729 2.729 0 0 1 0-1.39A3.292 3.292 0 0 1 1.7 26.84a2.513 2.513 0 0 1-1.06-2.827 3.526 3.526 0 0 1 .726-1.441.344.344 0 0 0-.006-.035l-.08-.062C.04 21.489-.3 20.409.266 19.263a2.865 2.865 0 0 1 1.191-1.269l.024-.077a3.494 3.494 0 0 1-.226-2.459 2.79 2.79 0 0 1 .479-.966 3.038 3.038 0 0 1 .778-.711 3.519 3.519 0 0 1 .03-1.04 2.718 2.718 0 0 1 .306-.875 2.55 2.55 0 0 1 .568-.695c.016-.076.036-.156.063-.246a4.411 4.411 0 0 1 .774-1.441 1.2 1.2 0 0 1 .958-.467 3.477 3.477 0 0 1 .647-2.3 2.9 2.9 0 0 1 1.132-.94 2.168 2.168 0 0 1 .9-.192 2.354 2.354 0 0 1 .252.014 2.329 2.329 0 0 1 .7-.862 2.234 2.234 0 0 1 1.038-.428 3.117 3.117 0 0 1 .436-.031 2.773 2.773 0 0 1 .408.03 4.86 4.86 0 0 1 .458-.186c.1-.036.206-.069.319-.106a3.338 3.338 0 0 1 1.387-1.023 2.584 2.584 0 0 1 .945-.18 2.684 2.684 0 0 1 .921.165l.184-.039a2.174 2.174 0 0 1 .569-.653 2.408 2.408 0 0 1 .881-.41 2.212 2.212 0 0 1 .532-.065 2.787 2.787 0 0 1 1.718.648h.009a2.192 2.192 0 0 1 .657-.877 1.755 1.755 0 0 1 1.085-.342h.092a2.033 2.033 0 0 1 .831.219 2.621 2.621 0 0 1 .7.514c.229-.029.455-.054.685-.08a5.977 5.977 0 0 1 .808-.789 1.107 1.107 0 0 1 .693-.263.926.926 0 0 1 .786.454c.077.118.149.239.219.356v.007l.329-.023A2.325 2.325 0 0 1 26.225 1a2.013 2.013 0 0 1 .945-.27h.077a1.751 1.751 0 0 1 1.419.756c.273-.007.562-.012.882-.017A5.4 5.4 0 0 1 30.756.425a.877.877 0 0 1 .47-.125.97.97 0 0 1 .69.279 7.619 7.619 0 0 1 .54.631 2.958 2.958 0 0 1 1.636-.93A.789.789 0 0 1 34.7 0a1.17 1.17 0 0 1 .781.34 2.772 2.772 0 0 1 .7.32 7.823 7.823 0 0 1 1-.057c.161 0 .332 0 .521.01a2.649 2.649 0 0 1 .387-.179 3 3 0 0 1 1.03-.191 2.787 2.787 0 0 1 1.574.5A1.764 1.764 0 0 1 41.94.232h.111a1.554 1.554 0 0 1 .66.183 2.132 2.132 0 0 1 .512.4 1.862 1.862 0 0 1 .595-.553 1.89 1.89 0 0 1 .828-.253c.066 0 .133-.007.2-.007a3.582 3.582 0 0 1 2.186.832A2.057 2.057 0 0 1 48.59.1a2.513 2.513 0 0 1 .45-.04 2.611 2.611 0 0 1 .76.116 3.306 3.306 0 0 1 1.432.894A3 3 0 0 1 53.3.109c.056 0 .112 0 .168.006a2.705 2.705 0 0 1 1.5.613 3.4 3.4 0 0 1 .984 1.317 6.249 6.249 0 0 1 1.089.563 5.327 5.327 0 0 1 .959.8l.06.065.031.034a2.969 2.969 0 0 1 .875.5 2.314 2.314 0 0 1 .784 1.231 2.839 2.839 0 0 1-.044 1.448c.034.14.066.291.1.477a2.565 2.565 0 0 1 1.884 1.3 3.1 3.1 0 0 1 .352 1.663 3.558 3.558 0 0 1-.154.851 3.372 3.372 0 0 1-.352.778 4.4 4.4 0 0 1-.945 1.065 2.615 2.615 0 0 1 .179 1.48 2.7 2.7 0 0 1-.629 1.344 3.651 3.651 0 0 1-.584.713 2.188 2.188 0 0 1-.113 1.417 2.314 2.314 0 0 1-.956 1.077l-.075.188-.039.093c-.009.037-.02.073-.031.108v.01a1.924 1.924 0 0 1-.359 1 7.8 7.8 0 0 1-.513.634 4.122 4.122 0 0 0-.819 1.209l-.03.08a.819.819 0 0 1-.73.531.592.592 0 0 1-.177-.026 32.841 32.841 0 0 1 1.321 3.147c.37 1.023.715 2.123 1.025 3.268a64.807 64.807 0 0 1 1.393 6.692c.334 2.086.613 4.278.854 6.7l.219 2.233c.184 1.9.363 3.922.365 5.967a21.592 21.592 0 0 1-.984 6.556 19 19 0 0 1-7.7 10.179 18.4 18.4 0 0 1-2.789 1.5 17.865 17.865 0 0 1-3.025 1 20.144 20.144 0 0 1-4.54.518zm-28.632-49.9a.43.43 0 0 0-.419.292 1.6 1.6 0 0 0 .011 1.149 1.509 1.509 0 0 0 .8.816.566.566 0 0 0 .225.049.4.4 0 0 0 .359-.2.468.468 0 0 0 .032-.366.347.347 0 0 0-.185-.221.707.707 0 0 1-.431-.961l.012-.036a.357.357 0 0 0-.032-.341.454.454 0 0 0-.371-.18zm-7.034-1.614a.424.424 0 0 0-.283.113 1.951 1.951 0 0 0-.468.594 1.258 1.258 0 0 0-.125.738 1.723 1.723 0 0 0 .926 1.192.414.414 0 0 0 .216.065.383.383 0 0 0 .254-.1.492.492 0 0 0 .147-.236.4.4 0 0 0-.186-.469l-.053-.032a.853.853 0 0 1-.462-.534c-.037-.265.2-.474.355-.612a.363.363 0 0 0 .113-.414.481.481 0 0 0-.434-.3zm2.487-6.575a.384.384 0 0 0-.224.079 1.611 1.611 0 0 0-.776 1.205 1.761 1.761 0 0 0 .567 1.319.387.387 0 0 0 .284.132.462.462 0 0 0 .4-.285.4.4 0 0 0-.084-.453.9.9 0 0 1-.3-.667.7.7 0 0 1 .308-.49l.029-.022a.443.443 0 0 0 .163-.509.411.411 0 0 0-.37-.31zM16.6 49.041a.958.958 0 0 1-.777-.392c-.118-.156-.23-.314-.339-.467a7.562 7.562 0 0 0-.932-1.143 5.342 5.342 0 0 0-.524-.422 2.568 2.568 0 0 1-.892-.919.039.039 0 0 1 .014-.054 1.22 1.22 0 0 1 .614-.152 3.79 3.79 0 0 1 1.585.508 5.2 5.2 0 0 1 2.042 1.729.793.793 0 0 1 .07.833.992.992 0 0 1-.861.479z" transform="translate(-0.853 1.714)"/>
    </g>
    <g id="FACE" transform="translate(75.724 52.286)">
        <path id="_Ink-3" d="M15.042 28.6a1.716 1.716 0 0 1-1.271-.577 2.029 2.029 0 0 1-.386-.616 2.109 2.109 0 0 1-.153-.739 3.4 3.4 0 0 1 1.275-2.43 7.435 7.435 0 0 1 1.931-1.362 4.447 4.447 0 0 1 .989-.351 3.163 3.163 0 0 1 .5-.052 2.713 2.713 0 0 0 .573-.073.1.1 0 0 1 .026 0 .115.115 0 0 1 .1.076.094.094 0 0 1-.026.107 3 3 0 0 0-.558.82c-.08.149-.156.29-.236.414-.221.342-.454.711-.663 1.095a12.252 12.252 0 0 0-.631 1.292l-.035.09c.038.09.07.181.1.254l.03.083.009.023a1.141 1.141 0 0 1 .074.509 1.367 1.367 0 0 1-.137.489 1.7 1.7 0 0 1-1 .87 1.792 1.792 0 0 1-.511.078zm1.128-2.746a.587.587 0 0 1 .233.27.429.429 0 0 0-.233-.273zM17 18.6a4.971 4.971 0 0 1-1.775-.358 8.961 8.961 0 0 1-2.088-1.187.8.8 0 0 1-.291-.464.963.963 0 0 1 .041-.521 1.186 1.186 0 0 1 .351-.509.855.855 0 0 1 .548-.214.776.776 0 0 1 .424.13l.143.11a11.3 11.3 0 0 0 1.307.91 3.215 3.215 0 0 0 1.566.5 1.689 1.689 0 0 0 .662-.13 1.85 1.85 0 0 0 .616-.437 1.9 1.9 0 0 0 .359-1.524 2.881 2.881 0 0 0-.763-1.352 5.564 5.564 0 0 0-1.155-.934.359.359 0 0 1-.1-.412.538.538 0 0 1 .178-.257.546.546 0 0 1 .341-.113.725.725 0 0 1 .123.011 3.868 3.868 0 0 1 1.362.493 3.091 3.091 0 0 1 .916.846 3.365 3.365 0 0 1 .585 2.245 3.7 3.7 0 0 1-.3 1.179 3.439 3.439 0 0 1-.675 1.013A3.224 3.224 0 0 1 17 18.6zM5.963 10.5a1.069 1.069 0 0 1-.815-.334 1.774 1.774 0 0 1-.5-1.142 1.556 1.556 0 0 1 .04-.351l-.5.009c-.3 0-.552.007-.786.007A17.8 17.8 0 0 1 .5 8.491a.339.339 0 0 1-.065.009.393.393 0 0 1-.275-.124.555.555 0 0 1-.15-.287.445.445 0 0 1 .306-.517A19.551 19.551 0 0 1 5.3 6.578l.147-.016c.811-.09 1.64-.155 2.441-.218l.207-.016.19-.016.278-.025c.392-.037.8-.074 1.194-.074a4.447 4.447 0 0 1 1 .1.988.988 0 0 1 .586.374 1.086 1.086 0 0 1 .2.618 1.236 1.236 0 0 1-.192.7 1.051 1.051 0 0 1-.6.448 5.6 5.6 0 0 1-1.528.172c-.2 0-.395 0-.586-.009s-.384-.008-.577-.008h-.542a2.183 2.183 0 0 1-.315.94 4.692 4.692 0 0 1-.438.606 1.035 1.035 0 0 1-.802.346zm16.471-.977a1.163 1.163 0 0 1-.918-.477.944.944 0 0 1-.153-.858l.011-.033c.024-.068.046-.138.07-.213s.041-.132.064-.2l-.255-.022a6.369 6.369 0 0 1-1.23-.2 2.036 2.036 0 0 1-.53-.234.911.911 0 0 1-.339-.371.442.442 0 0 1 .065-.505 3.545 3.545 0 0 1 2.307-.71l.315-.027h.044c.2-.021.416-.045.622-.069a17.829 17.829 0 0 1 2-.154 6.742 6.742 0 0 1 .689.033 1.343 1.343 0 0 1 .9.434 1.245 1.245 0 0 1 0 1.619 1.342 1.342 0 0 1-.9.434 6.832 6.832 0 0 1-.69.03c-.33 0-.687-.019-1.124-.059a1.142 1.142 0 0 1-.022 1.027 1.052 1.052 0 0 1-.794.541 1 1 0 0 1-.132.01zM2.223 4.288a4.462 4.462 0 0 1-1.53-.214.238.238 0 0 1-.059-.427 6.093 6.093 0 0 1 1.944-.769c.153-.041.3-.08.44-.122.753-.218 1.537-.427 2.4-.641.305-.076.619-.151.922-.225A38.97 38.97 0 0 0 10.484.72a1.091 1.091 0 0 1 .374-.066 1.273 1.273 0 0 1 .86.359 1.415 1.415 0 0 1 .443.826 1.266 1.266 0 0 1-.235.96 1.362 1.362 0 0 1-.449.374 1.748 1.748 0 0 1-.6.186h-.039c-.878.1-1.767.237-2.627.372-.828.13-1.683.265-2.529.361-.806.092-1.6.148-2.361.169l-.563.013c-.188.01-.358.014-.535.014zm20.283-1.27c-.347 0-.7-.007-1.038-.021l-.338-.015-.355-.011a10.635 10.635 0 0 1-1.641-.133 2.082 2.082 0 0 1-1.291-.64 1.219 1.219 0 0 1-.244-.534 1.973 1.973 0 0 1 .014-.744 1.064 1.064 0 0 1 .446-.691A1.367 1.367 0 0 1 18.831 0a1.309 1.309 0 0 1 1.077.509c.233.08.538.163.808.237.153.042.3.081.417.116.545.162 1.132.335 1.726.5.9.258 1.807.574 2.68.879.279.1.567.2.851.3a.1.1 0 0 1 .076.108.117.117 0 0 1-.1.1 29.624 29.624 0 0 1-3.86.269z" transform="translate(7.415 8)"/>
    </g>
    <g id="FACIAL_HAIR" transform="translate(70.59 74)">
        <path id="_Ink-4" d="M27.368 39.156a34.682 34.682 0 0 1-6.344-.6 35.086 35.086 0 0 1-6.109-1.717 29.246 29.246 0 0 1-5.421-2.724A20.683 20.683 0 0 1 5.215 30.5a9.686 9.686 0 0 1-1.977-1.727 10.681 10.681 0 0 1-1.429-2.123 13.8 13.8 0 0 1-.958-2.424 19.218 19.218 0 0 1-.566-2.635 46.178 46.178 0 0 1 .1-10.82c.081-.718.143-1.466.2-2.189C.8 5.953 1.027 3.235 2.192.894a.746.746 0 0 1 .18-.606A.8.8 0 0 1 2.954 0a.564.564 0 0 1 .526.373c.756 1.709 1.613 3.646 2.572 5.457.508.959 1.005 1.812 1.519 2.605a24.052 24.052 0 0 0 1.782 2.423 11.179 11.179 0 0 0 1.471 1.634 14.686 14.686 0 0 0 1.953 1.52 11.371 11.371 0 0 0 2.181 1.121 6.218 6.218 0 0 0 2.154.437 3.191 3.191 0 0 0 2.154-.748 4.6 4.6 0 0 0 1.348-2.555 5.509 5.509 0 0 1 1.653-2.05 9.174 9.174 0 0 1 2.5-1.35 15.222 15.222 0 0 1 2.945-.743 19.676 19.676 0 0 1 3-.227 16.965 16.965 0 0 1 2.709.205 4.889 4.889 0 0 1 2.55 1.479 7.869 7.869 0 0 1 1.2 2.033 5.83 5.83 0 0 0 1.062 1.762 2.407 2.407 0 0 0 .858.552 3.547 3.547 0 0 0 1.271.205 6.364 6.364 0 0 0 .658-.036.512.512 0 0 0 .143.02h.037a5.264 5.264 0 0 0 .536-1.032c.063-.147.123-.286.186-.418l-.023-.106a1.642 1.642 0 0 1-.038-.21 1.237 1.237 0 0 1 .384-.374.98.98 0 0 1 .511-.141 1.257 1.257 0 0 1 .444.087.789.789 0 0 1 .053.157 48.2 48.2 0 0 1 1.144 11.3 32.331 32.331 0 0 1-.636 5.661 24.562 24.562 0 0 1-1.742 5.343 17.483 17.483 0 0 1-6.584 3.621 24.721 24.721 0 0 1-3.913.866 30 30 0 0 1-4.154.285zm3.027-26.612a9.711 9.711 0 0 0-1.488.114 8.186 8.186 0 0 0-1.439.354 5.708 5.708 0 0 0-1.261.611 3.712 3.712 0 0 0-.954.886 2.906 2.906 0 0 0-.544 1.33 3.953 3.953 0 0 0 .173 1.716 3.077 3.077 0 0 0 .733 1.026 1.766 1.766 0 0 0 1.139.516 1.172 1.172 0 0 0 .363-.058c.45-.146.693-.665.928-1.166a3.417 3.417 0 0 1 .456-.8 2.724 2.724 0 0 1 .74-.539 1.638 1.638 0 0 1 .7-.162 2.266 2.266 0 0 1 1.34.531 10.59 10.59 0 0 1 1.211 1.129c.255.263.5.511.734.725a1 1 0 0 0 .559.19.92.92 0 0 0 .665-.318 2.03 2.03 0 0 0 .5-1.394 4.8 4.8 0 0 0-.24-1.176 7.764 7.764 0 0 0-.578-1.339 4.324 4.324 0 0 0-1.92-1.992 8.543 8.543 0 0 0-1.817-.185z" transform="translate(-0.714 -3.857)"/>
    </g>
</svg>
