<svg xmlns="http://www.w3.org/2000/svg" width="113.009" height="169.603" viewBox="0 0 113.009 169.603">
  <defs>
    <style>
      .cls-1 {
        fill: #21272f;
      }

      .cls-2 {
        fill: #dfdfdf;
      }

      .cls-3, .cls-4 {
        fill: none;
        stroke: #000;
        stroke-width: 2.5px;
      }

      .cls-3 {
        stroke-linecap: round;
        stroke-linejoin: round;
      }

      .cls-4 {
        stroke-miterlimit: 10;
      }

      .cls-5 {
        fill: #f2f2f2;
      }

      .cls-6, .cls-7 {
        fill: #fff;
      }

      .cls-6 {
        font-size: 17px;
        font-family: Helvetica;
      }
    </style>
  </defs>
  <g id="drawkit-support-woman-monochrome" transform="translate(0.001 0)">
    <path id="Path_170" data-name="Path 170" class="cls-1" d="M508.544,555.65c-.093,0-.151,2.879-.182,7.543.14,1.5.238,2.529.238,2.649a.093.093,0,0,1-.04.064,6.254,6.254,0,0,1,.675,2.892,6.068,6.068,0,0,1-.908,3.284c-.031,23.419.216,63.608.216,63.608h5.581l15.564-73.043C523.665,561.494,513.778,557.854,508.544,555.65Z" transform="translate(-466.818 -479.283)"/>
    <path id="Path_171" data-name="Path 171" class="cls-2" d="M503.444,512.187c-.318,2.456,1.122,16.245,1.122,16.7a.092.092,0,0,1-.04.063,6.255,6.255,0,0,1,.675,2.892,6.482,6.482,0,0,1-.412,2.307l5.773-.432-1.736-23.22-5.127.383C503.569,511.451,503.48,511.9,503.444,512.187Z" transform="translate(-462.786 -442.33)"/>
    <path id="Path_172" data-name="Path 172" class="cls-2" d="M443.7,535.945a6.2,6.2,0,0,1,.735-3,105.606,105.606,0,0,1-2.289-15.883q-.049-.768-.069-1.55l-5.346.4,1.736,23.22,5.838-.436A6.318,6.318,0,0,1,443.7,535.945Z" transform="translate(-408.221 -446.431)"/>
    <path id="Path_173" data-name="Path 173" class="cls-1" d="M604.746,592.4c.122,2.395,5.782,71.868,5.782,71.868h-5.782L589.74,612.1s3.909-20.878,4.176-20.829C595.19,591.606,602.263,592.854,604.746,592.4Z" transform="translate(-533.453 -508.437)"/>
    <path id="Path_174" data-name="Path 174" class="cls-3" d="M680.636,334.927a41.5,41.5,0,0,1,6.354,6.044c1.494-1.107,18.487-15.221,18.819-16,.663-.387,2.1,1.772,0,3.542,1.438-.054,9.907-.276,9.907,0s1.826,1.053-10.628,3.044c-1.659,2-16.6,19.592-19.039,19.592-1.663,0-6.808-4.486-10.039-7.879" transform="translate(-604.061 -290.449)"/>
    <path id="Path_175" data-name="Path 175" class="cls-3" d="M645.214,343.6c2.471-1.554,5.1-4.268,5.888-6.392.466-1.26-7.224-7.08-11.982-7.91" transform="translate(-573.868 -294.026)"/>
    <path id="Path_176" data-name="Path 176" class="cls-3" d="M505.32,350.914c4.194,3.246,28.29,10.166,30.332,8.059s5.7-47.45-12.2-52.913" transform="translate(-464.359 -275.005)"/>
    <path id="Path_177" data-name="Path 177" class="cls-3" d="M531.4,304.53a13.165,13.165,0,0,0-8.378,5.561" transform="translate(-478.845 -273.753)"/>
    <path id="Path_178" data-name="Path 178" class="cls-3" d="M587.18,291.993c1.634,0,3.268-.309,3.268-.908V283.66" transform="translate(-531.358 -256.672)"/>
    <path id="Path_179" data-name="Path 179" class="cls-3" d="M569.17,284.25v3.682" transform="translate(-516.617 -257.155)"/>
    <ellipse id="Ellipse_4" data-name="Ellipse 4" class="cls-4" cx="7.445" cy="12.481" rx="7.445" ry="12.481" transform="translate(48.314 3.346)"/>
    <path id="Path_180" data-name="Path 180" d="M417.127,135.545c-3.749,0-8.736,1.815-12.345,1.815-3.259,0-9.212-2.36-12.345-2.36-2,0-11.437.93-11.437,8.533,0,3.431,3.631,6.717,4.357,7.625s2.057,5.991,5.446,5.991c4.735,0,8-3.449,12.345-3.449,2.99,0,3.769.726,5.265.726a9.659,9.659,0,0,0,2.723-.545c0-.556-.111-5.265.545-6.029.908-1.089,12.463.532,12.463-3.308.808.726,1.578,3.812,1.578,4.442.523-.552,2.48-2.912,2.48-5.454C428.2,141.234,426.568,135.545,417.127,135.545Z" transform="translate(-362.608 -135)"/>
    <path id="Path_181" data-name="Path 181" class="cls-5" d="M504.566,536.508a.093.093,0,0,1-.04.064,6.255,6.255,0,0,1,.675,2.892,5.449,5.449,0,0,1-1.748,4.234l8.934-.668-1.736-23.22-7.245.545C503.29,523.838,504.566,536.078,504.566,536.508Z" transform="translate(-462.786 -449.95)"/>
    <path id="Path_182" data-name="Path 182" class="cls-5" d="M451.925,544.154a6.2,6.2,0,0,1,.735-3,106.169,106.169,0,0,1-2.271-15.613l-3.609.265,1.736,23.22,5.484-.41A5.208,5.208,0,0,1,451.925,544.154Z" transform="translate(-416.446 -454.64)"/>
    <path id="Path_183" data-name="Path 183" class="cls-3" d="M468.539,410.84c-.959,3.578-2.868,12.614-2.36,20.553a105.7,105.7,0,0,0,2.289,15.883,6.2,6.2,0,0,0-.735,3c0,2.692,1.552,4.876,3.467,4.876s3.469-2.179,3.469-4.876a6.254,6.254,0,0,0-.675-2.892.093.093,0,0,0,.04-.064c0-.458-1.44-14.246-1.122-16.7.269-2.091,3.328-12.692,4.154-16.864" transform="translate(-432.254 -360.763)"/>
    <path id="Path_184" data-name="Path 184" class="cls-3" d="M482.525,337.835a3.534,3.534,0,0,0-1.935-2.58c-4.954-1.587-10.824,9.733-10.266,11.682.526,1.843,4.486,3.792,7.906,4.446" transform="translate(-435.686 -298.776)"/>
    <circle id="Ellipse_5" data-name="Ellipse 5" class="cls-2" cx="12.399" cy="12.399" r="12.399" transform="translate(-0.001 29.379)"/>
    <path id="Path_185" data-name="Path 185" class="cls-2" d="M377.871,315.48l-14.921,3.008,3.66,7.235Z" transform="translate(-347.835 -282.715)"/>
    <path id="Path_186" data-name="Path 186" class="cls-2" d="M715.29,193.184l14.671,4.054V189.13Z" transform="translate(-636.21 -179.303)"/>
    <text id="_" data-name="?" class="cls-6" transform="translate(8.332 46.408)"><tspan x="0" y="0">?</tspan></text>
    <rect id="Rectangle_20" data-name="Rectangle 20" class="cls-2" width="28.312" height="19.716" transform="translate(84.668 3.346)"/>
    <circle id="Ellipse_6" data-name="Ellipse 6" class="cls-7" cx="1.362" cy="1.362" r="1.362" transform="translate(91.064 11.84)"/>
    <circle id="Ellipse_7" data-name="Ellipse 7" class="cls-7" cx="1.362" cy="1.362" r="1.362" transform="translate(97.461 11.84)"/>
    <circle id="Ellipse_8" data-name="Ellipse 8" class="cls-7" cx="1.362" cy="1.362" r="1.362" transform="translate(103.861 11.84)"/>
    <path id="Path_187" data-name="Path 187" class="cls-3" d="M516.87,509.248a1.12,1.12,0,0,1-1.031,1.2h0a1.12,1.12,0,0,1-1.2-1.031l-.276-3.689a1.122,1.122,0,0,1,1.031-1.2h0a1.122,1.122,0,0,1,1.2,1.031l.147,1.955" transform="translate(-471.761 -437.44)"/>
    <path id="Path_188" data-name="Path 188" class="cls-3" d="M494.375,994.91v6.9l-9.575,5.045,5.57-6.145V994.55" transform="translate(-447.564 -838.504)"/>
    <path id="Path_189" data-name="Path 189" class="cls-3" d="M675.43,991.72v7.472h13.18l-8.787-4.3V991.35" transform="translate(-603.586 -835.885)"/>
  </g>
</svg>
