<svg xmlns="http://www.w3.org/2000/svg" width="163.169" height="173.066" viewBox="0 0 163.169 173.066">
  <defs>
    <style>
      .cls-1 {
        fill: #f2f2f2;
      }

      .cls-2 {
        fill: #e0e0e0;
      }

      .cls-2, .cls-3, .cls-4, .cls-7, .cls-8 {
        fill-rule: evenodd;
      }

      .cls-3 {
        fill: #f3f3f3;
      }

      .cls-4, .cls-5, .cls-6, .cls-8 {
        fill: none;
      }

      .cls-4, .cls-8 {
        stroke: #000;
        stroke-width: 2.5px;
      }

      .cls-4, .cls-6, .cls-8 {
        stroke-linecap: round;
      }

      .cls-4, .cls-5, .cls-6 {
        stroke-linejoin: round;
      }

      .cls-5, .cls-6 {
        stroke: #f3f3f3;
        stroke-width: 4.41px;
      }

      .cls-7 {
        fill: #21272f;
      }

      .cls-8 {
        stroke-miterlimit: 10;
      }

      .cls-9 {
        fill: #8092ab;
        font-size: 7px;
        font-family: Helvetica-Bold, Helvetica;
        font-weight: 700;
      }
    </style>
  </defs>
  <g id="Layer_2" data-name="Layer 2" transform="translate(0 0)">
    <g id="Layer_1" data-name="Layer 1" transform="translate(0 0)">
      <path id="Path_253" data-name="Path 253" class="cls-1" d="M224.238,28.759C208.824,8.98,183.59-3.4,163.641.83c-19.949,4.193-34.614,25.029-44.027,43.441S106.008,78.646,109.35,92.8s14.18,26.427,30.452,38.535c16.267,12.071,37.99,23.938,57.4,19.164s36.489-26.222,42.251-50.5S239.652,48.537,224.238,28.759ZM192.931,78.464a7.837,7.837,0,0,1-4.025,3.745,148.148,148.148,0,0,1-6.7,16.5,35.489,35.489,0,0,1-4.218-4.117c.567-1.056,1.715-5.638,2.64-10.066-4.445.565-9,.259-11.722-1.04-1.436-1.139-4.081-15.828-1.958-28.068a18.781,18.781,0,0,1-4.855-4.135c-.032-1.956,5.852-9.132,10.592-10.788a65.342,65.342,0,0,0-.844-7,11.46,11.46,0,0,1-2.733-8.582,13.075,13.075,0,0,1,.477-2.7c-.236-4.052.768-8.94,8.425-9.192,8.382,0,11.466,7.254,11.6,11.945,0,15.322,5.56,17.127,5.56,26.664,0,4.3-.968,7.2-2.476,9.145C193.872,68.148,193.921,75.315,192.931,78.464Z" transform="translate(-83.855 -0.002)"/>
      <path id="Path_254" data-name="Path 254" class="cls-2" d="M111.071,189.337a12.091,12.091,0,0,1-2.2,5.665c1.215,7.428,1.274,14.682.277,17.852A7.945,7.945,0,0,1,105,216.663,148.733,148.733,0,0,1,98.351,233a35.487,35.487,0,0,1-4.218-4.117c.563-1.047,1.695-5.562,2.615-9.953-4.414.549-8.934.225-11.628-1.051-1.627-1.292-4.808-19.974-.846-32.786l-33.049-5.231-6.089,4.4-4.43-6.077L9.847,173.3,0,235.523l31.172,4.934,5.726-4.142,4.169,5.708,112.257,17.768,9.845-62.207Z" transform="translate(0 -134.293)"/>
      <path id="Path_255" data-name="Path 255" class="cls-3" d="M487.1,297.83c.151,1.924.225,3.75.2,5.4l33,5.215.828-5.231Z" transform="translate(-377.461 -230.793)"/>
      <path id="Path_256" data-name="Path 256" class="cls-3" d="M272.074,264.246l-26.506-4.2-.828,5.231,27.323,4.324C272,267.863,272,266.062,272.074,264.246Z" transform="translate(-189.653 -201.517)"/>
      <path id="Path_257" data-name="Path 257" class="cls-4" d="M391.21,149.63a48.819,48.819,0,0,1,.723,5.976,3.312,3.312,0,0,1-.036.774" transform="translate(-303.154 -115.951)"/>
      <path id="Path_258" data-name="Path 258" class="cls-4" d="M347.59,189.067c1.173-3.325,8.889-12.1,13.264-10.457" transform="translate(-269.353 -138.25)"/>
      <path id="Path_259" data-name="Path 259" class="cls-5" d="M163.72,273.495l8.328-52.6" transform="translate(-126.869 -171.171)"/>
      <path id="Path_260" data-name="Path 260" class="cls-3" d="M92.3,342.83l4.693.743-3.228,20.395-4.7-.743Z" transform="translate(-69.022 -265.664)"/>
      <path id="Path_261" data-name="Path 261" class="cls-3" d="M108.008,278l4.693.743-1.648,10.41-4.693-.743Z" transform="translate(-82.42 -215.427)"/>
      <path id="Path_262" data-name="Path 262" class="cls-6" d="M483.9,356.53l17.052,2.7" transform="translate(-374.981 -276.281)"/>
      <path id="Path_263" data-name="Path 263" class="cls-6" d="M244.73,318.67l28.028,4.436" transform="translate(-189.645 -246.943)"/>
      <path id="Path_264" data-name="Path 264" class="cls-6" d="M239.58,352.24l31.926,5.053" transform="translate(-185.654 -272.956)"/>
      <path id="Path_265" data-name="Path 265" class="cls-6" d="M488.67,425.49l22.884,3.624" transform="translate(-378.678 -329.719)"/>
      <path id="Path_266" data-name="Path 266" class="cls-6" d="M235.61,385.44l31.062,4.916" transform="translate(-182.578 -298.684)"/>
      <path id="Path_267" data-name="Path 267" class="cls-4" d="M380.819,65.952c-.308-4.106.527-9.273,8.4-9.532,8.382,0,11.466,7.254,11.6,11.945,0,15.673,5.56,18.326,5.56,26.664,0,4.277-.961,7.173-2.476,9.127" transform="translate(-295.062 -43.721)"/>
      <path id="Path_268" data-name="Path 268" class="cls-7" d="M435.405,346.31c1.5,7.306,2.251,30.161,2,35.289,1.5,3.338,26.56,34.749,26.56,34.749l-4.182,5.262S425.6,395.5,423.766,392.52c-.394-.639-1.591-2.433-2.926-5.031" transform="translate(-326.115 -268.361)"/>
      <path id="Path_269" data-name="Path 269" class="cls-4" d="M380.329,222.777c-4.418.551-8.945.239-11.644-1.051-2.222-1.762-7.333-35.924,6.753-43.336" transform="translate(-283.565 -138.238)"/>
      <path id="Path_270" data-name="Path 270" class="cls-4" d="M438.23,175.1c9.64,4.052,12.755,31.9,10.507,39.05a7.91,7.91,0,0,1-4.108,3.788" transform="translate(-339.591 -135.688)"/>
      <path id="Path_271" data-name="Path 271" class="cls-8" d="M420.15,261.951c.52,3.944,1.891,13.01,2.026,15.306.153,2.489-2.949,16.881-4.016,18.858a35.673,35.673,0,0,0,4.218,4.117s5.9-12.1,8.2-21.775c.664-2.791-.81-15.434-1.443-18.457" transform="translate(-324.038 -201.478)"/>
      <path id="Path_272" data-name="Path 272" class="cls-4" d="M251.905,717.505l-3.581,8.553-15.7-6.181,13.3-1.621,1.632-3.027Z" transform="translate(-180.261 -554.243)"/>
      <path id="Path_273" data-name="Path 273" class="cls-4" d="M598.454,659.15l7.972,4.749-8.328,14.68.266-13.393-2.764-2.042Z" transform="translate(-461.539 -510.785)"/>
      <path id="Path_274" data-name="Path 274" class="cls-8" d="M421,190.333c5.429-.8,8.409,11.612,7.743,14.905-1.94,2.264-7.259,3.084-11.029,2.534C415.98,205.949,415.568,191.13,421,190.333Z" transform="translate(-322.795 -147.464)"/>
      <path id="Path_275" data-name="Path 275" class="cls-4" d="M408.21,164.05v-4.86" transform="translate(-316.328 -123.359)"/>
      <path id="Path_276" data-name="Path 276" class="cls-4" d="M423.321,147.47v7.612a6.324,6.324,0,0,1-4.331,1.006" transform="translate(-324.682 -114.277)"/>
      <text id="brouchers" class="cls-9" transform="translate(12.32 96.801) rotate(-80.93)"><tspan x="0" y="0">brouchers</tspan></text>
      <path id="Path_277" data-name="Path 277" class="cls-4" d="M388.651,82.909A13.51,13.51,0,0,1,382.869,74a11.323,11.323,0,0,0-4.225,8.357c-.383,5.4,2.539,10.05,6.629,10.8" transform="translate(-293.391 -57.344)"/>
      <path id="Path_278" data-name="Path 278" class="cls-4" d="M434,114.31a2.21,2.21,0,1,1,.153,3.552" transform="translate(-336.313 -88.2)"/>
      <path id="Path_279" data-name="Path 279" class="cls-7" d="M334.078,356.258a148.314,148.314,0,0,1-6.7,16.5,35.673,35.673,0,0,1-4.218-4.117c.569-1.06,1.72-5.659,2.645-10.093-4.394.549-8.891.245-11.594-1.026-2.282,7.738-7.477,28.581-8.474,34.983-1.125,7.223-10.167,42.282-10.167,42.282l5.188,2.807s38.186-67.962,36.792-83.993h0a9.541,9.541,0,0,1-3.471,2.656" transform="translate(-229.042 -274.01)"/>
    </g>
  </g>
</svg>
