<svg xmlns="http://www.w3.org/2000/svg" width="226.602" height="179" viewBox="0 0 226.602 179">
    <defs>
        <style>
            .cls-1{fill:#21272f}.cls-2,.cls-3,.cls-4{fill:none;stroke:#000;stroke-width:2.5px}.cls-2,.cls-4{stroke-linecap:round}.cls-2{stroke-linejoin:round}.cls-3,.cls-4{stroke-miterlimit:10}
        </style>
    </defs>
    <g id="drawkit-phone-conversation-monochrome" transform="translate(-78.333 -238.147)">
        <g id="Shadows" transform="translate(112.482 277.916)">
            <path id="Path_112" d="M257.993 411.481c.9 1.1 5.443 9.461 6.23 15.222-2.872-.282-7-1.033-7-1.033l-1.037.863-1.218.493-1.286-5.875-1.306-3.943-2.223-4.781-1.618-2.5 1.157-.054 4.408.59z" class="cls-1" transform="translate(-226.719 -409.87)"/>
            <path id="Path_113" d="M159.289 486.85c-.2.768-2.1 16.578 2.485 22.711a61.326 61.326 0 0 1-6.338-2.983l-2.212-3.907-1.224-6.916 4.657-7.319 1.261.2z" class="cls-1" transform="translate(-152 -469.456)"/>
            <path id="Path_114" d="M916.693 576.526c-1.182.391-13.652 22.394-8.5 34.345a16.173 16.173 0 0 1-10.771-7.231l-1.659-4.185-1.489-4.933-1.378-6.379 6.84-3.163.958.813 1.22-.348 4.591-3.254s4.46-3.762 5.436-6.114c1.439-.353 4.375-.663 4.752.449z" class="cls-1" transform="translate(-725.491 -538.269)"/>
        </g>
        <g id="Vector" transform="translate(79.624 239.397)">
            <path id="Path_115" d="M924.53 587.216l17.805-66.8-23.651-.043-1.559 4.7c5.371 8.668 8.41 25.549 8.512 30.529.057 2.824.452 10.83-1.322 11.3-3.814 1.012-14.635-1.066-19.846-3.737l-5.99 18.031" class="cls-2" transform="translate(-718.274 -456.883)"/>
            <path id="Path_116" d="M930.914 436.63l-2.034 3.421a2.638 2.638 0 0 1 2.992-.572c2.454 1.209 1.2 4.293.49 5.186a27.955 27.955 0 0 0-3.044 4.051l1.6.947 5.71-9.648z" transform="translate(-741.805 -392.064)"/>
            <path id="Path_117" d="M860.9 816.27L850 857.6" class="cls-2" transform="translate(-680.748 -685.923)"/>
            <path id="Path_118" d="M777.072 813.49L766 855.447" class="cls-2" transform="translate(-615.729 -683.771)"/>
            <path id="Path_119" d="M900.887 816.27H867.92" class="cls-2" transform="translate(-694.619 -685.923)"/>
            <path id="Path_120" d="M800.152 714.231c0-1.765-6.282-3.211-10.168-3.211s-20.9 2.33-24.145 6c-1.6 7.377 6.51 47.371 8.338 49.836a4.557 4.557 0 0 0 3.936.117c.676-.56 2.585-18.286 2.3-22.34s3.182-18.8 3.182-18.8 16.557-9.847 16.557-11.602z" class="cls-1" transform="translate(-615.443 -604.455)"/>
            <path id="Path_121" d="M911.59 526.8a21.528 21.528 0 0 1 3.547-2.241" class="cls-2" transform="translate(-728.422 -460.126)"/>
            <path id="Path_122" d="M909.191 522.85c7.6 5.342 12 28.66 12.122 34.666.057 2.824.452 10.83-1.322 11.3-4.474 1.189-18.544-1.869-21.963-5.145-.827-.793-3.692-8.134-5.129-16.316" class="cls-2" transform="translate(-713.955 -458.803)"/>
            <path id="Path_123" d="M927.29 505.5c.034-1.658.045-4.038 0-5.563" class="cls-2" transform="translate(-740.574 -441.069)"/>
            <path id="Path_124" d="M949.395 471.06c-.057.723-.391 12.321-.334 13.026-.739.816-2.757 1.13-4.65 1.177" class="cls-2" transform="translate(-753.826 -418.715)"/>
            <path id="Path_125" d="M961.665 443.47a2.309 2.309 0 1 1-1.175 4.359" class="cls-2" transform="translate(-766.273 -397.359)"/>
            <path id="Path_126" d="M898.911 431.641a15.227 15.227 0 0 1-2.151-8.028 16.323 16.323 0 0 1 .9-5.423" class="cls-2" transform="translate(-716.942 -377.791)"/>
            <path id="Path_127" d="M932.567 494.11a6.258 6.258 0 0 1-2.18.393 6.152 6.152 0 0 1-1.277-.133" class="cls-2" transform="translate(-741.983 -436.557)"/>
            <path id="Path_128" d="M967.238 462.76a12.166 12.166 0 0 1-.768 1.875" class="cls-2" transform="translate(-770.902 -412.29)"/>
            <path id="Path_129" d="M242.43 378.78a22.232 22.232 0 0 1-4.04.409c-.678 0-1.46-.032-2.3-.106" class="cls-3" transform="translate(-205.554 -347.286)"/>
            <path id="Path_130" d="M151.888 267.423a16.732 16.732 0 0 1-8.586-12.8c-.343-10.315 7.2-15.162 16.994-15.227 12.107-.079 22.9 6.507 31.487 6.507s6.442-2.6 18.754-2.768c8.835-.072 13.044 5.294 12.925 13.749.093 8.828-7.163 12.879-14.615 12.879s-16.465-2.429-22.354-2.429a28.137 28.137 0 0 0-7.251 1.283" class="cls-3" transform="translate(-133.722 -239.397)"/>
            <path id="Path_131" d="M308.833 430.224c-.5-.129-1.005-.246-1.473-.334" class="cls-4" transform="translate(-260.72 -386.847)"/>
            <path id="Path_132" d="M246.66 359.18c3.889 4.133 11.189 13.212 15.25 16.325" class="cls-4" transform="translate(-213.735 -332.115)"/>
            <path id="Path_133" d="M261.465 342.4c-4.971-4.126-9.684-6.88-11.935-7.694" class="cls-4" transform="translate(-215.957 -313.174)"/>
            <path id="Path_134" d="M285.76 393.771c3.672.915 14.434 2.732 20.153-1.536-2.133-9.449-9.526-17.774-16.4-23.474" class="cls-4" transform="translate(-244.001 -339.53)"/>
            <path id="Path_135" d="M283.813 429.89c-.526 3.337-4.634 12.032-6.1 12.427a1.953 1.953 0 0 1-.773-.052" class="cls-2" transform="translate(-237.173 -386.847)"/>
            <path id="Path_136" d="M248.19 409.69a32.512 32.512 0 0 1 12.387 2.763" class="cls-4" transform="translate(-214.92 -371.212)"/>
            <path id="Path_137" d="M179.94 396.584a13.62 13.62 0 0 1 2.343-1.654" class="cls-3" transform="translate(-162.091 -359.787)"/>
            <path id="Path_138" d="M153.85 533.168c-.628-2.7-1.1-5.222-1.43-7.588" class="cls-2" transform="translate(-140.789 -460.916)"/>
            <path id="Path_139" d="M182.111 392.14c10.423 5.215 15.252 33.511 8.966 42.427-5.052.626-17.875.608-22.507-1.173" class="cls-2" transform="translate(-153.29 -357.627)"/>
            <path id="Path_140" d="M156.973 493.87c-1.039 1.785-2.937 4.795-4.553 7.165" class="cls-3" transform="translate(-140.789 -436.371)"/>
            <path id="Path_141" d="M110.878 480.327c3.125 4.924 9.716 17.037 10.276 18.528a8.908 8.908 0 0 1-2.838 4.632c-1.536-.874-15.977-16.108-17.218-20.991-1-3.95 3.2-14.118 5.283-18.386" class="cls-2" transform="translate(-100.946 -413.335)"/>
            <path id="Path_142" d="M146.677 525.58c-.626.92-1.207 1.744-1.677 2.364" class="cls-2" transform="translate(-135.046 -460.916)"/>
            <path id="Path_143" d="M228.345 387.565c-.02-.511-.036-.981-.045-1.335" class="cls-2" transform="translate(-199.524 -353.053)"/>
            <path id="Path_144" d="M198 411.329a17.2 17.2 0 0 0 4.411-.029" class="cls-4" transform="translate(-176.07 -372.458)"/>
            <path id="Path_145" d="M188.4 375.45c.072.574.452 4.612.637 6.639" class="cls-3" transform="translate(-168.64 -344.708)"/>
            <path id="Path_146" d="M136.34 421.366a4.69 4.69 0 0 1-1.369 1.744c-1.627.651-12.391-6.071-12.615-7.811s8.668-16.226 15.561-12.412" class="cls-2" transform="translate(-117.515 -365.453)"/>
            <path id="Path_147" d="M197.92 411.42a7.62 7.62 0 0 1 .9 3.993" class="cls-2" transform="translate(-176.008 -372.551)"/>
            <path id="Path_148" d="M246.66 316.9a17.8 17.8 0 0 1 .542 2.876 18.024 18.024 0 0 1-.357 6.019l2.334 1.991 4.313-5.059z" transform="translate(-213.735 -299.388)"/>
            <path id="Path_149" d="M191.24 405.07l.138.077a3.986 3.986 0 0 1 1.372 1.356" class="cls-3" transform="translate(-170.838 -367.635)"/>
            <path id="Path_150" d="M231.526 319.575c2.26-2.485 3.509-6.738 3.021-11.4a17.624 17.624 0 0 0-1.857-6.263q-1.143 1.234-2.379 2.37" class="cls-2" transform="translate(-201.08 -287.785)"/>
            <path id="Path_151" d="M181.34 363.44c1.83 3.893 4.926 6.347 8.18 5.986a6.51 6.51 0 0 0 4.1-2.223" class="cls-2" transform="translate(-163.175 -335.412)"/>
            <path id="Path_152" d="M175.83 347a17.413 17.413 0 0 0 1.245 3.719" class="cls-2" transform="translate(-158.91 -322.687)"/>
            <path id="Path_153" d="M178.483 341.71q-1.3.642-2.653 1.191" class="cls-2" transform="translate(-158.91 -318.592)"/>
            <path id="Path_154" d="M321.24 920.4h44.877v22.625H321.24z" class="cls-2" transform="translate(-271.464 -766.525)"/>
            <path id="Path_155" d="M858.375 486.159c-2.985 1.839-13.688 7.852-17.972 1.67a7.021 7.021 0 0 1-.825-4.4c.1-8.469 14.188-28.52 15.8-29.412a5.619 5.619 0 0 0 2.458-2.711c.425-.755 2.415-4.191 4.869-2.983s1.2 4.293.49 5.186-2.831 3.279-3.082 4.153c-.086.3-.208.658-.355 1.06" class="cls-2" transform="translate(-672.629 -400.92)"/>
            <path id="Path_156" d="M901.244 495.26c-1.787 4.847-7.682 16.318-8.134 17.746a5.071 5.071 0 0 1 1.051-.784" class="cls-2" transform="translate(-714.118 -437.447)"/>
            <path id="Path_157" d="M987.45 816.21l10.907 41.35" class="cls-2" transform="translate(-787.141 -685.877)"/>
            <path id="Path_158" d="M888.12 816.27l10.9 41.329" class="cls-2" transform="translate(-710.255 -685.923)"/>
            <path id="Path_159" d="M913.3 543.39a4.8 4.8 0 0 1 2.648 2.158c3.272 5.606-10.168 15.41-11.808 15.193s-7.425-10.706-6.81-12.242c.226-.576 2.37-2.056 5.154-3.335" class="cls-2" transform="translate(-717.352 -474.702)"/>
            <path id="Path_160" d="M185.85 575.418l.02-.124h-.142c-.05.072-.1.149-.147.226-5.17.639-18.463.606-22.821-1.3 2.535 4.551 4.9 9.016 5.231 9.89a8.908 8.908 0 0 1-2.838 4.632 32.792 32.792 0 0 1-3.683-3.5c.865 21.987 2.727 69 2.858 70.758 1.613-.016 8.06.045 8.06.045l9.653-57.844c4.015 1.679 13.494 4.273 18.183 3.376L207.8 641l6.568.059s4.219-46.61 4.445-51c-5.157-7.908-28.913-14.273-32.963-14.641z" class="cls-1" transform="translate(-147.794 -498.565)"/>
            <path id="Path_161" d="M177.48 935.17v4.275l11.533 11.388-6.535-11.58v-4.083" class="cls-2" transform="translate(-160.187 -777.957)"/>
            <path id="Path_162" d="M370.09 868.17v11.8h17.344l-13.085-7.27v-4.151" class="cls-2" transform="translate(-309.276 -726.096)"/>
            <path id="Path_163" d="M777.184 957.79v6.9H764.23l9.77-4.252v-2.424" class="cls-2" transform="translate(-614.358 -795.466)"/>
            <path id="Path_164" d="M883.738 943.25l3.2 6.105-11.472 6.019 6.681-8.3-1.128-2.146" class="cls-2" transform="translate(-700.463 -784.212)"/>
            <path id="Path_165" d="M915.853 386c1.272 0 3.412-3.511 3.412-7.174 0-2.325-1.878-9.09-9.477-11.957-4.13-1.559-6.715-.429-11.318-4.067" class="cls-2" transform="translate(-718.266 -334.917)"/>
            <path id="Path_166" d="M892 368a12.434 12.434 0 0 0 3.645 4.637" class="cls-2" transform="translate(-713.258 -338.942)"/>
            <path id="Path_167" d="M887.91 375.69a12.253 12.253 0 0 0 2.77 5.2" class="cls-2" transform="translate(-710.092 -344.894)"/>
            <path id="Path_168" d="M904.2 433.26a7.019 7.019 0 0 1-1.288 3.645" class="cls-2" transform="translate(-721.703 -389.456)"/>
            <ellipse id="Ellipse_3" cx=".382" cy=".497" rx=".382" ry=".497" transform="translate(184.07 43.804)"/>
            <path id="Path_169" d="M805.026 700.11a4.2 4.2 0 0 1-.6-.99c-13.268 2.323-31.564 15.467-31.674 17.6-.122 2.359 24.977 40.22 27.277 40.082 1.4-.086 4-1.329 4.519-2.926.271-.856-9.314-28.71-10.127-30.852 8.338.506 32.4 2.892 32.659-16.847a3.279 3.279 0 0 0-.169-.9c-4.57 1.123-18.489-1.909-21.885-5.167z" class="cls-1" transform="translate(-620.952 -595.244)"/>
        </g>
    </g>
</svg>
