<svg xmlns="http://www.w3.org/2000/svg" width="177.265" height="182.392" viewBox="0 0 177.265 182.392">
    <defs>
        <style>
            .cls-1{fill:#21272f}.cls-10,.cls-4,.cls-5,.cls-8,.cls-9{fill:none}.cls-4{stroke:#efefef;stroke-width:5px}.cls-10,.cls-4,.cls-5,.cls-9{stroke-linecap:round}.cls-10,.cls-4,.cls-5{stroke-linejoin:round}.cls-10,.cls-5,.cls-8,.cls-9{stroke:#000}.cls-5{stroke-width:2px}.cls-8,.cls-9{stroke-miterlimit:10}.cls-10,.cls-8,.cls-9{stroke-width:2.5px}
        </style>
    </defs>
    <g id="Group_8" transform="translate(-5119 -108)">
        <g id="business-woman-monochrome" transform="translate(5119 108)">
            <g id="Shadows" transform="translate(103.386 61.146)">
                <path id="Path_65" d="M702.213 558.711c-1.779-2.287-5.017-18.4-.447-26.711-1.386 1.2-1.614 1.152-1.614 1.152l-.552-.209-1.768-.669-2.116 2.421-.418 1.482-.483 3.159-.415 2.964-.4 2.847-.332 3.171-.088 3.391v2.519l.454 1.125 2.09 1.221 2.717.792z" class="cls-1" transform="translate(-693.58 -516.22)"/>
                <path id="Path_66" d="M824.394 484.364c-.125-.98-.23-6.326 4.532-11.248-.259-1.294-.725-3.019-.725-3.019l.773-.665-.13-.909-.976-2.575-1.319-2.437-1.881-2.747-1.4-1.6-1.428-2.03-1.2-.627.642 1.005 1.589 4.551.723 5.5-.161 4.728-.374 4.919-.713 4.532.5.855z" class="cls-1" transform="translate(-794.079 -456.51)"/>
            </g>
            <g id="Vector" transform="translate(0)">
                <path id="Path_67" fill="#f8f8f8" d="M313.459 223.6a13.517 13.517 0 0 1 1.166-.989v-5.7a40.444 40.444 0 0 0-4.94-.548c-5.82 0-11.894 5.644-18.186 5.644-8.619 0-9.407-8.152-9.407-10.661 0-7.5 5.456-7.216 9.616-8.989 4.005-1.708 7.525-3.763 10.661-3.763 5.974 0 5.83 2.09 11.706 2.09a5.324 5.324 0 0 0 .55-.031V164H199v115.623h115.619v-12.488c-5.726-.366-11.359-1.5-12.172-3.48-.27-2.09.059-10.912 1.957-20.036-3.842 4.181-9.689 10.416-10.7 11.671-1.5 1.854-5.147 10.782-6 16.38-.539 3.587-3.033 3.748-4.02 3.748s-2.368-1.854-2.368-3.039c0-2.21 2.577-6.254 3.593-9.714.786-2.676 1.539-8.483 3.788-13.3 1.936-4.143 8.483-11.1 10.682-13.458a1.779 1.779 0 0 1-.418-.976c-.011-1.986 10.39-13.136 14.498-11.331z" transform="translate(-199 -164)"/>
                <path id="Path_68" fill="#efefef" d="M522.437 925.16c-33.814 0-61.227 5.211-61.227 11.641s27.413 11.639 61.227 11.639 61.225-5.211 61.225-11.639-27.411-11.641-61.225-11.641zm-33.1 10.805l-3.179-5.136 2.055-2.776 3.681 1.881.019 2.638 1.336 1.463h3.271l1.254 1.927zm68.249-.387h-12.6V931.4l3.972-.209 8.625 2.573z" transform="translate(-406.398 -766.048)"/>
                <path id="Path_69" d="M542.96 221.42v32.236h11.292" class="cls-4" transform="translate(-471.059 -209.417)"/>
                <path id="Path_70" d="M862 954.209v4.191h12.6v-1.823L865.972 954" class="cls-5" transform="translate(-723.407 -788.859)"/>
                <path id="Path_71" d="M586.3 940.881l.019 2.638 1.336 1.465h3.271l1.252 1.927h-8.438l-3.18-5.136 2.055-2.775" class="cls-5" transform="translate(-500.799 -776.995)"/>
                <path id="Path_72" d="M765.119 653.51s15.787 23.621 17.162 28.728S780.3 716.6 780.3 716.6h-4.657s-3.514-21.075-2.521-28.484c-3.516-2.136-18.776-11.838-20.007-16.838" class="cls-1" transform="translate(-637.28 -551.184)"/>
                <path id="Path_73" d="M611.007 640.73l-3.742 33.712L589.1 702.9l3.972 2.6 26.878-29.322s13.974-29.171 15.444-32.775c-2.835.937-19.349 2.609-24.387-2.673z" class="cls-1" transform="translate(-507.554 -541.075)"/>
                <path id="Rectangle_19" fill="#bcbcbc" d="M0 0H37.332V19.934H0z" transform="translate(66.215 114.208)"/>
                <path id="Path_74" fill="none" stroke="#bcbcbc" stroke-miterlimit="10" stroke-width="9px" d="M586.791 687.137a5.657 5.657 0 1 1-5.519-.437" transform="translate(-498.763 -577.436)"/>
                <path id="Path_75" d="M610.833 508c-2.2 2.354-8.746 9.315-10.682 13.458-2.249 4.808-3 10.623-3.788 13.3-1.016 3.46-3.593 7.5-3.593 9.714 0 1.185 1.382 3.039 2.368 3.039s3.481-.163 4.026-3.75c.853-5.6 4.5-14.526 6-16.38 1.254-1.545 9.825-10.63 12.96-14.16" class="cls-8" transform="translate(-510.457 -436.091)"/>
                <path id="Path_76" d="M816.25 451.29c4.413 2.868 10.289 13.121 9.032 14.292a20.268 20.268 0 0 1-5.314 2.58" class="cls-8" transform="translate(-687.221 -391.235)"/>
                <path id="Path_77" d="M716.445 440.75c12.442 6.767 3.6 37.485 1.53 44.475-3.972 1.8-22.842 1.087-24.386-2.672-.27-2.09.059-10.912 1.957-20.036" class="cls-9" transform="translate(-590.135 -382.899)"/>
                <path id="Path_78" d="M746.07 438.058a10.6 10.6 0 0 1 5.734-2.868" class="cls-8" transform="translate(-631.711 -378.501)"/>
                <path id="Path_79" d="M791.17 382.345a4.1 4.1 0 0 0 .753.071c3.382 0 6.125-4.294 6.125-9.591a14.631 14.631 0 0 0-.3-2.985" class="cls-10" transform="translate(-667.384 -326.812)"/>
                <path id="Path_80" d="M642.139 337.065a2.473 2.473 0 0 0 .767-1.712 12.316 12.316 0 0 1 .861 2.58 4.006 4.006 0 0 0 1.07-2.678c0-2.885-2.266-5.337-7.157-5.337-2.09 0-7.107 1.672-9.2 1.672-5.876 0-5.732-2.09-11.706-2.09-3.136 0-6.656 2.055-10.661 3.763-4.16 1.773-9.616 1.488-9.616 8.989 0 2.508.788 10.661 9.407 10.661 6.292 0 12.367-5.644 18.186-5.644 2.417 0 4.214.627 6.271.627a5.875 5.875 0 0 0 3.136-.627v-3.554a2.315 2.315 0 0 1-1.254.209c-.349 0-.7-.293-.8-.876" class="cls-10" transform="translate(-513.407 -294.904)"/>
                <path id="Path_81" d="M691.872 448.489c3.713 2.272-2.444 18.721-4.519 18.4s-10.243-5.165-10.243-7.193 10.847-13.605 14.762-11.207z" class="cls-8" transform="translate(-577.167 -388.762)"/>
                <path id="Path_82" d="M828.84 533.08a7.8 7.8 0 0 0 1.633 2.377c6.6 5.287 19.033 11.159 19.9 11.5a10.16 10.16 0 0 1 2.038 1.4 2.559 2.559 0 1 0 2.508-3.422 13.318 13.318 0 0 1-2.761-1.2c-1.528-.83-13.8-10.845-15.931-11.98a46.692 46.692 0 0 0-1.5-10.243" class="cls-8" transform="translate(-697.179 -446.777)"/>
                <path id="Path_83" d="M283.5 214.993a22.283 22.283 0 1 1-11.7-3.313v22.281z" class="cls-4" transform="translate(-238.962 -201.713)"/>
                <path id="Path_84" d="M356.11 318.27h22.281" class="cls-4" transform="translate(-323.268 -286.022)"/>
                <path id="Path_85" d="M543 257.1c.525 0 2.268-5.113 5.786-5.113 3.1 0 1.566 10.64 7.92 10.64 5.084 0 6.445-6.976 8.424-6.976 1.035 0 .976.769 2.011.769 2.509 0 2.866-10.109 6.443-10.109" class="cls-4" transform="translate(-471.091 -229.104)"/>
                <path id="Path_86" d="M260.87 475.1l12.9-12.9 6.821 6.819 26.642-26.642 5.038 5.04 14.314-14.317 9.752 9.752L353.8 425.38" class="cls-4" transform="translate(-247.937 -370.742)"/>
                <path id="Path_87" d="M773.5 435.19v3.825c0 .418 1.8.585 2.571.585" class="cls-10" transform="translate(-653.407 -378.501)"/>
                <path id="Path_88" d="M773.5 414.5v4.325" class="cls-10" transform="translate(-653.407 -362.136)"/>
                <path id="Line_2" d="M0 0L0 2.448" class="cls-9" transform="translate(126.243 55.351)"/>
            </g>
        </g>
    </g>
</svg>
