<svg xmlns="http://www.w3.org/2000/svg" width="143.96" height="173.62" viewBox="0 0 143.96 173.62">
    <defs>
        <style>
            .cls-2{fill:#21272f}.cls-2,.cls-3,.cls-4,.cls-7,.cls-9{fill-rule:evenodd}.cls-3,.cls-4,.cls-6,.cls-8,.cls-9{fill:none;stroke-linecap:round}.cls-3,.cls-4,.cls-6,.cls-8{stroke:#000;stroke-width:2.5px}.cls-3,.cls-8{stroke-miterlimit:10}.cls-4,.cls-6,.cls-9{stroke-linejoin:round}.cls-9{stroke:#bcbcbc;stroke-width:4px}
        </style>
    </defs>
    <g id="Layer_2" transform="translate(0.003 0.022)">
        <g id="Layer_1" transform="translate(-0.003 1.247)">
            <path id="Path_190" fill="#f2f2f2" d="M135.4 79.222c-7.476-11.471-20.4-19.775-34.226-23.672l-1.823 7.011a1.488 1.488 0 0 1 .7-.669 1.424 1.424 0 0 1 1.767.243 2.775 2.775 0 0 1 1.454-1.24c1.46-.514 2.45.836 2.849 2.037.642 1.931.218 3.692-.4 3.955a1.657 1.657 0 0 1-1.994-.5c-.043.527-.119.965-1.079 1.382-1.438.624-3.027-1.258-3.4-2.229A3.971 3.971 0 0 1 99 63.945l-1.438 5.56-2.462-.629 3.63-13.959a61.619 61.619 0 0 0-19.834-1.64 12.66 12.66 0 0 1 1.4 4.187c.9 5.328-1.591 10.055-5.564 10.556-1.314.165.484.049.706.049l-.158 4.009c.958-.3 4.153.786 5.177 1.769 7.1-1.339 28.565-7.221 28.565-7.221L110.1 70.9c-.608.155-1.895.539-1.895.539s1.977 7.191 1.808 7.153l7.473-1.785 1.079 4.273-11.685 3.129-2.157.573 1.546 6.146-17.413 4.353.031.072c8.884-2.182 18.962-4.674 20.168-5.07.4 2.168 1.379 4.21-3.743 6.134-2.6.976-2.657-.3-6.236.507a36.307 36.307 0 0 0-6.051 2.982c.965 4.969 1.231 8.989.9 10.326-1.1 4.305-25.065 8.57-29.748 6.8l.12 3.64-7.147 1.428a2.927 2.927 0 0 1-3.444-2.3L45.8 80.094a2.927 2.927 0 0 1 2.3-3.444l10.846-2.157a2.928 2.928 0 0 1 3.435 2.294l.539 2.722a13.276 13.276 0 0 1 5.92-6.236 54.807 54.807 0 0 0-1.01-7.753 6.182 6.182 0 0 1-1.134.345c-2.555.482-4.178-.07-6.686.36-5.363.933-5.506 6.966-14.063 8.224a17.056 17.056 0 0 1-3.371.156c-8.289 10.1-15 22.315-21.308 33.229C9.5 128.186-.979 144.02.069 160.75c1.007 16.765 13.5 34.377 31.516 44.572 17.977 10.2 41.469 12.978 60.491 4.554q.412-.18.82-.37l-.207-1.345 5.273-1.321c16.192-9.6 28.722-27.685 37.157-50.361 9.469-25.39 13.781-56.502.281-77.257zm-33.534-17.977c-.7-.59-1.571-4.413.473-4.234 2.105.18.523 3.523-.473 4.235zm-53.489 143.78l-10.268-19.018 5.846-2.99 4.093 6.452 3.236 14.022z" transform="translate(0.003 -43.753)"/>
            <path id="Path_191" d="M272.25 213.846c-1.532-2.139-6.578-24.665-.663-36.88l-.545-2.725a2.928 2.928 0 0 0-3.444-2.3l-10.846 2.159a2.927 2.927 0 0 0-2.3 3.444l7.91 39.706a2.927 2.927 0 0 0 3.444 2.3l7.146-1.424-.128-3.881a1.345 1.345 0 0 1-.574-.399z" class="cls-2" transform="translate(-208.661 -141.208)"/>
            <path id="Path_192" d="M367.48 191.013c.964 4.967 1.231 8.989.9 10.324-1.176 4.62-28.436 9.168-30.435 6.371-1.884-2.632-9.093-36.134 5.352-43.308" class="cls-3" transform="translate(-274.347 -135.07)"/>
            <path id="Path_193" d="M468.47 188.63a28.518 28.518 0 0 1 2.179 3.177" class="cls-3" transform="translate(-384.253 -154.944)"/>
            <path id="Path_194" d="M419.31 157.67a11.022 11.022 0 0 1 5.084 1.967" class="cls-3" transform="translate(-343.93 -129.55)"/>
            <path id="Path_195" d="M419.591 141.956c-.446-1.179-.36-4.936-.155-6.6" class="cls-4" transform="translate(-343.896 -111.25)"/>
            <path id="Path_196" d="M376.1 114.25a52.116 52.116 0 0 1 1.417 10.29 5.538 5.538 0 0 0 3.435.847" class="cls-4" transform="translate(-308.488 -93.935)"/>
            <path id="Path_198" d="M529 45.033L534.472 24l2.438.636-5.467 21.034z" class="cls-4" transform="translate(-433.901 -19.91)"/>
            <path id="Path_199" d="M537.29 129.94l1.4.36" class="cls-6" transform="translate(-440.701 -106.805)"/>
            <path id="Path_200" d="M541.29 114.56l1.4.36" class="cls-6" transform="translate(-443.982 -94.19)"/>
            <path id="Path_201" d="M545.29 99.18l1.4.36" class="cls-6" transform="translate(-447.263 -81.575)"/>
            <path id="Path_202" d="M549.29 83.8l1.4.36" class="cls-6" transform="translate(-450.543 -68.959)"/>
            <path id="Path_203" d="M553.29 68.42l1.4.36" class="cls-6" transform="translate(-453.824 -56.344)"/>
            <path id="Path_204" d="M557.29 53l1.4.36" class="cls-6" transform="translate(-457.105 -43.696)"/>
            <path id="Path_205" d="M561.29 37.66l1.4.36" class="cls-6" transform="translate(-460.386 -31.114)"/>
            <path id="Path_206" d="M554.95 96.1c1.46-.514 2.45.836 2.849 2.037.642 1.931.218 3.692-.4 3.955a1.658 1.658 0 0 1-1.994-.505c-.043.527-.119.965-1.079 1.382-1.438.624-3.027-1.258-3.4-2.229-.5-1.276-.264-3.182.809-3.642a1.424 1.424 0 0 1 1.767.243 2.729 2.729 0 0 1 1.448-1.241z" class="cls-4" transform="translate(-451.679 -78.954)"/>
            <path id="Path_207" d="M563.488 74.972c2.112.18.523 3.522-.473 4.234-.703-.59-1.571-4.414.473-4.234z" class="cls-7" transform="translate(-461.146 -61.713)"/>
            <path id="Path_208" d="M356.649 267.351c-.128 3.849.21 9.873 5.478 11.092 6.064 1.4 25.995-12.108 29.574-12.913s3.646.464 6.234-.516c5.123-1.924 4.147-3.968 3.743-6.134-2.166.7-33.008 8.2-34.049 8.476a6.809 6.809 0 0 1-.313-.8" class="cls-4" transform="translate(-292.517 -212.565)"/>
            <path id="Path_209" d="M365 197.578a4.521 4.521 0 0 1 2.475-.87 5.427 5.427 0 0 1 2.858.622" class="cls-3" transform="translate(-299.383 -161.562)"/>
            <path id="Path_210" d="M356.109 209.484c1.025 4.442.859 9.023.236 9.593-1.258 1.158-13.2 2-14.094.685-.784-1.151-1.284-14.583 3.678-18.171" class="cls-3" transform="translate(-280.315 -165.574)"/>
            <path id="Path_211" d="M489.429 222.87l-22.144 5.573c-2.03.511-3.329 2.3-2.9 4s2.42 2.659 4.451 2.146l22.144-5.573" class="cls-4" transform="translate(-380.832 -183.029)"/>
            <path id="Path_212" d="M584.676 234.456l-1.546-6.146" class="cls-4" transform="translate(-478.3 -187.491)"/>
            <path id="Path_213" d="M479.19 192.974l31.352-7.924 1.079 4.273-31.35 7.926z" class="cls-2" transform="translate(-393.045 -152.008)"/>
            <path id="Path_214" d="M476.6 164.378l-.874-3.452 22.7-5.736 1.8 7.157-22.689 5.733-.935-3.7" class="cls-4" transform="translate(-390.207 -127.516)"/>
            <path id="Path_215" d="M432.09 136.366l31.352-7.926 1.079 4.275-31.348 7.924z" class="cls-4" transform="translate(-354.413 -105.574)"/>
            <path id="Path_216" d="M483.71 257.66l1.122 4.53" class="cls-8" transform="translate(-396.753 -211.565)"/>
            <path id="Path_217" d="M488.25 193.278l6.405-1.618.511 2.019-6.405 1.618z" class="cls-7" transform="translate(-400.477 -157.429)"/>
            <path id="Path_218" d="M444.63 168.73l12.922-3.31" class="cls-8" transform="translate(-364.698 -135.907)"/>
            <path id="Path_219" d="M212 778.944l10.27 19.018 2.9-1.528-3.236-14.022-4.093-6.452z" class="cls-3" transform="translate(-173.888 -636.69)"/>
            <path id="Path_220" d="M516.609 913.758l21.281-3.775-.539-3.236-14.329-1.347-7.412 1.857z" class="cls-3" transform="translate(-422.918 -742.86)"/>
            <path id="Path_221" d="M215.262 10.479c.581-1.471.917-2.123.73-3.558-.813-4.41-5.145-6.314-8.987-5.485-6.666 1.438-9.887 5.034-13.867 5.7-6.04 1.01-11.667-1.258-18.008.413-8.591 2.265-9.869 8.4-8.618 13.905 2.069 9.105 9.9 11.146 15.775 10.286 8.557-1.258 8.7-7.291 14.069-8.214 2.508-.43 4.135.12 6.686-.36a6.254 6.254 0 0 0 1.136-.347" class="cls-4" transform="translate(-136.242 -1.247)"/>
            <path id="Path_222" d="M401.909 44.74a11.032 11.032 0 0 1 2.477 5.688c.9 5.328-1.591 10.055-5.562 10.556a6.1 6.1 0 0 1-3.824-.845" class="cls-4" transform="translate(-323.99 -36.921)"/>
            <path id="Path_223" d="M376.466 84.33c-1.019.561-2.012 1.044-2.876 1.417" class="cls-4" transform="translate(-306.429 -69.394)"/>
            <path id="Path_224" d="M428.962 41.56a3.169 3.169 0 0 1-.822 2.377" class="cls-4" transform="translate(-351.173 -34.313)"/>
            <path id="Path_225" d="M365.148 95.6a1.909 1.909 0 1 1-1.181-3.416 1.95 1.95 0 0 1 .573.086" class="cls-4" transform="translate(-296.976 -75.833)"/>
            <path id="Path_226" d="M404.37 377.45c-3.935 3.056-17.407 5.753-24.7 5.86 3.511 11.414 24.438 90.917 24.438 90.917l6.763-1.7z" class="cls-2" transform="translate(-311.416 -309.82)"/>
            <path id="Path_227" d="M264.176 403.793a2.638 2.638 0 0 1-.191-.333c1.361 7.085 7.282 37.63 9.148 42.223-2.8 2.276-28.583 24.736-28.583 24.736l3.317 5.249 36.853-19.917-6.265-52.133c-6.794 1.182-13.33 1.489-14.279.175z" class="cls-2" transform="translate(-200.587 -331.154)"/>
            <path id="Path_228" d="M272.961 218.163l-7.146 1.424a2.927 2.927 0 0 1-3.444-2.3l-7.91-39.706a2.927 2.927 0 0 1 2.3-3.444l10.846-2.157a2.928 2.928 0 0 1 3.443 2.294l.54 2.726" class="cls-4" transform="translate(-208.669 -141.241)"/>
            <path id="Path_229" d="M343.82 183.848a7.55 7.55 0 0 1 3.186-1.568" class="cls-9" transform="translate(-282.011 -149.736)"/>
            <path id="Path_230" d="M339.944 315.192a15.353 15.353 0 0 1-4.674-5.262" class="cls-9" transform="translate(-274.998 -254.438)"/>
            <path id="Path_231" d="M361.54 181.544c5.634-1.237 11.66 4.4 13.461 12.6a20 20 0 0 1-.025 9.12" class="cls-9" transform="translate(-296.545 -148.992)"/>
        </g>
    </g>
</svg>
