<svg xmlns="http://www.w3.org/2000/svg" width="143.96" height="185.256" viewBox="0 0 143.96 185.256">
  <defs>
    <style>
      .cls-1 {
        fill: #f2f2f2;
      }

      .cls-2 {
        fill: #a4a4a4;
      }

      .cls-3 {
        fill: #21272f;
      }

      .cls-4, .cls-5 {
        fill: none;
        stroke-linecap: round;
        stroke-linejoin: round;
      }

      .cls-4 {
        stroke: #000;
        stroke-width: 2.5px;
      }

      .cls-5 {
        stroke: #a4a4a4;
        stroke-width: 11px;
      }

      .cls-6 {
        fill: #e0e0e0;
      }
    </style>
  </defs>
  <g id="Layer_2" data-name="Layer 2" transform="translate(0 1.516)">
    <g id="vector" transform="translate(0)">
      <path id="Path_89" data-name="Path 89" class="cls-1" d="M171.958,162.467c-6.993-13.081-30.367-17.47-50.864-15.2a82.479,82.479,0,0,0-49.161,22.889,10.694,10.694,0,0,1,1.089,4.722,10.887,10.887,0,0,1-.1,1.42,12.628,12.628,0,1,1,7.69,23.988v3.649a18.071,18.071,0,0,1,8.069,5.11c5.5,1.742,13.146,10.668,13.573,13.74-.605,1-3.081,3-5.767,4.677a90.708,90.708,0,0,1-.3,29.336c-6.928,3.893-28.739,3.457-35.924-.494a72.788,72.788,0,0,0,25.519,20.248c20.013,9.477,44.506,9.205,57.646-2,13.142-11.171,14.927-33.244,20.529-55.194S178.921,175.576,171.958,162.467Zm-41.367,66.391c-1.707,0-3.094-2.288-3.094-5.11s1.387-5.112,3.094-5.112,3.094,2.288,3.094,5.112-1.387,5.11-3.1,5.11Z" transform="translate(-47.146 -114.758)"/>
      <path id="Path_90" data-name="Path 90" class="cls-1" d="M5.362,365.427a3.89,3.89,0,0,1-.958-.758c-.551-4.137,5.624-19.246,11.158-18.288a3.3,3.3,0,0,1,1.848,1.049c1.831-2.911,4.156-4.986,7.08-5.778v-4.267a12.628,12.628,0,0,1-6.314-13.965,10.721,10.721,0,0,1-6,.024C3.6,336.289-1.59,351.48.424,366.322a51.817,51.817,0,0,0,3.6,13.035A95.923,95.923,0,0,1,5.362,365.427Z" transform="translate(0.009 -253.005)"/>
      <path id="Path_91" data-name="Path 91" class="cls-1" d="M48.05,631.868c.653.949,1.346,1.883,2.06,2.8-.176-.98-.342-2.1-.488-3.32C49.078,631.555,48.553,631.731,48.05,631.868Z" transform="translate(-37.587 -493.893)"/>
      <path id="Path_92" data-name="Path 92" class="cls-2" d="M481.3,9.455,439.01,18.528V9.673L481.121.64,487.387,3.9Z" transform="translate(-343.427 -0.501)"/>
      <path id="Path_93" data-name="Path 93" class="cls-2" d="M265.2,9.173,222.439,0,216.82,3.233l5.129,5.517L265.2,18.027Z" transform="translate(-169.612)"/>
      <path id="Path_94" data-name="Path 94" class="cls-3" d="M55.983,644.53c-.218,3.015-1.524,16.638-.631,20.838H94.105l-3.986-20.137Z" transform="translate(-43.057 -504.203)"/>
      <path id="Path_95" data-name="Path 95" class="cls-4" d="M190.8,433.07c5.5,1.742,13.146,10.668,13.573,13.74" transform="translate(-149.257 -338.782)"/>
      <line id="Line_3" data-name="Line 3" class="cls-5" y2="174.256" transform="translate(95.583 3.984)"/>
      <path id="Path_96" data-name="Path 96" class="cls-4" d="M76.7,409.59c20.958,6.4,17.217,45.656,15.578,52.864-7.1,3.991-29.86,3.433-36.444-.8-.218-1.089-.4-2.364-.575-3.784" transform="translate(-43.227 -320.414)"/>
      <path id="Path_97" data-name="Path 97" class="cls-4" d="M80,412.938c1.831-2.913,4.158-4.986,7.082-5.778" transform="translate(-62.58 -318.513)"/>
      <path id="Path_98" data-name="Path 98" class="cls-4" d="M77.563,535.451a76.425,76.425,0,0,0-9.763,3.54,58.329,58.329,0,0,0,3.02-10.451" transform="translate(-53.037 -413.467)"/>
      <path id="Path_99" data-name="Path 99" class="cls-4" d="M19.822,516.36c-.951,4.973-2.878,22.525.9,25.375,4.076,3.076,19-7.925,22.018-10.451" transform="translate(-14.453 -403.938)"/>
      <path id="Path_100" data-name="Path 100" class="cls-6" d="M265.2,51.635l-42.344,9.083-6.031-3.177,4.361-5.319L265.2,42.78Z" transform="translate(-169.612 -33.466)"/>
      <path id="Path_101" data-name="Path 101" class="cls-6" d="M481.879,51.976l-42.869-9.2v8.855l42.346,9.083,6.031-3.342Z" transform="translate(-343.427 -33.466)"/>
      <path id="Path_102" data-name="Path 102" class="cls-4" d="M112,251a10.766,10.766,0,0,1,1.411,6.906" transform="translate(-87.613 -196.352)"/>
      <path id="Path_103" data-name="Path 103" class="cls-4" d="M33.988,247.995A10.734,10.734,0,1,1,30.141,227" transform="translate(-15.802 -177.578)"/>
      <path id="Path_104" data-name="Path 104" class="cls-4" d="M87.5,301.529a12.628,12.628,0,1,1,7.132,2.21c-.218,0-.418,0-.625-.015" transform="translate(-64.154 -217.851)"/>
      <path id="Path_105" data-name="Path 105" class="cls-4" d="M100.93,315.394c6.329-4.986,8.789-12.264,9.66-17.794" transform="translate(-78.954 -232.807)"/>
      <path id="Path_106" data-name="Path 106" class="cls-4" d="M145.3,297.6a14.964,14.964,0,0,0,6.138,1.306,15.124,15.124,0,0,0,2.914-.283" transform="translate(-113.663 -232.807)"/>
      <path id="Path_107" data-name="Path 107" class="cls-4" d="M117.725,396.8c-2.46.1-5.225-.314-5.225-1.206V387.56" transform="translate(-88.005 -303.181)"/>
      <path id="Path_108" data-name="Path 108" class="cls-4" d="M153.74,392.84v6.878" transform="translate(-120.266 -307.311)"/>
      <path id="Path_109" data-name="Path 109" class="cls-4" d="M35.732,445.216A12.366,12.366,0,0,1,34.4,450.3c-2.21.612-12.251-.941-14.261-3.29-.551-4.137,5.624-19.246,11.158-18.288,1.661.285,2.811,1.959,3.549,4.254" transform="translate(-15.723 -335.348)"/>
      <path id="Path_110" data-name="Path 110" class="cls-6" d="M186.366,442.658c-1.707,0-3.094-2.288-3.094-5.11s1.387-5.112,3.094-5.112a2.048,2.048,0,0,1,1.043.3V420L131.57,435.24V443.8a4.46,4.46,0,0,1,1.134-.146c2.915,0,5.282,2.8,5.282,6.251s-2.367,6.235-5.282,6.235A4.462,4.462,0,0,1,131.57,456v21.611l55.839-15.24V442.36A2.026,2.026,0,0,1,186.366,442.658Z" transform="translate(-102.923 -328.558)"/>
      <ellipse id="Ellipse_2" data-name="Ellipse 2" class="cls-4" cx="3.094" cy="5.11" rx="3.094" ry="5.11" transform="translate(80.349 103.88)"/>
      <path id="Path_111" data-name="Path 111" class="cls-4" d="M112.538,535.474c-.017-.218-.028-.435-.028-.653,0-3.453,2.367-6.251,5.284-6.251s5.273,2.806,5.273,6.259-2.358,6.244-5.273,6.244a4.52,4.52,0,0,1-1.5-.253" transform="translate(-88.012 -413.49)"/>
    </g>
  </g>
</svg>
