<svg xmlns="http://www.w3.org/2000/svg" width="124.663" height="159.75" viewBox="0 0 124.663 159.75">
  <defs>
    <style>
      .cls-1 {
        fill: #21272f;
      }

      .cls-2 {
        fill: #f2f2f2;
      }

      .cls-3, .cls-4, .cls-5 {
        fill: none;
        stroke: #000;
        stroke-linecap: round;
      }

      .cls-3 {
        stroke-miterlimit: 10;
      }

      .cls-3, .cls-5 {
        stroke-width: 2.5px;
      }

      .cls-4, .cls-5 {
        stroke-linejoin: round;
      }

      .cls-4 {
        stroke-width: 8px;
      }
    </style>
  </defs>
  <g id="Layer_2" data-name="Layer 2" transform="translate(-0.008)">
    <g id="shadow" transform="translate(39.744 36.476)">
      <path id="Path_232" data-name="Path 232" class="cls-1" d="M242.509,371.27c-2.2,1.138-1.953,15.152,7.783,17.238l-10.9,7.231-16.838-5.143a24,24,0,0,0-2.1-4.047l-.476-.3-.507-2.74-.727-7.387-.182-5.767.025-4.264.167-4.662.433-5.867.665-5.907.44-2L221.367,351l2.14,4.16,1.793,2.375,1.24.9,1.409-.242,1.894,3.273,3.26,3.984,3.536,3.5,1.8,1.4,2.169,1.062,1.371.045Z" transform="translate(-218.56 -319.896)"/>
      <path id="Path_233" data-name="Path 233" class="cls-1" d="M463.163,344.587c.349-1.225,4.047-11.163,5.624-11.847-3.136,1.342-10.582,4.434-10.582,4.434l-1.187,1.489-3.818,4.744.529,2.727.385,2.545,2.8-1.165Z" transform="translate(-410.539 -307.697)"/>
      <path id="Path_234" data-name="Path 234" class="cls-1" d="M268.994,199.264c-1.18.309-5.34,5.273-2.987,7.716a17.176,17.176,0,0,0-2.924-2.013l-2.56-1.454-2.924-.455,1.409-2.364,2.069-2.909,2.274-2.131,1.624-.655.291,3.378.938.515Z" transform="translate(-250.502 -195)"/>
    </g>
    <g id="vector" transform="translate(0.008 1.25)">
      <path id="Path_235" data-name="Path 235" class="cls-2" d="M124.636,144.889c-.309-9.5-3.1-19.367-8.247-29.357l-.315.495-6.616,11.182-5.7,3.731L91,137.23l-7.685,3.442.629,5.187.633,6.807.269,4.776.087,4.869-.209,3.116-.52.431-24.1,8.471L41.2,166.167l-.464-2.447-.571-4.627-.405-5.363V144.7l.4-6.694.858-8.387.438-2.056-.925-3.844-.769-5.422.067-2.422.622-3.167.833-1.9,1.005-1.273,2.658-1.475,1.9-.213,1.573-2.884,2.109-2.678,2.085-1.818,1.6-.878-.433-6.258L52.756,91.6l-.513-1.058-.987-.364-1.467-.833-2.182-2.056-1.6-3.225-.589-3.142-.105.025.051-.318-.031-.158.064-.053.295-1.9C37.151,83.647,29.1,91.318,22.37,99.281,10.35,113.534,2.512,128.722.507,144.311c-1.955,15.587,1.827,31.577,11.536,40.217,9.709,8.6,25.3,9.843,39.683,15.543,14.341,5.745,27.481,15.9,37.948,14.12,10.465-1.827,18.26-15.636,24.5-29.039C120.4,171.7,125.125,158.651,124.636,144.889Z" transform="translate(-0.008 -64.471)"/>
      <path id="Path_236" data-name="Path 236" class="cls-2" d="M344.177,48.045l-2.755,2.78-2.545,1.8.751,1.693.791,2.216.336,2.211.173,2.414-.3,2.791-1.253,3.2-1.222,1.818-1.918,1.605-1.947.682.122.709.116,1.485.727.125,2.8,1.176,1.742.92,2.215,1.8,2.234,2.287,2.145,2.982,2.485,3.984,1.4,3.2,1.914,5.031.573,1.933.3.167,1.674-1.5,5.2-4.078,4.862-3.769,1.342-2.016,1.709-1.845,2.24-1.393,1.656.564,1.6,1.818.507,2.429-1.289,2.627-2.565,2.86-2.209,1.529-2.5,3.425-3.156,4.169-1.205,1.542,7.067-2.949,6.965-2.989L383.614,82.9l1.495-1.409q-1.665-2.6-3.536-5.209c-9.42-13.162-22.8-26.363-36.963-29.238Z" transform="translate(-273.513 -38.715)"/>
      <path id="Path_237" data-name="Path 237" class="cls-3" d="M458,329.428c4.974-2.011,22.218-10.067,26.5-13.74,4.834-4.144-.944-7.347-2.764-6.28-1.376.807-12.545,5.665-19.6,8.507" transform="translate(-374.731 -253.211)"/>
      <line id="Line_4" data-name="Line 4" class="cls-4" x2="1.869" y2="3.798" transform="translate(98.762 52.119)"/>
      <line id="Line_5" data-name="Line 5" class="cls-4" x2="2.411" y2="4.904" transform="translate(92.509 39.403)"/>
      <path id="Path_238" data-name="Path 238" class="cls-3" d="M288.846,146.989a13.736,13.736,0,0,1-1.536-2.909" transform="translate(-235.074 -118.112)"/>
      <path id="Path_239" data-name="Path 239" class="cls-3" d="M336.512,62.35a13.94,13.94,0,0,1,4.254,8.976c.687,6.289-2.2,11.787-6.476,12.458" transform="translate(-273.513 -51.241)"/>
      <path id="Path_240" data-name="Path 240" class="cls-3" d="M261.209,353.971c2.836,15.314,2.813,29.77,2.264,30.319-1.182,1.182-28.545,6.727-43.454.545-1.8-7.818-2.1-24.343.182-39.055" transform="translate(-178.84 -283.14)"/>
      <path id="Path_241" data-name="Path 241" class="cls-3" d="M335.62,192.58c9.047,2,14.794,12.014,18.378,23.687" transform="translate(-274.601 -157.794)"/>
      <path id="Path_242" data-name="Path 242" class="cls-3" d="M257.6,202.647c1.974-3.958,4.409-6.873,7.371-8.147" transform="translate(-210.766 -159.364)"/>
      <path id="Path_243" data-name="Path 243" class="cls-5" d="M269.61,271.9c2.364,4.5,10.056,13.247,13.214,13.247,9.049,0,27.343-24.587,31.981-31.181,2.169-1.507,6.022-4.522,6.02-7.578,0-1.535-1.636-4.727-4.038-4.16-1.654.389-3.925,3.7-4.909,5.111-3.329,2.3-24.394,19.716-26.016,21.4a14.954,14.954,0,0,0-2.024-5.1" transform="translate(-220.593 -198.362)"/>
      <path id="Path_244" data-name="Path 244" class="cls-5" d="M256.669,27.218c-2.824-.335-6.809-4.533-6.809-10.7,0-3.413,2.771-5.409,3.671-6.342,1.818-1.891,2.909-6.933,6.751-6.933,1.091,0,2.785.635,3.851.635,1.333,0,3.985-2.627,6.66-2.627,4.48,0,5.482,4.124,5.482,5.391,0,4.64-5.778,8.142-6.545,8.56a16.028,16.028,0,0,0-2.314-2.827c-.6,1.244-4.618,3.3-7.651,5.153-.815.5-1.485,2.605-1.958,4.736" transform="translate(-204.433 -1.25)"/>
      <path id="Path_245" data-name="Path 245" class="cls-3" d="M277.077,119.349a2.282,2.282,0,1,1,1.216-3.707" transform="translate(-224.412 -94.192)"/>
      <path id="Path_246" data-name="Path 246" class="cls-3" d="M334.29,180.24c.082.762.164,1.525.242,2.244" transform="translate(-273.513 -147.697)"/>
      <path id="Path_247" data-name="Path 247" class="cls-3" d="M301.013,170.691c-2.014.036-4.545-.364-4.594-1.075l-.658-9.536" transform="translate(-241.988 -131.203)"/>
      <path id="Path_248" data-name="Path 248" class="cls-3" d="M222.557,240.27c-8.033,4.376-.849,27.1,4.222,29.432,5.734,0,17.3-8.3,17.3-11.1S232.971,234.6,222.557,240.27Z" transform="translate(-179.145 -196.028)"/>
      <path id="Path_249" data-name="Path 249" class="cls-1" d="M219.16,560.7c-3.765,16.887-.2,53.5.787,56.784H244.6c1.722-4.545,9.02-44.988,10.771-55.524C245.976,563.6,229.567,564.985,219.16,560.7Z" transform="translate(-177.933 -458.984)"/>
      <path id="Path_250" data-name="Path 250" class="cls-1" d="M373.374,558.89a52.583,52.583,0,0,1-9.171,1.98L353.44,600l7.1,16H377.6C377.6,609.167,376.361,570.353,373.374,558.89Z" transform="translate(-289.181 -457.503)"/>
      <path id="Path_251" data-name="Path 251" class="cls-3" d="M608,237.384c0,3.773,4.487,5.764,5.14,5.764,1.367,0,1.367-4.129,1.367-5.2a4.477,4.477,0,0,0-4.182-4.22C608.52,233.73,608,235.246,608,237.384Z" transform="translate(-497.459 -191.462)"/>
      <path id="Path_252" data-name="Path 252" d="M561.965,199.138c-.653,0-5.14-1.991-5.14-5.764,0-2.138.505-3.654,2.318-3.654a4.3,4.3,0,0,1,2.7,1.129l-.851-10.909-15.531,1.213,2.344,30,15.529-1.2-.865-11.045A.7.7,0,0,1,561.965,199.138Z" transform="translate(-446.289 -147.452)"/>
    </g>
  </g>
</svg>
