<svg xmlns="http://www.w3.org/2000/svg" width="49.752" height="49.878" viewBox="0 0 49.752 49.878">
    <defs>
        <style>
            .cls-2{fill:#ffd164}.cls-3{fill:#ffc350}.cls-4{fill:#aa7346}.cls-5{fill:#7d5046}.cls-6{fill:#9c6846}
        </style>
    </defs>
    <g id="thinking" transform="translate(0.344 0.347)">
        <circle id="Ellipse_259" cx="24.876" cy="24.876" r="24.876" fill="#ffe17d" transform="translate(-0.344 -0.347)"/>
        <g id="Group_918" transform="translate(-0.251 5.325)">
            <path id="Path_22821" d="M28.507 97.968A24.889 24.889 0 0 1 9.193 57.376a24.89 24.89 0 1 0 35.014 35.013 24.785 24.785 0 0 1-15.7 5.579z" class="cls-2" transform="translate(-0.001 -57.376)"/>
            <path id="Path_22822" d="M62.4 310.714a1.611 1.611 0 0 0 1.6-1.606 1.611 1.611 0 0 0-1.6-1.608h.8a1.611 1.611 0 0 0 1.606-1.606 1.611 1.611 0 0 0-1.606-1.604h.8a1.611 1.611 0 0 0 1.606-1.606A1.611 1.611 0 0 0 64 301.079h8.833a1.606 1.606 0 0 0 1.606-1.606 1.606 1.606 0 0 0-1.606-1.606H58.382a2.409 2.409 0 0 1-2.409-2.409v-4.818a1.606 1.606 0 0 0-1.606-1.606 1.606 1.606 0 0 0-1.606 1.606v3.931a4.818 4.818 0 0 1-1.056 3.01l-.749.936a6.424 6.424 0 0 0-1.408 4.013v3.37a4.818 4.818 0 0 0 4.818 4.818H62.4z" class="cls-2" transform="translate(-44.731 -266.509)"/>
        </g>
        <g id="Group_919" transform="translate(4.567 27.851)">
            <path id="Path_22823" d="M64 309.107h-9.632a3.216 3.216 0 0 1-3.212-3.212v-3.368a4.835 4.835 0 0 1 1.056-3.01l.749-.936a6.447 6.447 0 0 0 1.408-4.013v-5.537a1.606 1.606 0 0 0-1.606 1.606v3.931a4.818 4.818 0 0 1-1.056 3.01l-.749.936a6.424 6.424 0 0 0-1.408 4.013v3.373a4.818 4.818 0 0 0 4.818 4.818H62.4a1.611 1.611 0 0 0 1.6-1.611z" class="cls-3" transform="translate(-49.55 -289.033)"/>
            <path id="Path_22824" d="M193.723 396.387h-11.242a.8.8 0 1 0 0 1.606h9.636a1.606 1.606 0 0 0 1.606-1.606z" class="cls-3" transform="translate(-168.83 -385.948)"/>
            <path id="Path_22825" d="M173.42 430.222a.8.8 0 0 0 .8.8h1.606a1.611 1.611 0 0 0 1.606-1.606h-3.212a.8.8 0 0 0-.8.806z" class="cls-3" transform="translate(-161.375 -415.768)"/>
            <path id="Path_22826" d="M165.162 463.255a.8.8 0 0 0 .8.8h1.606a1.611 1.611 0 0 0 1.606-1.606h-3.212a.8.8 0 0 0-.8.806z" class="cls-3" transform="translate(-153.92 -445.589)"/>
        </g>
        <g id="Group_920" transform="translate(8.381 9.079)">
            <path id="Path_22827" d="M175.858 294.042a1 1 0 0 1-.45-.107 31.1 31.1 0 0 0-11.646-2.9 1 1 0 0 1-.981-1.026.991.991 0 0 1 1.026-.98 32.59 32.59 0 0 1 12.5 3.118 1 1 0 0 1-.454 1.9z" class="cls-4" transform="translate(-155.584 -270.252)"/>
            <path id="Path_22828" d="M98.608 99.694a1 1 0 0 1-.623-.218 7.507 7.507 0 0 0-7.76-.691 1 1 0 1 1-.9-1.8 9.507 9.507 0 0 1 9.909.917 1 1 0 0 1-.628 1.788z" class="cls-4" transform="translate(-88.773 -95.979)"/>
            <path id="Path_22829" d="M296.228 117.162a1 1 0 0 1-.2-1.988l8.03-1.606a1 1 0 0 1 .394 1.968l-8.03 1.606a1.012 1.012 0 0 1-.194.02z" class="cls-4" transform="translate(-275.15 -111.84)"/>
        </g>
        <path id="Path_22830" d="M135.648 156.083a2.007 2.007 0 0 1-1.747-2.238l.2-1.594a2.007 2.007 0 0 1 2.238-1.747 2.007 2.007 0 0 1 1.747 2.238l-.2 1.594a2.007 2.007 0 0 1-2.238 1.747z" class="cls-5" transform="translate(-121.118 -136.11)"/>
        <path id="Path_22831" d="M152.1 150.506a2.012 2.012 0 0 0-.4-.009l-.339 2.749a1.2 1.2 0 0 0 2.391.295l.1-.8a2.007 2.007 0 0 0-1.752-2.235z" class="cls-6" transform="translate(-136.885 -136.111)"/>
        <path id="Path_22832" d="M308.551 174.147a2.007 2.007 0 0 1-1.747-2.238l.2-1.594a2.007 2.007 0 0 1 2.238-1.747 2.007 2.007 0 0 1 1.747 2.238l-.2 1.594a2.007 2.007 0 0 1-2.238 1.747z" class="cls-5" transform="translate(-277.209 -152.417)"/>
        <path id="Path_22833" d="M325.005 168.57a2.013 2.013 0 0 0-.4-.009l-.339 2.749a1.2 1.2 0 1 0 2.391.295l.1-.8a2.008 2.008 0 0 0-1.752-2.235z" class="cls-6" transform="translate(-292.976 -152.419)"/>
    </g>
</svg>
